SplineFontDB: 3.0
FontName: TaameyAshkenaz-Medium
FullName: Taamey Ashkenaz Medium
FamilyName: Taamey Ashkenaz
Weight: Medium
Copyright: Copyright 2012 by Yoram Gnat (yoram.gnat@gmail.com)\nDistributed under the terms of GNU General Public License version 2(http://www.gnu.org/licenses/gpl.html).\n\nLatin glyphs and punctuation Copyright (URW)++,Copyright 1999 by (URW)++ Design & Development;\n \nHebrew Cantillation marks GSUB and GPOS OpenType positioning rules copyright (c) 2011-2012 by Yoram Gnat (yoram.gnat@gmail.com)\nDistributed under the terms of GNU General Public License version 2(http://www.gnu.org/licenses/gpl.html).\nInspired by the Hebrew OpenType Layout logic copyright (c) 2003 & 2007, Ralph Hancock & John Hudson published under the MIT License.\n\nAs a special exception, if you create a document which uses this font, and embed this font or unaltered portions of this font into the document, this font does not by itself cause the resulting document to be covered by the GNU General Public License. This exception does not however invalidate any other reasons why the document might be covered by the GNU General Public License. If you modify this font, you may extend this exception to your version of the font, but you are not obligated to do so. If you do not wish to do so, delete this exception statement from your version.
UComments: "The average width of a character (not including narrow chars) is 945.4" 
Version: 0.150yg
ItalicAngle: 0
UnderlinePosition: -170
UnderlineWidth: 70
Ascent: 1638
Descent: 410
LayerCount: 2
Layer: 0 0 "Back"  1
Layer: 1 0 "Fore"  0
XUID: [1021 594 1227166039 12540753]
FSType: 0
OS2Version: 0
OS2_WeightWidthSlopeOnly: 0
OS2_UseTypoMetrics: 1
CreationTime: 1244295734
ModificationTime: 1339336727
PfmFamily: 17
TTFWeight: 500
TTFWidth: 5
LineGap: 184
VLineGap: 0
Panose: 2 0 0 0 0 0 0 0 0 0
OS2TypoAscent: 0
OS2TypoAOffset: 1
OS2TypoDescent: 0
OS2TypoDOffset: 1
OS2TypoLinegap: 184
OS2WinAscent: 0
OS2WinAOffset: 1
OS2WinDescent: 0

StartChar: .null
Encoding: 0 -1 0
AltUni2: 000000.ffffffff.0 000000.ffffffff.0 000000.ffffffff.0 000000.ffffffff.0 000000.ffffffff.0 000000.ffffffff.0 000000.ffffffff.0 000000.ffffffff.0 000000.ffffffff.0 000000.ffffffff.0 000000.ffffffff.0 000000.ffffffff.0 000000.ffffffff.0 000000.ffffffff.0 000000.ffffffff.0 000000.ffffffff.0 000000.ffffffff.0 000000.ffffffff.0 000000.ffffffff.0 000000.ffffffff.0 000000.ffffffff.0 000000.ffffffff.0 000000.ffffffff.0 000000.ffffffff.0 000000.ffffffff.0 000000.ffffffff.0 000000.ffffffff.0 000000.ffffffff.0 000000.ffffffff.0 000000.ffffffff.0 000000.ffffffff.0 000000.ffffffff.0 000000.ffffffff.0 000000.ffffffff.0
Width: 1008
VWidth: 2273
GlyphClass: 2
Flags: W
HStem: -64 78<126 882> 154 132<401.055 524.945> 898 47<386.972 537.159> 1095 94<126 882>
VStem: 40 86<14 1095> 287 81<752.902 885.311> 397 132<157.521 282.595> 442 46<371 500.177> 583 111<643.92 875.285> 882 87<14 1095>
LayerCount: 2
Fore
SplineSet
488 371 m 1xfdc0
 442 371 l 1
 442 406 l 2
 442 455 447 482 457 512 c 0
 471 549 471 548 549 655 c 1
 570 685 583 725 583 769 c 0
 583 850 539 898 464 898 c 0
 414 898 368 872 368 845 c 0
 368 837 368 835 385 823 c 0
 404 806 415 787 415 766 c 0
 415 734 389 709 355 709 c 0
 316 709 287 743 287 790 c 0
 287 880 373 945 492 945 c 0
 612 945 694 872 694 762 c 0
 694 688 670 653 567 561 c 1
 502 505 488 477 488 381 c 0
 488 378 488 375 488 371 c 1xfdc0
463 286 m 0
 499 286 529 257 529 221 c 0
 529 184 500 154 463 154 c 0
 427 154 397 184 397 221 c 0xfec0
 397 257 426 286 463 286 c 0
126 1095 m 1
 126 14 l 1
 882 14 l 1
 882 1095 l 1
 126 1095 l 1
40 1189 m 1
 969 1189 l 1
 969 -64 l 1
 40 -64 l 1
 40 1189 l 1
EndSplineSet
Validated: 1
Substitution2: "L1ccmpZWJbuginLinuxoverride subtable" zerojoin
EndChar

StartChar: exclam
Encoding: 2 33 2
Width: 422
VWidth: 1755
GlyphClass: 2
Flags: W
HStem: -25 220<122.486 298.153>
VStem: 101 219<-3.15295 173.287 845.393 1267.85> 176 68<335 741.803>
LayerCount: 2
Fore
SplineSet
244 335 m 1xa0
 176 335 l 1xa0
 173 649 167 732 134 897 c 0
 109 1020 101 1075 101 1127 c 0xc0
 101 1236 139 1291 211 1291 c 0
 283 1291 318 1237 318 1125 c 0
 318 1074 311 1020 286 897 c 0
 253 732 246 643 244 335 c 1xa0
211 195 m 0
 271 195 320 146 320 86 c 0
 320 24 271 -25 209 -25 c 0
 149 -25 101 24 101 86 c 0xc0
 101 146 149 195 211 195 c 0
EndSplineSet
Validated: 1
EndChar

StartChar: quotedbl
Encoding: 3 34 3
Width: 772
VWidth: 1755
GlyphClass: 2
Flags: W
HStem: 1083 208<131.84 273.915 448.84 590.915>
VStem: 276 94<956.761 1173.5> 593 94<956.761 1173.5>
LayerCount: 2
Fore
SplineSet
456 780 m 1
 416 829 l 1
 532 903 593 985 593 1067 c 0
 593 1077 588 1083 581 1083 c 2
 576 1083 l 1
 569 1081 562 1083 553 1083 c 0
 476 1083 428 1120 428 1185 c 0
 428 1245 478 1291 543 1291 c 0
 627 1291 687 1223 687 1124 c 0
 687 1050 660 974 613 911 c 0
 588 878 560 856 485 799 c 0
 478 796 465 785 456 780 c 1
139 780 m 1
 99 829 l 1
 215 903 276 985 276 1067 c 0
 276 1077 271 1083 264 1083 c 2
 259 1083 l 1
 252 1081 245 1083 236 1083 c 0
 159 1083 111 1120 111 1185 c 0
 111 1245 161 1291 226 1291 c 0
 310 1291 370 1223 370 1124 c 0
 370 1050 343 974 296 911 c 0
 271 878 243 856 168 799 c 0
 161 796 148 785 139 780 c 1
EndSplineSet
Validated: 1
EndChar

StartChar: numbersign
Encoding: 4 35 4
Width: 975
VWidth: 1755
GlyphClass: 2
Flags: W
HStem: 0 21G<170 286.9 500 616.9> 400 99<49 228 356 558 686 863> 730 99<96 276 403 605 733 910>
LayerCount: 2
Fore
SplineSet
228 400 m 1
 49 400 l 1
 49 499 l 1
 242 499 l 1
 276 730 l 1
 96 730 l 1
 96 829 l 1
 289 829 l 1
 344 1204 l 1
 458 1204 l 1
 403 829 l 1
 619 829 l 1
 674 1204 l 1
 788 1204 l 1
 733 829 l 1
 910 829 l 1
 910 730 l 1
 719 730 l 1
 686 499 l 1
 863 499 l 1
 863 400 l 1
 672 400 l 1
 614 0 l 1
 500 0 l 1
 558 400 l 1
 342 400 l 1
 284 0 l 1
 170 0 l 1
 228 400 l 1
389 730 m 1
 356 499 l 1
 572 499 l 1
 605 730 l 1
 389 730 l 1
EndSplineSet
Validated: 1
EndChar

StartChar: dollar
Encoding: 5 36 5
Width: 960
VWidth: 1755
GlyphClass: 2
Flags: W
HStem: -20 77<276.991 437 520 640.109> 1141 80<309.838 437 520 664.76>
VStem: 76 137<120.385 303.5> 99 126<827.784 1055.99> 437 83<-228 -20 58 523 737 1141 1223 1405> 699 140<926.5 1098.91> 762 130<162.999 416.311>
LayerCount: 2
Fore
SplineSet
520 1405 m 1xd8
 520 1223 l 1
 711 1223 839 1106 839 965 c 0
 839 888 798 842 731 842 c 0
 668 842 625 882 625 944 c 0
 625 984 638 1003 689 1040 c 0
 694 1045 699 1053 699 1058 c 0xdc
 699 1095 615 1144 520 1144 c 1
 520 710 l 1
 530 707 535 705 560 698 c 0
 690 659 755 628 809 576 c 0
 863 522 892 448 892 355 c 0
 892 134 751 -17 520 -17 c 1
 520 -228 l 1
 437 -228 l 1
 437 -20 l 1
 365 -20 332 -10 283 5 c 0
 154 47 76 144 76 260 c 0
 76 347 129 410 201 410 c 0
 261 410 307 364 307 302 c 0
 307 251 287 223 227 188 c 0
 217 183 213 178 213 169 c 0xea
 213 115 311 57 437 57 c 1
 437 546 l 1
 344 574 291 594 246 621 c 0
 151 679 99 775 99 889 c 0
 99 1072 223 1194 437 1221 c 1
 437 1405 l 1
 520 1405 l 1xd8
437 737 m 1
 437 1141 l 1
 313 1141 225 1050 225 946 c 0
 225 844 283 788 437 737 c 1
520 523 m 1
 520 58 l 1
 565 63 587 69 617 81 c 0
 704 118 762 202 762 291 c 0xca
 762 386 704 458 593 500 c 0
 570 509 571 509 520 523 c 1
EndSplineSet
Validated: 1
EndChar

StartChar: percent
Encoding: 6 37 6
Width: 1450
VWidth: 1755
GlyphClass: 2
Flags: W
HStem: 0 21G<318 417.476> 27 68<946.777 1120.71> 563 67<247.803 422.117> 633 71<1123.68 1276.88> 1057 65<673.865 916.072> 1223 20G<442.5 515>
VStem: 71 152<646.706 887.317> 612 65<868.472 1075.96> 773 149<112.656 350.532> 1315 67<337.526 592.113>
LayerCount: 2
Fore
SplineSet
1133 1267 m 1
 406 0 l 1
 318 0 l 1
 950 1107 l 1
 885 1068 842 1057 782 1057 c 0
 745 1057 716 1062 672 1077 c 1
 675 1050 677 1036 677 1021 c 0
 677 914 627 786 552 697 c 0
 475 606 394 563 295 563 c 0
 165 563 71 655 71 781 c 0
 71 898 153 1062 257 1151 c 0
 326 1209 405 1243 480 1243 c 0
 550 1243 595 1220 640 1160 c 1
 692 1130 724 1122 768 1122 c 0
 880 1122 982 1172 1052 1267 c 1
 1133 1267 l 1
494 1174 m 1
 422 1149 399 1128 332 1011 c 0
 250 867 223 799 223 734 c 0
 223 672 264 630 322 630 c 0
 463 630 612 837 612 1030 c 0
 612 1057 610 1074 601 1102 c 1
 552 1119 526 1137 494 1174 c 1
1176 704 m 0
 1295 704 1382 616 1382 495 c 0
 1382 391 1329 256 1248 156 c 0
 1183 74 1092 27 1001 27 c 0
 869 27 773 116 773 239 c 0
 773 338 820 458 894 551 c 1
 975 650 1072 704 1176 704 c 0
1206 633 m 0
 1152 633 1106 595 1052 506 c 0
 959 355 922 265 922 195 c 0
 922 138 966 95 1020 95 c 0
 1161 95 1315 300 1315 491 c 0
 1315 570 1266 633 1206 633 c 0
EndSplineSet
Validated: 1
EndChar

StartChar: ampersand
Encoding: 7 38 7
Width: 1387
VWidth: 1755
GlyphClass: 2
Flags: W
HStem: -27 120<403.114 640.423> -20 139<972.016 1182.91> 633 76<795 952.699 1144.1 1289> 1218 75<502.697 679.541>
VStem: 57 189<257.557 498.838> 288 164<865.981 1155.58> 728 141<908.801 1175.7> 1251 77<191.217 287.862>
LayerCount: 2
Fore
SplineSet
1251 296 m 1x7f
 1328 286 l 1
 1319 217 1304 166 1269 114 c 0
 1207 21 1133 -20 1021 -20 c 0x7f
 924 -20 856 13 772 99 c 1
 658 12 561 -27 435 -27 c 0xbf
 318 -27 222 11 157 81 c 0
 95 148 57 246 57 332 c 0
 57 490 165 627 361 722 c 1
 307 838 288 906 288 983 c 0
 288 1169 410 1293 594 1293 c 0
 757 1293 869 1198 869 1057 c 0
 869 964 816 868 735 811 c 0
 690 779 659 764 564 722 c 1
 669 529 761 388 847 286 c 1
 922 373 970 476 970 551 c 0
 970 605 916 633 812 633 c 2
 795 633 l 1
 795 709 l 1
 1289 709 l 1
 1289 633 l 1
 1271 633 l 2
 1214 633 1165 616 1133 586 c 1
 1103 554 1104 554 1018 395 c 0
 979 325 976 317 902 226 c 1
 972 151 1030 119 1095 119 c 0
 1172 119 1230 185 1251 296 c 1x7f
528 795 m 1
 563 812 565 812 579 821 c 0
 679 875 728 953 728 1053 c 0
 728 1150 670 1218 589 1218 c 0
 510 1218 452 1147 452 1045 c 0
 452 980 477 900 528 795 c 1
395 650 m 1
 290 588 246 524 246 427 c 0
 246 251 386 93 540 93 c 0xbf
 598 93 640 109 717 158 c 1
 568 332 511 422 395 650 c 1
EndSplineSet
Validated: 1
EndChar

StartChar: quotesingle
Encoding: 8 39 8
Width: 456
VWidth: 1755
GlyphClass: 2
Flags: W
HStem: 1093 208<132.84 274.915>
VStem: 277 94<966.761 1183.5>
LayerCount: 2
Fore
SplineSet
140 790 m 1
 100 839 l 1
 216 913 277 995 277 1077 c 0
 277 1087 272 1093 265 1093 c 2
 260 1093 l 1
 253 1091 246 1093 237 1093 c 0
 160 1093 112 1130 112 1195 c 0
 112 1255 162 1301 227 1301 c 0
 311 1301 371 1233 371 1134 c 0
 371 1060 344 984 297 921 c 0
 272 888 244 866 169 809 c 0
 162 806 149 795 140 790 c 1
EndSplineSet
Validated: 1
EndChar

StartChar: parenleft
Encoding: 9 40 9
Width: 551
VWidth: 1755
GlyphClass: 2
Flags: W
VStem: 89 181<369.874 927.577>
LayerCount: 2
Fore
SplineSet
515 1400 m 1
 515 1337 l 1
 339 1183 270 986 270 649 c 0
 270 312 339 113 515 -41 c 1
 515 -106 l 1
 396 -32 337 21 270 105 c 1
 153 261 89 449 89 649 c 0
 89 862 160 1063 294 1221 c 0
 354 1291 410 1335 515 1400 c 1
EndSplineSet
Validated: 1
EndChar

StartChar: parenright
Encoding: 10 41 10
Width: 557
VWidth: 1755
GlyphClass: 2
Flags: W
VStem: 283 181<366.633 924.78>
LayerCount: 2
Fore
SplineSet
38 -109 m 1
 38 -44 l 1
 214 110 283 308 283 646 c 0
 283 983 214 1180 38 1334 c 1
 38 1400 l 1
 157 1328 216 1274 283 1188 c 0
 400 1034 464 846 464 646 c 0
 464 433 393 230 259 74 c 0
 199 2 143 -44 38 -109 c 1
EndSplineSet
Validated: 1
EndChar

StartChar: asterisk
Encoding: 11 42 11
Width: 885
VWidth: 1755
GlyphClass: 2
Flags: W
HStem: 445 153<103.789 242.293 625.499 763.747> 747 152<102.932 241.126 624.874 763.747>
VStem: 359 148<296.387 492.145 851.877 1044.81> 415 36<477.897 640 705 866.032>
LayerCount: 2
Fore
SplineSet
415 705 m 1xd0
 415 768 l 2xd0
 415 825 411 838 375 924 c 0
 365 945 359 964 359 976 c 0
 359 1015 395 1053 433 1053 c 0
 469 1053 507 1016 507 976 c 0xe0
 507 959 505 953 477 886 c 0
 459 847 451 810 451 768 c 2
 451 705 l 1xd0
 507 736 l 2
 553 764 575 785 621 850 c 0
 649 887 667 899 699 899 c 0
 739 899 773 870 773 831 c 0
 773 782 741 754 681 747 c 0
 601 738 575 731 525 703 c 2
 471 671 l 1
 525 640 l 1
 575 613 597 607 681 598 c 0
 741 591 773 563 773 514 c 0
 773 475 739 445 699 445 c 0
 667 445 649 457 621 494 c 0
 575 559 553 580 507 608 c 2xe0
 451 640 l 1
 451 576 l 2xd0
 451 519 457 502 493 418 c 0
 501 397 507 378 507 364 c 0
 507 327 469 288 433 288 c 0
 395 288 359 327 359 366 c 0xe0
 359 378 363 397 373 418 c 0
 411 504 415 519 415 576 c 2
 415 640 l 1xd0
 359 608 l 2
 309 578 291 559 245 492 c 0
 217 457 199 445 167 445 c 0
 127 445 95 475 95 514 c 0
 95 563 125 591 185 598 c 0
 267 607 291 613 341 641 c 2
 395 671 l 1
 341 703 l 2
 293 731 265 747 185 747 c 0
 125 747 95 782 95 831 c 0
 95 868 127 899 167 899 c 0
 199 899 217 887 245 850 c 0
 291 785 313 763 359 736 c 2xe0
 415 705 l 1xd0
EndSplineSet
Validated: 1
EndChar

StartChar: plus
Encoding: 12 43 12
Width: 1001
VWidth: 1755
GlyphClass: 2
Flags: W
HStem: 568 140<58 431 571 943>
VStem: 431 140<194 568 708 1080>
LayerCount: 2
Fore
SplineSet
431 708 m 1
 431 1080 l 1
 571 1080 l 1
 571 708 l 1
 943 708 l 1
 943 568 l 1
 571 568 l 1
 571 194 l 1
 431 194 l 1
 431 568 l 1
 58 568 l 1
 58 708 l 1
 431 708 l 1
EndSplineSet
Validated: 1
EndChar

StartChar: comma
Encoding: 13 44 13
Width: 466
VWidth: 1755
GlyphClass: 2
Flags: W
HStem: -17 206<117.802 260.582>
VStem: 263 92<-140.074 67.5>
LayerCount: 2
Fore
SplineSet
126 -321 m 1
 85 -272 l 1
 202 -190 263 -107 263 -33 c 0
 263 -23 260 -17 251 -17 c 2
 245 -17 l 1
 242 -19 224 -20 217 -20 c 0
 145 -20 97 21 97 84 c 0
 97 144 147 189 212 189 c 0
 298 189 355 120 355 15 c 0
 355 -108 282 -214 126 -321 c 1
EndSplineSet
Validated: 1
EndChar

StartChar: hyphen
Encoding: 14 45 14
Width: 674
VWidth: 1755
GlyphClass: 2
Flags: W
HStem: 556 146<119 556>
VStem: 119 437<556 702>
LayerCount: 2
Fore
SplineSet
119 702 m 1
 556 702 l 1
 556 556 l 1
 119 556 l 1
 119 702 l 1
EndSplineSet
Validated: 1
EndChar

StartChar: period
Encoding: 15 46 15
Width: 427
VWidth: 1755
GlyphClass: 2
Flags: W
HStem: -25 220<116.847 293.153>
VStem: 95 220<-3.15295 173.287>
LayerCount: 2
Fore
SplineSet
206 195 m 0
 266 195 315 146 315 86 c 0
 315 24 266 -25 204 -25 c 0
 144 -25 95 24 95 86 c 0
 95 146 144 195 206 195 c 0
EndSplineSet
Validated: 1
EndChar

StartChar: slash
Encoding: 16 47 16
Width: 638
VWidth: 1755
GlyphClass: 2
Flags: W
VStem: 39 570
LayerCount: 2
Fore
SplineSet
507 1291 m 1
 609 1291 l 1
 141 -25 l 1
 39 -25 l 1
 507 1291 l 1
EndSplineSet
Validated: 1
EndChar

StartChar: zero
Encoding: 17 48 17
Width: 975
VWidth: 1755
GlyphClass: 2
Flags: W
HStem: -27 76<395.034 583.122> 1160 76<395.19 582.24>
VStem: 74 194<307.551 895.026> 705 197<301.774 905.659>
LayerCount: 2
Fore
SplineSet
499 1236 m 0
 610 1236 721 1168 790 1057 c 0
 864 936 902 781 902 595 c 0
 902 230 730 -27 484 -27 c 0
 247 -27 74 238 74 600 c 0
 74 967 253 1236 499 1236 c 0
486 1160 m 0
 419 1160 356 1109 316 1020 c 0
 281 945 268 841 268 637 c 0
 268 351 283 240 332 158 c 0
 374 88 430 49 488 49 c 0
 555 49 618 102 658 188 c 0
 693 265 705 380 705 626 c 0
 705 867 690 970 643 1051 c 0
 601 1121 544 1160 486 1160 c 0
EndSplineSet
Validated: 1
EndChar

StartChar: one
Encoding: 18 49 18
Width: 975
VWidth: 1755
GlyphClass: 2
Flags: W
HStem: 0 82<176 442.099 628.675 871> 1030 75<183 405.028> 1216 20G<535 628>
VStem: 446 170<107.554 1022.55>
LayerCount: 2
Fore
SplineSet
565 1236 m 1
 628 1236 l 1
 619 1112 616 1027 616 941 c 2
 616 216 l 2
 616 119 616 119 628 107 c 1
 642 90 681 82 774 82 c 2
 871 82 l 1
 871 0 l 1
 176 0 l 1
 176 82 l 1
 290 82 l 2
 431 82 446 91 446 165 c 2
 446 216 l 1
 446 919 l 2
 446 1023 439 1030 337 1030 c 2
 183 1030 l 1
 183 1105 l 1
 344 1108 505 1164 565 1236 c 1
EndSplineSet
Validated: 1
EndChar

StartChar: two
Encoding: 19 50 19
Width: 975
VWidth: 1755
GlyphClass: 2
Flags: W
HStem: 0 165<253 768.592> 720 206<210.821 319.568> 1160 76<308.839 585.845>
VStem: 89 118<850.5 1059.88> 681 198<741.89 1055.4> 809 77<303.947 379>
LayerCount: 2
Fore
SplineSet
886 379 m 1xf4
 853 0 l 1
 62 0 l 1
 62 49 l 1
 139 151 170 191 233 265 c 1
 370 412 l 1
 474 521 l 2
 620 675 681 793 681 923 c 0
 681 1070 593 1160 449 1160 c 0
 367 1160 293 1127 249 1075 c 0
 224 1045 207 1006 207 979 c 0
 207 956 211 954 276 926 c 0
 315 911 338 871 338 827 c 0
 338 764 295 720 230 720 c 0
 146 720 89 795 89 906 c 0
 89 1092 261 1236 484 1236 c 0
 712 1236 879 1091 879 893 c 0xf8
 879 809 852 730 795 653 c 0
 755 601 685 539 526 416 c 0
 414 329 374 291 253 165 c 1
 646 165 l 2
 755 165 769 178 792 290 c 2
 809 379 l 1
 886 379 l 1xf4
EndSplineSet
Validated: 1
EndChar

StartChar: three
Encoding: 20 51 20
Width: 975
VWidth: 1755
GlyphClass: 2
Flags: W
HStem: -27 76<280.017 568.245> 598 90<300.058 593.639> 1160 76<321.239 586.214>
VStem: 74 130<117.956 306.5> 121 142<919 1092.62> 658 183<779.687 1092.72> 680 194<158.634 500.014>
LayerCount: 2
Fore
SplineSet
356 688 m 0xf2
 385 688 442 683 465 683 c 0
 591 683 658 768 658 931 c 0
 658 1080 591 1160 465 1160 c 0
 366 1160 263 1107 263 1058 c 0
 263 1048 269 1039 286 1027 c 0
 326 999 340 974 340 937 c 0
 340 874 299 832 237 832 c 0
 170 832 121 883 121 955 c 0
 121 1114 276 1236 482 1236 c 0
 700 1236 841 1117 841 934 c 0xec
 841 810 771 711 648 660 c 0
 636 655 633 655 608 646 c 1
 789 595 874 495 874 330 c 0
 874 114 707 -27 454 -27 c 0
 229 -27 74 90 74 261 c 0
 74 352 124 416 198 416 c 0
 263 416 310 368 310 305 c 0
 310 261 292 232 243 202 c 1
 208 182 204 178 204 163 c 0
 204 109 323 49 434 49 c 0
 590 49 680 152 680 333 c 0
 680 518 593 604 446 604 c 0
 430 604 414 603 397 601 c 0
 374 598 360 598 355 598 c 0
 320 598 300 611 300 641 c 0
 300 673 319 688 356 688 c 0xf2
EndSplineSet
Validated: 1
EndChar

StartChar: four
Encoding: 21 52 21
Width: 975
VWidth: 1755
GlyphClass: 2
Flags: W
HStem: 0 82<365 538.086 716.192 878> 307 98<156 542 712 925> 1216 20G<631.632 722>
VStem: 542 170<89.4577 307 405 937>
LayerCount: 2
Fore
SplineSet
646 1236 m 1
 722 1236 l 1
 713 1104 712 1105 712 886 c 2
 712 405 l 1
 925 405 l 1
 925 307 l 1
 712 307 l 1
 712 216 l 1
 712 165 l 2
 712 91 729 82 871 82 c 2
 878 82 l 1
 878 0 l 1
 365 0 l 1
 365 82 l 1
 385 82 l 2
 527 82 542 91 542 165 c 2
 542 216 l 1
 542 307 l 1
 49 307 l 1
 49 405 l 1
 646 1236 l 1
542 405 m 1
 542 937 l 1
 156 405 l 1
 542 405 l 1
EndSplineSet
Validated: 1
EndChar

StartChar: five
Encoding: 22 53 22
Width: 975
VWidth: 1755
GlyphClass: 2
Flags: W
HStem: -27 76<276.646 575.58> 704 88<282.46 578.028> 1008 175<287.223 703.04> 1216 20G<207.5 303>
VStem: 79 135<120.027 302> 114 135<542.695 667.438> 690 191<189.978 583.516>
LayerCount: 2
Fore
SplineSet
288 1037 m 1xf6
 258 739 l 1
 355 779 410 792 484 792 c 0
 721 792 881 632 881 393 c 0
 881 135 708 -27 432 -27 c 0
 341 -27 269 -7 209 32 c 1
 130 86 79 174 79 261 c 0
 79 343 136 409 206 409 c 0
 269 409 316 362 316 300 c 0
 316 253 300 229 246 196 c 0
 225 184 214 170 214 158 c 0xfa
 214 104 323 49 428 49 c 0
 500 49 573 74 608 111 c 0
 660 165 690 265 690 382 c 0
 690 582 595 704 439 704 c 0
 369 704 311 685 249 641 c 1
 242 571 215 534 171 534 c 0
 138 534 114 558 114 593 c 0
 114 621 126 644 163 683 c 1
 188 901 204 1089 211 1236 c 1
 395 1192 460 1183 572 1183 c 0
 672 1183 720 1192 806 1229 c 0
 815 1234 824 1236 829 1236 c 0
 838 1236 842 1229 842 1219 c 0
 842 1205 836 1190 816 1157 c 0
 758 1060 649 1008 500 1008 c 0
 431 1008 383 1014 288 1037 c 1xf6
EndSplineSet
Validated: 1
EndChar

StartChar: six
Encoding: 23 54 23
Width: 975
VWidth: 1755
GlyphClass: 2
Flags: W
HStem: -27 76<396.459 612.054> 648 107<390.079 632.348> 1160 76<460.079 682.035>
VStem: 74 207<267.568 688.63> 686 188<963.842 1140.93> 715 191<205.343 559.637>
LayerCount: 2
Fore
SplineSet
268 596 m 1xf8
 350 707 439 755 558 755 c 0
 756 755 906 600 906 393 c 0xf4
 906 282 859 166 784 89 c 0
 710 12 616 -27 502 -27 c 0
 242 -27 74 199 74 541 c 0
 74 732 128 915 223 1050 c 0
 307 1167 442 1236 586 1236 c 0
 751 1236 874 1146 874 1025 c 0
 874 951 825 899 758 899 c 0
 696 899 651 942 651 1002 c 0
 651 1027 661 1052 678 1085 c 0
 685 1097 686 1102 686 1109 c 0
 686 1141 650 1160 588 1160 c 0
 477 1160 384 1087 333 963 c 1
 294 874 285 815 268 596 c 1xf8
511 648 m 0
 369 648 281 537 281 356 c 0
 281 291 295 231 323 177 c 0
 365 93 427 49 506 49 c 0
 635 49 715 178 715 380 c 0
 715 547 637 648 511 648 c 0
EndSplineSet
Validated: 1
EndChar

StartChar: seven
Encoding: 24 55 24
Width: 975
VWidth: 1755
GlyphClass: 2
Flags: W
HStem: 1070 146<242.713 746.015> 1216 20G<155.459 253.5 836.5 891>
VStem: 104 77<808.766 860.824> 358 226<-1.29111 315.964>
LayerCount: 2
Fore
SplineSet
104 811 m 1xb0
 158 1236 l 1x70
 349 1224 469 1216 618 1216 c 0
 725 1216 782 1220 891 1229 c 1
 891 1177 l 1
 881 1154 876 1138 874 1135 c 2
 795 971 l 1
 626 599 583 461 583 252 c 0
 583 230 583 207 584 184 c 1
 584 180 584 176 584 171 c 0
 584 30 551 -25 469 -25 c 0
 400 -25 358 26 358 105 c 0
 358 179 388 290 440 422 c 0
 484 529 498 558 630 819 c 2
 749 1058 l 1
 733 1057 719 1057 706 1057 c 0
 679 1057 658 1058 641 1058 c 0
 569 1058 442 1065 340 1070 c 0
 326 1072 311 1070 302 1070 c 0
 251 1070 240 1053 213 937 c 2
 181 799 l 1
 104 811 l 1xb0
EndSplineSet
Validated: 1
EndChar

StartChar: eight
Encoding: 25 56 25
Width: 975
VWidth: 1755
GlyphClass: 2
Flags: W
HStem: -27 76<323.526 643.939> 1160 76<349.921 630.852>
VStem: 72 146<143.372 451.45> 130 135<851.481 1065.27> 720 129<808.474 1081.43> 760 141<174.366 421.16>
LayerCount: 2
Fore
SplineSet
656 685 m 1xd8
 723 655 755 636 790 606 c 0
 862 543 901 453 901 353 c 0
 901 246 854 139 779 74 c 1
 707 9 599 -27 469 -27 c 0
 357 -27 262 0 193 49 c 1
 119 106 72 200 72 295 c 0xe4
 72 384 110 467 179 524 c 0
 218 556 251 574 328 604 c 1
 265 637 237 657 207 692 c 0
 158 746 130 826 130 901 c 0
 130 1094 286 1236 500 1236 c 0
 702 1236 849 1117 849 956 c 0
 849 842 788 757 656 685 c 1xd8
469 753 m 2
 584 710 l 1
 684 794 720 855 720 946 c 0
 720 1075 630 1160 495 1160 c 0
 356 1160 265 1085 265 974 c 0xd8
 265 872 327 805 469 753 c 2
571 511 m 2
 409 569 l 1
 272 506 218 427 218 295 c 0
 218 141 314 49 477 49 c 0
 649 49 760 138 760 279 c 0xe4
 760 395 705 464 571 511 c 2
EndSplineSet
Validated: 1
EndChar

StartChar: nine
Encoding: 26 57 26
Width: 975
VWidth: 1755
GlyphClass: 2
Flags: W
HStem: -27 76<290.461 515.099> 449 105<343.826 587.403> 1160 76<364.255 585.04>
VStem: 69 191<647.311 1007.77> 100 188<65.132 237.546> 693 208<508.462 935.65>
LayerCount: 2
Fore
SplineSet
709 609 m 1xec
 614 490 540 449 416 449 c 0
 216 449 69 603 69 812 c 0xf4
 69 1049 245 1236 470 1236 c 0
 731 1236 901 1009 901 656 c 0
 901 475 853 306 767 176 c 0
 681 46 544 -27 385 -27 c 0
 224 -27 100 61 100 177 c 0
 100 247 152 303 219 303 c 0
 277 303 323 258 323 200 c 0
 323 175 319 165 298 123 c 0
 291 109 288 100 288 93 c 0
 288 66 328 49 386 49 c 0
 503 49 601 125 646 255 c 0
 678 344 686 396 709 609 c 1xec
477 1160 m 0
 400 1160 353 1132 313 1063 c 1
 280 1011 260 928 260 844 c 0
 260 658 335 554 469 554 c 0
 544 554 613 593 653 656 c 0
 680 696 693 762 693 834 c 0
 693 1030 607 1160 477 1160 c 0
EndSplineSet
Validated: 1
EndChar

StartChar: colon
Encoding: 27 58 27
Width: 487
VWidth: 1755
GlyphClass: 2
Flags: W
HStem: -25 220<172.713 348.287> 611 219<172.713 348.287>
VStem: 151 219<-3.15295 173.287 632.847 808.648>
LayerCount: 2
Fore
SplineSet
261 195 m 0
 321 195 370 146 370 86 c 0
 370 24 322 -25 260 -25 c 0
 200 -25 151 24 151 86 c 0
 151 146 199 195 261 195 c 0
261 830 m 0
 321 830 370 782 370 722 c 0
 370 660 322 611 260 611 c 0
 200 611 151 660 151 722 c 0
 151 782 199 830 261 830 c 0
EndSplineSet
Validated: 1
EndChar

StartChar: semicolon
Encoding: 28 59 28
Width: 487
VWidth: 1755
GlyphClass: 2
Flags: W
HStem: -17 206<159.463 301.689> 609 220<174.486 350.153>
VStem: 153 219<630.847 807.287> 303 94<-138.195 67.5>
LayerCount: 2
Fore
SplineSet
167 -321 m 1xd0
 126 -272 l 1
 243 -190 303 -107 303 -33 c 0
 303 -23 300 -17 291 -17 c 2
 286 -17 l 1
 283 -19 265 -20 258 -20 c 0
 186 -20 139 21 139 84 c 0
 139 144 188 189 253 189 c 0
 339 189 397 120 397 15 c 0
 397 -108 323 -214 167 -321 c 1xd0
263 829 m 0
 323 829 372 780 372 720 c 0
 372 658 323 609 261 609 c 0
 201 609 153 658 153 720 c 0xe0
 153 780 201 829 263 829 c 0
EndSplineSet
Validated: 1
EndChar

StartChar: less
Encoding: 29 60 29
Width: 1063
VWidth: 1755
GlyphClass: 2
Flags: W
LayerCount: 2
Fore
SplineSet
979 769 m 1
 281 444 l 1
 979 119 l 1
 979 -30 l 1
 86 377 l 1
 86 511 l 1
 979 918 l 1
 979 769 l 1
EndSplineSet
Validated: 1
EndChar

StartChar: equal
Encoding: 30 61 30
Width: 1063
VWidth: 1755
GlyphClass: 2
Flags: W
HStem: 196 141<89 974> 551 141<89 974>
LayerCount: 2
Fore
SplineSet
89 196 m 1
 89 337 l 1
 974 337 l 1
 974 196 l 1
 89 196 l 1
89 551 m 1
 89 692 l 1
 974 692 l 1
 974 551 l 1
 89 551 l 1
EndSplineSet
Validated: 1
EndChar

StartChar: greater
Encoding: 31 62 31
Width: 1063
VWidth: 1755
GlyphClass: 2
Flags: W
LayerCount: 2
Fore
SplineSet
84 769 m 1
 84 918 l 1
 978 511 l 1
 978 377 l 1
 84 -30 l 1
 84 119 l 1
 782 444 l 1
 84 769 l 1
EndSplineSet
Validated: 1
EndChar

StartChar: question
Encoding: 32 63 32
Width: 778
VWidth: 1755
GlyphClass: 2
Flags: W
HStem: -27 220<249.713 425.287> 1213 78<210.895 461.129>
VStem: 44 135<993.5 1164.9> 228 219<-5.15295 171.287> 303 77<335 550.106> 537 185<824.708 1144.51>
LayerCount: 2
Fore
SplineSet
380 335 m 1xec
 303 335 l 1
 303 392 l 2
 303 474 311 520 328 569 c 0
 351 631 351 630 481 807 c 1
 516 858 537 925 537 997 c 0
 537 1132 464 1213 340 1213 c 0
 256 1213 179 1170 179 1125 c 0
 179 1111 180 1108 207 1087 c 0
 240 1059 258 1028 258 993 c 0
 258 939 215 897 158 897 c 0
 93 897 44 955 44 1032 c 0
 44 1183 188 1291 386 1291 c 0
 586 1291 722 1169 722 986 c 0
 722 863 683 804 511 651 c 1
 404 558 380 511 380 356 c 0
 380 349 380 342 380 335 c 1xec
338 193 m 0
 398 193 447 144 447 84 c 0
 447 22 399 -27 337 -27 c 0
 277 -27 228 22 228 84 c 0xf4
 228 144 276 193 338 193 c 0
EndSplineSet
Validated: 1
EndChar

StartChar: at
Encoding: 33 64 33
Width: 1293
VWidth: 1755
GlyphClass: 2
Flags: W
HStem: -25 90<487.704 895.445> 268 70<491.575 624.436 805.604 974.036> 881 72<608.938 743.599> 1202 89<482.446 887.306>
VStem: 75 99<394.639 875.456> 308 159<367.192 678.693> 716 130<335.857 406.347> 1146 91<548.665 936.223>
LayerCount: 2
Fore
SplineSet
1118 330 m 1
 1225 330 l 1
 1192 253 1138 185 1063 116 c 0
 959 25 827 -25 686 -25 c 0
 341 -25 75 257 75 625 c 0
 75 814 140 988 256 1109 c 0
 367 1223 527 1291 683 1291 c 0
 988 1291 1237 1055 1237 764 c 0
 1237 605 1165 447 1046 348 c 0
 977 290 902 258 837 258 c 0
 765 258 716 303 716 372 c 0
 716 384 714 393 716 407 c 1
 647 305 598 268 528 268 c 0
 470 268 407 301 367 348 c 0
 328 393 308 456 308 530 c 0
 308 637 350 745 422 827 c 1
 491 902 585 953 662 953 c 0
 729 953 778 911 799 839 c 1
 827 937 l 1
 981 937 l 1
 853 430 l 2
 848 409 846 391 846 377 c 0
 846 352 864 335 891 335 c 0
 936 335 1001 382 1053 456 c 0
 1110 537 1146 655 1146 752 c 0
 1146 871 1091 995 1000 1081 c 0
 916 1162 815 1202 692 1202 c 0
 392 1202 174 963 174 633 c 0
 174 301 393 65 700 65 c 0
 874 65 1019 156 1118 330 c 1
686 881 m 0
 646 881 606 854 576 807 c 0
 511 707 467 575 467 476 c 0
 467 390 499 338 551 338 c 0
 605 338 660 394 702 491 c 0
 739 573 765 686 765 755 c 0
 765 832 735 881 686 881 c 0
EndSplineSet
Validated: 1
EndChar

StartChar: bracketleft
Encoding: 60 91 34
Width: 583
VWidth: 1755
GlyphClass: 2
Flags: W
HStem: -106 63<273 521> 1285 65<273 521>
VStem: 116 157<-43 1285>
LayerCount: 2
Fore
SplineSet
273 -43 m 1
 521 -43 l 1
 521 -106 l 1
 116 -106 l 1
 116 1350 l 1
 521 1350 l 1
 521 1285 l 1
 273 1285 l 1
 273 -43 l 1
EndSplineSet
Validated: 1
EndChar

StartChar: backslash
Encoding: 61 92 35
Width: 1063
VWidth: 1755
GlyphClass: 2
Flags: W
HStem: 0 21G<821.142 934>
LayerCount: 2
Fore
SplineSet
231 1293 m 1
 934 0 l 1
 832 0 l 1
 130 1293 l 1
 231 1293 l 1
EndSplineSet
Validated: 1
EndChar

StartChar: bracketright
Encoding: 62 93 36
Width: 583
VWidth: 1755
GlyphClass: 2
Flags: W
HStem: -106 65<63 308> 1287 63<63 308>
VStem: 308 159<-41 1287>
LayerCount: 2
Fore
SplineSet
308 1287 m 1
 63 1287 l 1
 63 1350 l 1
 467 1350 l 1
 467 -106 l 1
 63 -106 l 1
 63 -41 l 1
 308 -41 l 1
 308 1287 l 1
EndSplineSet
Validated: 1
EndChar

StartChar: asciicircum
Encoding: 63 94 37
Width: 1063
VWidth: 1755
GlyphClass: 2
Flags: W
LayerCount: 2
Fore
SplineSet
973 558 m 1
 819 558 l 1
 534 1104 l 1
 244 558 l 1
 91 558 l 1
 458 1267 l 1
 608 1267 l 1
 973 558 l 1
EndSplineSet
Validated: 1
EndChar

StartChar: dotnosp
Encoding: 96 775 38
Width: 0
VWidth: 2248
GlyphClass: 4
Flags: W
HStem: 1392 116<-56.2338 56.2338>
VStem: -58 116<1393.54 1506.51>
AnchorPoint: "m2b1" 0 0 mark 0
LayerCount: 2
Fore
SplineSet
-58 1450 m 0
 -58 1482 -33 1508 0 1508 c 0
 33 1508 58 1482 58 1450 c 0
 58 1419 33 1392 0 1392 c 0
 -33 1392 -58 1419 -58 1450 c 0
EndSplineSet
Validated: 1
EndChar

StartChar: dieresisnosp
Encoding: 97 776 39
Width: 0
VWidth: 2248
GlyphClass: 4
Flags: W
HStem: 1392 116<-163.168 -49.7662 49.7662 163.168>
VStem: -165 117<1393.96 1506.18> 48 117<1393.96 1506.18>
AnchorPoint: "m2b1" 0 0 mark 0
LayerCount: 2
Fore
SplineSet
48 1451 m 0
 48 1482 73 1508 106 1508 c 0
 139 1508 165 1482 165 1451 c 0
 165 1420 139 1392 106 1392 c 0
 73 1392 48 1420 48 1451 c 0
-165 1451 m 0
 -165 1482 -139 1508 -106 1508 c 0
 -73 1508 -48 1482 -48 1451 c 0
 -48 1420 -73 1392 -106 1392 c 0
 -139 1392 -165 1420 -165 1451 c 0
EndSplineSet
Validated: 1
EndChar

StartChar: ringnosp
Encoding: 98 778 40
Width: 0
VWidth: 2248
GlyphClass: 4
Flags: W
HStem: 1295 42<-48.9534 50.2562> 1488 40<-49.3831 48.9744>
VStem: -116 44<1359.15 1466.63> 72 44<1358.77 1466.91>
AnchorPoint: "m2b1" 0 0 mark 0
LayerCount: 2
Fore
SplineSet
0 1295 m 0
 -65 1295 -116 1349 -116 1413 c 0
 -116 1473 -67 1528 0 1528 c 0
 61 1528 116 1479 116 1413 c 0
 116 1349 64 1295 0 1295 c 0
0 1488 m 0
 -40 1488 -72 1457 -72 1413 c 256
 -72 1369 -40 1337 0 1337 c 0
 38 1337 72 1367 72 1413 c 256
 72 1458 38 1488 0 1488 c 0
EndSplineSet
Validated: 1
EndChar

StartChar: atnah
Encoding: 100 1425 42
Width: 0
VWidth: 2248
GlyphClass: 4
Flags: W
HStem: -313 171<-37.7426 37.7426> -313 68<-64.0385 -39 39 64.0385>
VStem: -155 72<-493.988 -328.742> -39 78<-256.88 -142.004> 83 72<-493.983 -328.742>
CounterMasks: 1 38
AnchorPoint: "m2m4" 155 0 mark 0
AnchorPoint: "m2m4" -235 0 basemark 0
AnchorPoint: "m2m3" -235 0 basemark 0
AnchorPoint: "m2m1" 155 0 mark 0
AnchorPoint: "m2bmback" 0 0 mark 0
AnchorPoint: "m2b5a" 0 0 mark 0
LayerCount: 2
Fore
SplineSet
39 -157 m 1xb8
 39 -245 l 1x78
 66 -249 155 -267 155 -431 c 0
 155 -456 150 -462 150 -483 c 1
 138 -490 129 -494 118 -494 c 0
 105 -494 95 -488 83 -483 c 1
 83 -431 l 2
 83 -362 62 -313 0 -313 c 0xb8
 -62 -313 -83 -362 -83 -431 c 2
 -83 -483 l 1
 -96 -490 -107 -494 -118 -494 c 0
 -130 -494 -139 -490 -150 -483 c 1
 -150 -462 -155 -456 -155 -431 c 0
 -155 -267 -66 -249 -39 -245 c 1x78
 -39 -157 l 1
 -26 -146 -13 -142 0 -142 c 0
 13 -142 26 -148 39 -157 c 1xb8
EndSplineSet
Validated: 1
Position2: "Single Positioning lookup 23 subtable" dx=200 dy=0 dh=0 dv=0
MultipleSubs2: "AddHairspaceAfterMark subtable" atnah hairspace
MultipleSubs2: "AddThinspaceAfterMark subtable" atnah thinspace
EndChar

StartChar: segolta
Encoding: 101 1426 43
Width: 0
VWidth: 2248
GlyphClass: 4
Flags: W
HStem: 1291 109<-143.908 -36.0918 36.0918 143.908> 1425 110<-53.9082 53.9082>
VStem: -145 110<1292.09 1398.95> -55 110<1426.09 1533.91> 35 110<1292.09 1398.95>
AnchorPoint: "m2m8" 225 0 mark 0
AnchorPoint: "m2m7" 145 0 mark 0
AnchorPoint: "m2mrafe" 350 0 mark 0
AnchorPoint: "m2b8b" 0 0 mark 0
LayerCount: 2
Fore
SplineSet
-145 1346 m 0xe0
 -145 1377 -121 1400 -90 1400 c 0
 -59 1400 -35 1377 -35 1346 c 0
 -35 1315 -59 1291 -90 1291 c 0
 -121 1291 -145 1315 -145 1346 c 0xe0
35 1346 m 0xc8
 35 1377 59 1400 90 1400 c 0
 121 1400 145 1377 145 1346 c 0
 145 1315 121 1291 90 1291 c 0
 59 1291 35 1315 35 1346 c 0xc8
-55 1480 m 0xd0
 -55 1511 -31 1535 0 1535 c 0
 31 1535 55 1511 55 1480 c 0
 55 1449 31 1425 0 1425 c 0
 -31 1425 -55 1449 -55 1480 c 0xd0
EndSplineSet
Validated: 1
MultipleSubs2: "AddHairspaceAfterMark subtable" segolta hairspace
MultipleSubs2: "AddThinspaceAfterMark subtable" segolta thinspace
Substitution2: "UpperMarksChanges subtable" segolta_on_right
EndChar

StartChar: shalshelet
Encoding: 102 1427 44
Width: 0
VWidth: 2248
GlyphClass: 4
Flags: W
HStem: 1262 50<23 105>
AnchorPoint: "m2m7" 105 0 mark 0
AnchorPoint: "m2m7" -188 0 basemark 0
AnchorPoint: "m2m7n" 105 0 mark 0
AnchorPoint: "m2mrafe" 0 0 mark 0
AnchorPoint: "m2b9" 0 0 mark 0
AnchorPoint: "m2b8a" 0 0 mark 0
LayerCount: 2
Fore
SplineSet
69 1597 m 2
 0 1544 l 2
 -23 1526 -21 1526 13 1526 c 2
 64 1526 l 2
 103 1526 104 1526 77 1500 c 1
 10 1444 l 1
 -19 1418 -21 1419 21 1419 c 2
 49 1419 l 2
 103 1419 107 1419 65 1385 c 2
 13 1340 l 2
 -21 1312 -17 1312 23 1312 c 2
 75 1312 l 2
 105 1312 105 1314 105 1288 c 0
 105 1260 105 1262 73 1262 c 2
 -69 1262 l 2
 -113 1262 -112 1262 -71 1296 c 2
 -17 1340 l 2
 13 1364 12 1364 -29 1364 c 2
 -68 1364 l 2
 -114 1364 -114 1366 -77 1396 c 2
 -12 1450 l 2
 13 1470 13 1470 -19 1470 c 2
 -77 1470 l 2
 -110 1470 -114 1470 -88 1493 c 2
 53 1613 l 2
 64 1619 74 1619 74 1619 c 25
 74 1619 85 1610 69 1597 c 2
EndSplineSet
Validated: 1
MultipleSubs2: "AddHairspaceAfterMark subtable" shalshelet hairspace
MultipleSubs2: "AddThinspaceAfterMark subtable" shalshelet thinspace
EndChar

StartChar: zaqefqatan
Encoding: 103 1428 45
Width: 0
VWidth: 2496
GlyphClass: 4
Flags: W
HStem: 1257 137<-64.9132 64.9132> 1448 137<-64.9132 64.9132>
VStem: -69 138<1261.08 1389.91 1452.08 1580.91>
AnchorPoint: "m2m7" 69 0 mark 0
AnchorPoint: "m2m7" -150 0 basemark 0
AnchorPoint: "m2m7n" 70 0 mark 0
AnchorPoint: "m2mrafe" 0 0 mark 0
AnchorPoint: "m2b9" 0 0 mark 0
AnchorPoint: "m2b8a" 0 0 mark 0
LayerCount: 2
Fore
SplineSet
-69 1325 m 0
 -69 1364 -39 1394 0 1394 c 0
 39 1394 69 1364 69 1325 c 0
 69 1287 39 1257 0 1257 c 0
 -39 1257 -69 1287 -69 1325 c 0
-69 1516 m 0
 -69 1555 -39 1585 0 1585 c 0
 39 1585 69 1555 69 1516 c 0
 69 1478 39 1448 0 1448 c 0
 -39 1448 -69 1478 -69 1516 c 0
EndSplineSet
Validated: 1
MultipleSubs2: "AddHairspaceAfterMark subtable" zaqefqatan hairspace
MultipleSubs2: "AddThinspaceAfterMark subtable" zaqefqatan thinspace
EndChar

StartChar: zaqefgadol
Encoding: 104 1429 46
Width: 0
VWidth: 2495
GlyphClass: 4
Flags: W
HStem: 1257 138<34.6735 161.605> 1448 138<34.6735 161.605>
VStem: -166 98<1257.02 1586> 30 136<1261.2 1390.8 1452.2 1581.8>
AnchorPoint: "m2m7" 166 0 mark 0
AnchorPoint: "m2m7" -245 0 basemark 0
AnchorPoint: "m2m7n" 166 0 mark 0
AnchorPoint: "m2mrafe" 0 0 mark 0
AnchorPoint: "m2b9" 0 0 mark 0
AnchorPoint: "m2b8a" 0 0 mark 0
LayerCount: 2
Fore
SplineSet
30 1326 m 0
 30 1364 60 1395 99 1395 c 0
 138 1395 166 1364 166 1326 c 0
 166 1288 138 1257 99 1257 c 0
 60 1257 30 1288 30 1326 c 0
30 1517 m 0
 30 1555 60 1586 99 1586 c 0
 138 1586 166 1555 166 1517 c 0
 166 1479 138 1448 99 1448 c 0
 60 1448 30 1479 30 1517 c 0
-118 1586 m 0
 -66 1586 -68 1586 -68 1548 c 1
 -68 1297 l 1
 -68 1294 -68 1292 -68 1290 c 0
 -68 1260 -70 1257 -118 1257 c 0
 -166 1257 -166 1260 -166 1297 c 1
 -166 1548 l 1
 -166 1586 -166 1586 -118 1586 c 0
EndSplineSet
Validated: 1
MultipleSubs2: "AddHairspaceAfterMark subtable" zaqefgadol hairspace
MultipleSubs2: "AddThinspaceAfterMark subtable" zaqefgadol thinspace
EndChar

StartChar: tipeha
Encoding: 105 1430 47
Width: 0
VWidth: 2245
GlyphClass: 4
Flags: W
HStem: -497 76<40.9252 135.892>
VStem: -60 76<-393.185 -146.111>
AnchorPoint: "m2m4" 60 0 mark 0
AnchorPoint: "m2m4" -140 0 basemark 0
AnchorPoint: "m2m3" -140 0 basemark 0
AnchorPoint: "m2m1" 136 0 mark 0
AnchorPoint: "m2bmback" -52 0 mark 0
AnchorPoint: "m2b5a" -11 0 mark 0
LayerCount: 2
Fore
SplineSet
133 -421 m 1
 136 -431 136 -446 136 -455 c 1
 136 -476 130 -487 121 -497 c 1
 16 -476 -60 -424 -60 -301 c 0
 -60 -243 -52 -169 -49 -155 c 1
 -36 -149 -23 -145 -11 -145 c 0
 2 -145 13 -149 26 -155 c 1
 20 -203 16 -242 16 -274 c 0
 16 -393 39 -396 133 -421 c 1
EndSplineSet
Validated: 1
Position2: "Single Positioning lookup 23 subtable" dx=200 dy=0 dh=0 dv=0
MultipleSubs2: "AddHairspaceAfterMark subtable" tipeha hairspace
MultipleSubs2: "AddThinspaceAfterMark subtable" tipeha thinspace
EndChar

StartChar: revia
Encoding: 106 1431 48
Width: 0
VWidth: 2509
GlyphClass: 4
Flags: W
HStem: 1254 211<-44.3505 44.3505>
VStem: -94 188<1302.39 1414.44>
AnchorPoint: "m2m7" 94 0 mark 0
AnchorPoint: "m2m7" -184 0 basemark 0
AnchorPoint: "m2m7n" 94 0 mark 0
AnchorPoint: "m2b9" 0 0 mark 0
AnchorPoint: "m2b8a" 0 0 mark 0
LayerCount: 2
Fore
SplineSet
0 1254 m 1
 -14 1254 -23 1277 -52 1305 c 1
 -78 1333 -94 1340 -94 1354 c 1
 -94 1370 -78 1380 -53 1410 c 1
 -25 1442 -14 1465 0 1465 c 1
 14 1465 25 1442 53 1410 c 1
 78 1380 94 1370 94 1354 c 1
 94 1340 78 1333 52 1305 c 1
 23 1277 14 1254 0 1254 c 1
EndSplineSet
Validated: 1
MultipleSubs2: "AddHairspaceAfterMark subtable" revia hairspace
MultipleSubs2: "AddThinspaceAfterMark subtable" revia thinspace
EndChar

StartChar: zarqa
Encoding: 107 1432 49
Width: 0
VWidth: 2506
GlyphClass: 4
Flags: W
HStem: 1252 71<42.5356 129.9> 1422 66<-128.751 -45.8997>
VStem: -194 61<1316.4 1418.47> 133 60<1327.56 1422.84>
AnchorPoint: "m2m7" 193 0 mark 0
AnchorPoint: "m2m7" -111 0 basemark 0
AnchorPoint: "m2m7n" 193 0 mark 0
AnchorPoint: "m2mrafe" 0 0 mark 0
AnchorPoint: "m2b9" 0 0 mark 0
AnchorPoint: "m2b8a" 0 0 mark 0
LayerCount: 2
Fore
SplineSet
133 1376 m 0
 133 1405 109 1421 91 1430 c 1
 91 1458 104 1480 121 1493 c 1
 157 1474 193 1437 193 1378 c 0
 193 1300 141 1252 89 1252 c 0
 25 1252 -3 1307 -24 1349 c 2
 -37 1375 l 2
 -59 1417 -77 1422 -88 1422 c 0
 -112 1422 -133 1398 -133 1365 c 0
 -133 1344 -120 1322 -92 1310 c 1
 -92 1283 -105 1262 -122 1248 c 1
 -173 1278 -194 1318 -194 1365 c 0
 -194 1439 -145 1488 -88 1488 c 0
 -36 1488 -5 1450 24 1393 c 1
 38 1366 l 2
 53 1337 66 1323 86 1323 c 0
 110 1323 133 1344 133 1376 c 0
EndSplineSet
Validated: 1
MultipleSubs2: "AddHairspaceAfterMark subtable" zarqa hairspace
MultipleSubs2: "AddThinspaceAfterMark subtable" zarqa thinspace
EndChar

StartChar: pashta
Encoding: 108 1433 50
Width: 0
VWidth: 2493
GlyphClass: 4
Flags: W
HStem: 1530 76<-135.892 -40.9252>
VStem: -16 76<1255.11 1502.18>
AnchorPoint: "m2m8" 60 0 mark 0
AnchorPoint: "m2m7" 60 0 mark 0
AnchorPoint: "m2mrafe" 300 0 mark 0
AnchorPoint: "m2b8b" 0 0 mark 0
LayerCount: 2
Fore
SplineSet
-133 1530 m 1
 -136 1540 -136 1555 -136 1564 c 1
 -136 1585 -130 1596 -121 1606 c 1
 -16 1585 60 1533 60 1410 c 0
 60 1352 52 1278 49 1264 c 1
 36 1258 23 1254 11 1254 c 0
 -2 1254 -13 1258 -26 1264 c 1
 -20 1312 -16 1351 -16 1383 c 0
 -16 1502 -39 1505 -133 1530 c 1
EndSplineSet
Validated: 1
MultipleSubs2: "AddHairspaceAfterMark subtable" pashta hairspace
MultipleSubs2: "AddThinspaceAfterMark subtable" pashta thinspace
Substitution2: "UpperMarksChanges subtable" qadma
EndChar

StartChar: yetiv
Encoding: 109 1434 51
Width: 0
VWidth: 2248
GlyphClass: 4
Flags: W
VStem: -126 252
AnchorPoint: "m2m6d" -126 0 mark 0
AnchorPoint: "m2m6c" -126 0 mark 0
AnchorPoint: "m2m6b" -126 0 mark 0
AnchorPoint: "m2m6a" -126 0 mark 0
AnchorPoint: "m2m5" -154 0 mark 0
AnchorPoint: "m2m6e" -126 0 mark 0
AnchorPoint: "m2b5b" -79 0 mark 0
LayerCount: 2
Fore
SplineSet
64 -164 m 2
 92 -143 93 -145 113 -173 c 0
 134 -203 132 -202 104 -221 c 2
 21 -281 l 2
 -14 -306 -17 -306 21 -332 c 2
 100 -387 l 2
 118 -398 126 -405 126 -414 c 0
 126 -420 122 -428 112 -442 c 0
 92 -468 92 -468 64 -448 c 2
 -90 -338 l 2
 -115 -323 -126 -314 -126 -307 c 0
 -126 -298 -115 -290 -90 -273 c 2
 64 -164 l 2
EndSplineSet
Validated: 1
MultipleSubs2: "AddHairspaceAfterMark subtable" yetiv hairspace
MultipleSubs2: "AddThinspaceAfterMark subtable" yetiv thinspace
EndChar

StartChar: tevir
Encoding: 110 1435 52
Width: 0
VWidth: 2248
GlyphClass: 4
Flags: W
HStem: -494 76<-74.9089 19.0748> -323 89<-119.985 -29.0139>
VStem: -120 91<-322.986 -234.015> 44 76<-390.185 -143.005>
AnchorPoint: "m2m4" 120 0 mark 0
AnchorPoint: "m2m4" -200 0 basemark 0
AnchorPoint: "m2m3" -200 0 basemark 0
AnchorPoint: "m2m1" 120 0 mark 0
AnchorPoint: "m2bmback" 13 0 mark 0
AnchorPoint: "m2b5a" 0 0 mark 0
LayerCount: 2
Fore
SplineSet
-120 -279 m 0
 -120 -254 -100 -234 -74 -234 c 0
 -48 -234 -29 -254 -29 -279 c 0
 -29 -304 -48 -323 -74 -323 c 0
 -100 -323 -120 -304 -120 -279 c 0
-73 -418 m 1
 21 -393 44 -390 44 -271 c 0
 44 -239 40 -200 34 -152 c 1
 47 -146 58 -142 72 -142 c 0
 83 -142 95 -146 108 -152 c 1
 110 -166 120 -240 120 -298 c 0
 120 -421 44 -473 -61 -494 c 1
 -70 -484 -75 -473 -75 -452 c 1
 -75 -443 -75 -428 -73 -418 c 1
EndSplineSet
Validated: 1
Position2: "Single Positioning lookup 23 subtable" dx=200 dy=0 dh=0 dv=0
MultipleSubs2: "AddHairspaceAfterMark subtable" tevir hairspace
MultipleSubs2: "AddThinspaceAfterMark subtable" tevir thinspace
EndChar

StartChar: gereshaccent
Encoding: 111 1436 53
Width: 0
VWidth: 2493
GlyphClass: 4
Flags: W
HStem: 1530 76<40.9252 135.892>
VStem: -60 76<1255.11 1502.18>
AnchorPoint: "m2m7" 136 0 mark 0
AnchorPoint: "m2m7" -140 0 basemark 0
AnchorPoint: "m2m7n" 136 0 mark 0
AnchorPoint: "m2mrafe" 0 0 mark 0
AnchorPoint: "m2b9" 0 0 mark 0
AnchorPoint: "m2b8a" 0 0 mark 0
LayerCount: 2
Fore
SplineSet
133 1530 m 1
 39 1505 16 1502 16 1383 c 0
 16 1351 20 1312 26 1264 c 1
 13 1258 2 1254 -11 1254 c 0
 -23 1254 -36 1258 -49 1264 c 1
 -52 1278 -60 1352 -60 1410 c 0
 -60 1533 16 1585 121 1606 c 1
 130 1596 136 1585 136 1564 c 1
 136 1555 136 1540 133 1530 c 1
EndSplineSet
Validated: 1
MultipleSubs2: "AddHairspaceAfterMark subtable" gereshaccent hairspace
MultipleSubs2: "AddThinspaceAfterMark subtable" gereshaccent thinspace
EndChar

StartChar: gereshmuqdam
Encoding: 112 1437 54
Width: 0
VWidth: 2493
GlyphClass: 4
Flags: W
HStem: 1530 76<40.9252 135.892>
VStem: -60 76<1255.11 1502.18>
AnchorPoint: "m2m7n" -140 0 basemark 0
AnchorPoint: "m2mrafe" -300 0 mark 0
AnchorPoint: "m2b8c" -212 0 mark 0
LayerCount: 2
Fore
SplineSet
133 1530 m 1
 39 1505 16 1502 16 1383 c 0
 16 1351 20 1312 26 1264 c 1
 13 1258 2 1254 -11 1254 c 0
 -23 1254 -36 1258 -49 1264 c 1
 -52 1278 -60 1352 -60 1410 c 0
 -60 1533 16 1585 121 1606 c 1
 130 1596 136 1585 136 1564 c 1
 136 1555 136 1540 133 1530 c 1
EndSplineSet
Validated: 1
MultipleSubs2: "AddHairspaceAfterMark subtable" gereshmuqdam hairspace
MultipleSubs2: "AddThinspaceAfterMark subtable" gereshmuqdam thinspace
EndChar

StartChar: gershayimaccent
Encoding: 113 1438 55
Width: 0
VWidth: 2493
GlyphClass: 4
Flags: W
HStem: 1530 76<-91.0824 -0.0910759 100.312 194.909>
VStem: -195 75<1255.01 1501.5> 0 75<1255.01 1502.18>
AnchorPoint: "m2m7" 195 0 mark 0
AnchorPoint: "m2m7" -285 0 basemark 0
AnchorPoint: "m2m7n" 195 0 mark 0
AnchorPoint: "m2mrafe" 0 0 mark 0
AnchorPoint: "m2b9" 0 0 mark 0
AnchorPoint: "m2b8a" 0 0 mark 0
LayerCount: 2
Fore
SplineSet
192 1530 m 1
 99 1505 75 1502 75 1383 c 0
 75 1351 79 1312 86 1264 c 1
 73 1258 61 1254 48 1254 c 0
 36 1254 25 1258 12 1264 c 1
 9 1278 0 1352 0 1410 c 0
 0 1533 75 1585 181 1606 c 1
 190 1596 195 1585 195 1564 c 1
 195 1555 195 1540 192 1530 c 1
0 1530 m 1
 -94 1505 -120 1502 -120 1383 c 0
 -120 1351 -117 1312 -110 1264 c 1
 -124 1258 -134 1254 -147 1254 c 0
 -159 1254 -172 1258 -185 1264 c 1
 -187 1278 -195 1352 -195 1410 c 0
 -195 1533 -120 1585 -14 1606 c 1
 -5 1596 0 1585 0 1564 c 1
 0 1555 3 1540 0 1530 c 1
EndSplineSet
Validated: 1
MultipleSubs2: "AddHairspaceAfterMark subtable" gershayimaccent hairspace
MultipleSubs2: "AddThinspaceAfterMark subtable" gershayimaccent thinspace
EndChar

StartChar: qarneypara
Encoding: 114 1439 56
Width: 0
VWidth: 2499
GlyphClass: 4
Flags: W
HStem: 1240 64<-41.8566 43.4226> 1317 55<-186.577 -90.4072 91.0054 186.577> 1492 55<-189.022 -88.351 88.4877 190.277>
VStem: -244 47<1384.93 1481.95> -81 53<1380.69 1484.65> 28 53<1380.75 1483.08> 197 47<1384.24 1482.78>
AnchorPoint: "m2m7" 244 0 mark 0
AnchorPoint: "m2m7" -324 0 basemark 0
AnchorPoint: "m2m7n" 244 0 mark 0
AnchorPoint: "m2mrafe" 0 0 mark 0
AnchorPoint: "m2b9" 0 0 mark 0
AnchorPoint: "m2b8a" 0 0 mark 0
LayerCount: 2
Fore
SplineSet
42 1334 m 0
 59 1350 61 1348 44 1372 c 1
 36 1390 28 1412 28 1435 c 0
 28 1499 79 1547 138 1547 c 0
 196 1547 244 1500 244 1436 c 0
 244 1370 195 1317 136 1317 c 0
 119 1317 109 1320 91 1302 c 0
 44 1261 23 1240 0 1240 c 0
 -23 1240 -44 1261 -90 1302 c 0
 -110 1319 -116 1317 -136 1317 c 0
 -195 1317 -244 1369 -244 1434 c 0
 -244 1498 -196 1547 -138 1547 c 0
 -79 1547 -28 1499 -28 1435 c 0
 -28 1412 -36 1392 -44 1376 c 1
 -60 1352 -59 1352 -42 1336 c 0
 -21 1314 -10 1304 0 1304 c 0
 10 1304 21 1314 42 1334 c 0
-139 1492 m 0
 -176 1492 -197 1468 -197 1436 c 0
 -197 1402 -175 1372 -138 1372 c 0
 -100 1372 -81 1402 -81 1436 c 256
 -81 1468 -101 1492 -139 1492 c 0
140 1492 m 0
 102 1492 81 1468 81 1436 c 256
 81 1402 100 1372 138 1372 c 0
 175 1372 197 1402 197 1436 c 0
 197 1468 177 1492 140 1492 c 0
EndSplineSet
Validated: 1
MultipleSubs2: "AddHairspaceAfterMark subtable" qarneypara hairspace
MultipleSubs2: "AddThinspaceAfterMark subtable" qarneypara thinspace
EndChar

StartChar: telishagedola
Encoding: 115 1440 57
Width: 0
VWidth: 2502
GlyphClass: 4
Flags: W
HStem: 1293 55<-67.6872 67.0544> 1508 53<-68.0625 67.5624>
VStem: -140 54<1366.91 1489.99> 88 54<1368.31 1488.73>
AnchorPoint: "m2m7n" -220 0 basemark 0
AnchorPoint: "m2mrafe" -300 0 mark 0
AnchorPoint: "m2b9" 0 0 mark 0
AnchorPoint: "m2b8c" -194 0 mark 0
LayerCount: 2
Fore
SplineSet
0 1508 m 0
 -59 1508 -86 1474 -86 1430 c 256
 -86 1385 -59 1348 0 1348 c 0
 57 1348 88 1385 88 1430 c 0
 88 1474 57 1508 0 1508 c 0
0 1293 m 0
 -16 1293 -28 1299 -40 1299 c 0
 -55 1299 -58 1295 -69 1275 c 1
 -93 1233 l 1
 -108 1207 -110 1205 -136 1220 c 0
 -160 1233 -160 1235 -140 1264 c 2
 -116 1300 l 2
 -106 1313 -103 1324 -103 1329 c 0
 -103 1355 -140 1357 -140 1430 c 0
 -140 1502 -88 1561 0 1561 c 256
 91 1561 142 1499 142 1430 c 256
 142 1363 77 1293 0 1293 c 0
EndSplineSet
Validated: 1
MultipleSubs2: "AddHairspaceAfterMark subtable" telishagedola hairspace
MultipleSubs2: "AddThinspaceAfterMark subtable" telishagedola thinspace
Substitution2: "UpperMarksChanges subtable" telishag_on_left
EndChar

StartChar: pazer
Encoding: 116 1441 58
Width: 0
VWidth: 2501
GlyphClass: 4
Flags: W
HStem: 1220 21G<-98 -85> 1312 70<-54 43.7733>
VStem: -134 80<1220.05 1312 1382 1562> 60 72<1395.33 1560.79>
AnchorPoint: "m2m7" 132 0 mark 0
AnchorPoint: "m2m7" -212 0 basemark 0
AnchorPoint: "m2m7n" 132 0 mark 0
AnchorPoint: "m2mrafe" 0 0 mark 0
AnchorPoint: "m2b9" 0 0 mark 0
AnchorPoint: "m2b8a" 0 0 mark 0
LayerCount: 2
Fore
SplineSet
132 1489 m 0
 132 1395 91 1312 -11 1312 c 0
 -23 1312 -40 1309 -54 1312 c 1
 -54 1229 l 1
 -69 1223 -79 1220 -91 1220 c 0
 -105 1220 -119 1223 -134 1229 c 1
 -134 1554 l 1
 -120 1559 -107 1562 -94 1562 c 0
 -80 1562 -67 1559 -54 1554 c 1
 -54 1386 l 1
 -45 1383 -34 1382 -22 1382 c 0
 38 1382 60 1426 60 1489 c 0
 60 1491 60 1493 60 1496 c 0
 60 1509 59 1527 50 1554 c 1
 61 1559 72 1562 83 1562 c 0
 95 1562 107 1559 120 1554 c 1
 125 1530 132 1515 132 1489 c 0
EndSplineSet
Validated: 1
MultipleSubs2: "AddHairspaceAfterMark subtable" pazer hairspace
MultipleSubs2: "AddThinspaceAfterMark subtable" pazer thinspace
EndChar

StartChar: atnahhafukh
Encoding: 117 1442 59
Width: 0
VWidth: 2248
GlyphClass: 4
Flags: W
HStem: -494 171<-37.7426 37.7426> -391 68<-64.0385 -39 39 64.0385>
VStem: -155 72<-307.258 -142.017> -39 78<-493.996 -379.12> 83 72<-307.258 -142.012>
CounterMasks: 1 38
AnchorPoint: "m2m4" 155 0 mark 0
AnchorPoint: "m2m4" -235 0 basemark 0
AnchorPoint: "m2m3" -235 0 basemark 0
AnchorPoint: "m2m1" 155 0 mark 0
AnchorPoint: "m2bmback" 0 0 mark 0
AnchorPoint: "m2b5a" 0 0 mark 0
LayerCount: 2
Fore
SplineSet
-39 -479 m 1xb8
 -39 -391 l 1x78
 -66 -387 -155 -369 -155 -205 c 0
 -155 -180 -150 -174 -150 -153 c 1
 -138 -146 -129 -142 -118 -142 c 0
 -105 -142 -95 -148 -83 -153 c 1
 -83 -205 l 2
 -83 -274 -62 -323 0 -323 c 0xb8
 62 -323 83 -274 83 -205 c 2
 83 -153 l 1
 96 -146 107 -142 118 -142 c 0
 130 -142 139 -146 150 -153 c 1
 150 -174 155 -180 155 -205 c 0
 155 -369 66 -387 39 -391 c 1x78
 39 -479 l 1
 26 -490 13 -494 0 -494 c 0
 -13 -494 -26 -488 -39 -479 c 1xb8
EndSplineSet
Validated: 1
Position2: "Single Positioning lookup 23 subtable" dx=200 dy=0 dh=0 dv=0
MultipleSubs2: "AddHairspaceAfterMark subtable" atnahhafukh hairspace
MultipleSubs2: "AddThinspaceAfterMark subtable" atnahhafukh thinspace
EndChar

StartChar: munah
Encoding: 118 1443 60
Width: 0
VWidth: 2248
GlyphClass: 4
Flags: W
HStem: -448 64<-98.9905 39.9991>
VStem: 40 59<-383.97 -148>
AnchorPoint: "m2m4" 100 0 mark 0
AnchorPoint: "m2m4" -180 0 basemark 0
AnchorPoint: "m2m3" -180 0 basemark 0
AnchorPoint: "m2m1" 100 0 mark 0
AnchorPoint: "m2bmback" 0 0 mark 0
AnchorPoint: "m2b5a" 0 0 mark 0
LayerCount: 2
Fore
SplineSet
49 -448 m 1
 -68 -448 l 1
 -98 -448 -99 -448 -99 -412 c 1
 -99 -382 -99 -384 -68 -384 c 1
 5 -384 l 1
 39 -384 40 -382 40 -351 c 1
 40 -178 l 1
 40 -148 40 -148 70 -148 c 1
 98 -148 99 -148 99 -177 c 1
 99 -407 l 1
 99 -448 96 -448 49 -448 c 1
EndSplineSet
Validated: 1
Position2: "Single Positioning lookup 23 subtable" dx=200 dy=0 dh=0 dv=0
MultipleSubs2: "AddHairspaceAfterMark subtable" munah hairspace
MultipleSubs2: "AddThinspaceAfterMark subtable" munah thinspace
EndChar

StartChar: mahapakh
Encoding: 119 1444 61
Width: 0
VWidth: 2248
GlyphClass: 4
Flags: W
VStem: -126 252
AnchorPoint: "m2m4" 130 0 mark 0
AnchorPoint: "m2m4" -210 0 basemark 0
AnchorPoint: "m2m3" -206 0 basemark 0
AnchorPoint: "m2m1" 126 0 mark 0
AnchorPoint: "m2bmback" 0 0 mark 0
AnchorPoint: "m2b5a" 0 0 mark 0
LayerCount: 2
Fore
SplineSet
64 -164 m 2
 92 -143 93 -145 113 -173 c 0
 134 -203 132 -202 104 -221 c 2
 21 -281 l 2
 -14 -306 -17 -306 21 -332 c 2
 100 -387 l 2
 118 -398 126 -405 126 -414 c 0
 126 -420 122 -428 112 -442 c 0
 92 -468 92 -468 64 -448 c 2
 -90 -338 l 2
 -115 -323 -126 -314 -126 -307 c 0
 -126 -298 -115 -290 -90 -273 c 2
 64 -164 l 2
EndSplineSet
Validated: 1
Position2: "Single Positioning lookup 23 subtable" dx=200 dy=0 dh=0 dv=0
MultipleSubs2: "AddHairspaceAfterMark subtable" mahapakh hairspace
MultipleSubs2: "AddThinspaceAfterMark subtable" mahapakh thinspace
EndChar

StartChar: merkha
Encoding: 120 1445 62
Width: 0
VWidth: 2248
GlyphClass: 4
Flags: W
HStem: -494 76<-135.892 -40.9252>
VStem: -16 76<-390.185 -143.111>
AnchorPoint: "m2m4" 136 0 mark 0
AnchorPoint: "m2m4" -216 0 basemark 0
AnchorPoint: "m2m3" -218 0 basemark 0
AnchorPoint: "m2m1" 60 0 mark 0
AnchorPoint: "m2bmback" 38 0 mark 0
AnchorPoint: "m2b5a" 11 0 mark 0
LayerCount: 2
Fore
SplineSet
-133 -418 m 1
 -39 -393 -16 -390 -16 -271 c 0
 -16 -239 -20 -200 -26 -152 c 1
 -13 -146 -2 -142 11 -142 c 0
 23 -142 36 -146 49 -152 c 1
 52 -166 60 -240 60 -298 c 0
 60 -421 -16 -473 -121 -494 c 1
 -130 -484 -136 -473 -136 -452 c 1
 -136 -443 -136 -428 -133 -418 c 1
EndSplineSet
Validated: 1
Position2: "Single Positioning lookup 23 subtable" dx=200 dy=0 dh=0 dv=0
MultipleSubs2: "AddHairspaceAfterMark subtable" merkha hairspace
MultipleSubs2: "AddThinspaceAfterMark subtable" merkha thinspace
EndChar

StartChar: merkhakefula
Encoding: 121 1446 63
Width: 0
VWidth: 2248
GlyphClass: 4
Flags: W
HStem: -494 76<-194.909 -100.312 0.0910797 91.0823>
VStem: -75 75<-390.185 -143.005> 120 75<-389.496 -143.005>
AnchorPoint: "m2m4" 195 0 mark 0
AnchorPoint: "m2m4" -265 0 basemark 0
AnchorPoint: "m2m3" -275 0 basemark 0
AnchorPoint: "m2m1" 195 0 mark 0
AnchorPoint: "m2bmback" 0 0 mark 0
AnchorPoint: "m2b5a" 0 0 mark 0
LayerCount: 2
Fore
SplineSet
-192 -418 m 1
 -99 -393 -75 -390 -75 -271 c 0
 -75 -239 -79 -200 -86 -152 c 1
 -73 -146 -61 -142 -48 -142 c 0
 -36 -142 -25 -146 -12 -152 c 1
 -9 -166 0 -240 0 -298 c 0
 0 -421 -75 -473 -181 -494 c 1
 -190 -484 -195 -473 -195 -452 c 1
 -195 -443 -195 -428 -192 -418 c 1
0 -418 m 1
 94 -393 120 -390 120 -271 c 0
 120 -239 117 -200 110 -152 c 1
 124 -146 134 -142 147 -142 c 0
 159 -142 172 -146 185 -152 c 1
 187 -166 195 -240 195 -298 c 0
 195 -421 120 -473 14 -494 c 1
 5 -484 0 -473 0 -452 c 1
 0 -443 -3 -428 0 -418 c 1
EndSplineSet
Validated: 1
Position2: "Single Positioning lookup 23 subtable" dx=200 dy=0 dh=0 dv=0
MultipleSubs2: "AddHairspaceAfterMark subtable" merkhakefula hairspace
MultipleSubs2: "AddThinspaceAfterMark subtable" merkhakefula thinspace
EndChar

StartChar: darga
Encoding: 122 1447 64
Width: 0
VWidth: 2248
GlyphClass: 4
Flags: W
HStem: -476 62<-79.428 17.2822> -207 62<-17.9843 68.8132>
VStem: -86 57<-272.059 -223.667> 26 60<-397.455 -344.398>
AnchorPoint: "m2m4" 86 0 mark 0
AnchorPoint: "m2m4" -166 0 basemark 0
AnchorPoint: "m2m3" -166 0 basemark 0
AnchorPoint: "m2m1" 86 0 mark 0
AnchorPoint: "m2bmback" 0 0 mark 0
AnchorPoint: "m2b5a" 0 0 mark 0
LayerCount: 2
Fore
SplineSet
65 -207 m 1
 25 -207 -29 -224 -29 -263 c 0
 -29 -276 86 -273 86 -353 c 0
 86 -437 35 -461 -77 -476 c 1
 -82 -452 -82 -431 -77 -414 c 1
 -9 -398 26 -403 26 -355 c 0
 26 -340 -86 -345 -86 -267 c 0
 -86 -179 -36 -159 65 -145 c 1
 74 -166 72 -186 65 -207 c 1
EndSplineSet
Validated: 1
Position2: "Single Positioning lookup 23 subtable" dx=200 dy=0 dh=0 dv=0
MultipleSubs2: "AddHairspaceAfterMark subtable" darga hairspace
MultipleSubs2: "AddThinspaceAfterMark subtable" darga thinspace
EndChar

StartChar: qadma
Encoding: 123 1448 65
Width: 0
VWidth: 2495
GlyphClass: 4
Flags: W
HStem: 1523 77<-135.93 -40.9252>
VStem: -16 76<1248.85 1494.93>
AnchorPoint: "m2m7" 60 0 mark 0
AnchorPoint: "m2m7" -220 0 basemark 0
AnchorPoint: "m2m7n" 60 0 mark 0
AnchorPoint: "m2mrafe" 0 0 mark 0
AnchorPoint: "m2b9" 0 0 mark 0
AnchorPoint: "m2b8a" 0 0 mark 0
LayerCount: 2
Fore
SplineSet
-133 1523 m 1
 -136 1533 -136 1549 -136 1558 c 1
 -136 1579 -130 1590 -121 1600 c 1
 -16 1579 60 1525 60 1403 c 0
 60 1345 52 1271 49 1256 c 1
 36 1251 23 1248 11 1248 c 0
 -2 1248 -13 1251 -26 1256 c 1
 -20 1304 -16 1343 -16 1376 c 0
 -16 1494 -39 1498 -133 1523 c 1
EndSplineSet
Validated: 1
MultipleSubs2: "AddHairspaceAfterMark subtable" qadma hairspace
MultipleSubs2: "AddThinspaceAfterMark subtable" qadma thinspace
EndChar

StartChar: telishaqetana
Encoding: 124 1449 66
Width: 0
VWidth: 2502
GlyphClass: 4
Flags: W
HStem: 1293 55<-66.5906 68.7808> 1508 53<-66.8228 68.8214>
VStem: -140 54<1368.31 1488.73> 88 54<1368.24 1489.39>
AnchorPoint: "m2m8" 157 0 mark 0
AnchorPoint: "m2m7" 156 0 mark 0
AnchorPoint: "m2mrafe" 350 0 mark 0
AnchorPoint: "m2b8b" 50 0 mark 0
LayerCount: 2
Fore
SplineSet
0 1508 m 0
 -57 1508 -86 1474 -86 1430 c 0
 -86 1385 -57 1348 0 1348 c 0
 59 1348 88 1385 88 1430 c 256
 88 1474 59 1508 0 1508 c 0
0 1293 m 0
 -77 1293 -140 1363 -140 1430 c 256
 -140 1499 -91 1561 0 1561 c 256
 88 1561 142 1502 142 1430 c 0
 142 1357 105 1355 105 1329 c 0
 105 1324 108 1313 118 1300 c 2
 142 1264 l 2
 162 1235 162 1233 138 1220 c 0
 112 1205 110 1207 95 1233 c 1
 71 1275 l 1
 60 1295 57 1299 42 1299 c 0
 30 1299 16 1293 0 1293 c 0
EndSplineSet
Validated: 1
MultipleSubs2: "AddHairspaceAfterMark subtable" telishaqetana hairspace
MultipleSubs2: "AddThinspaceAfterMark subtable" telishaqetana thinspace
Substitution2: "UpperMarksChanges subtable" telishaq_on_right
EndChar

StartChar: yerahbenyomo
Encoding: 125 1450 67
Width: 0
VWidth: 2248
GlyphClass: 4
Flags: W
HStem: -494 171<-37.7426 37.7426> -391 68<-64.0385 -39 39 64.0385>
VStem: -155 72<-307.258 -142.017> -39 78<-493.996 -379.12> 83 72<-307.258 -142.012>
CounterMasks: 1 38
AnchorPoint: "m2m4" 155 0 mark 0
AnchorPoint: "m2m4" -235 0 basemark 0
AnchorPoint: "m2m3" -235 0 basemark 0
AnchorPoint: "m2m1" 155 0 mark 0
AnchorPoint: "m2bmback" 0 0 mark 0
AnchorPoint: "m2b5a" 0 0 mark 0
LayerCount: 2
Fore
SplineSet
-39 -479 m 1xb8
 -39 -391 l 1x78
 -66 -387 -155 -369 -155 -205 c 0
 -155 -180 -150 -174 -150 -153 c 1
 -138 -146 -129 -142 -118 -142 c 0
 -105 -142 -95 -148 -83 -153 c 1
 -83 -205 l 2
 -83 -274 -62 -323 0 -323 c 0xb8
 62 -323 83 -274 83 -205 c 2
 83 -153 l 1
 96 -146 107 -142 118 -142 c 0
 130 -142 139 -146 150 -153 c 1
 150 -174 155 -180 155 -205 c 0
 155 -369 66 -387 39 -391 c 1x78
 39 -479 l 1
 26 -490 13 -494 0 -494 c 0
 -13 -494 -26 -488 -39 -479 c 1xb8
EndSplineSet
Validated: 1
Position2: "Single Positioning lookup 23 subtable" dx=200 dy=0 dh=0 dv=0
MultipleSubs2: "AddHairspaceAfterMark subtable" yerahbenyomo hairspace
MultipleSubs2: "AddThinspaceAfterMark subtable" yerahbenyomo thinspace
EndChar

StartChar: ole
Encoding: 126 1451 68
Width: 0
VWidth: 2497
GlyphClass: 4
Flags: W
VStem: -126 252
AnchorPoint: "m2m7" 127 0 mark 0
AnchorPoint: "m2m7" -213 0 basemark 0
AnchorPoint: "m2m7n" 127 0 mark 0
AnchorPoint: "m2mrafe" 0 0 mark 0
AnchorPoint: "m2b9" 0 0 mark 0
AnchorPoint: "m2b8a" 0 0 mark 0
LayerCount: 2
Fore
SplineSet
64 1557 m 2
 92 1581 93 1578 114 1548 c 0
 134 1520 132 1521 105 1500 c 2
 21 1442 l 2
 -14 1417 -14 1417 21 1391 c 2
 100 1336 l 2
 118 1325 126 1316 126 1309 c 0
 126 1300 122 1295 112 1281 c 0
 92 1255 92 1255 64 1274 c 2
 -90 1385 l 2
 -115 1400 -126 1409 -126 1416 c 0
 -126 1425 -115 1433 -90 1450 c 2
 64 1557 l 2
EndSplineSet
Validated: 1
MultipleSubs2: "AddHairspaceAfterMark subtable" ole hairspace
MultipleSubs2: "AddThinspaceAfterMark subtable" ole thinspace
EndChar

StartChar: iluy
Encoding: 127 1452 69
Width: 0
VWidth: 2499
GlyphClass: 4
Flags: W
HStem: 1260 67<-98.9905 40>
VStem: 40 59<1327.01 1561>
AnchorPoint: "m2m7" 99 0 mark 0
AnchorPoint: "m2m7" -210 0 basemark 0
AnchorPoint: "m2m7n" 100 0 mark 0
AnchorPoint: "m2mrafe" 0 0 mark 0
AnchorPoint: "m2b9" 0 0 mark 0
AnchorPoint: "m2b8a" 0 0 mark 0
LayerCount: 2
Fore
SplineSet
49 1260 m 1
 -68 1260 l 1
 -98 1260 -99 1262 -99 1297 c 1
 -99 1327 -99 1327 -68 1327 c 1
 5 1327 l 1
 39 1327 40 1327 40 1358 c 1
 40 1531 l 1
 40 1561 40 1561 70 1561 c 1
 98 1561 99 1561 99 1532 c 1
 99 1302 l 1
 99 1262 96 1260 49 1260 c 1
EndSplineSet
Validated: 1
MultipleSubs2: "AddHairspaceAfterMark subtable" iluy hairspace
MultipleSubs2: "AddThinspaceAfterMark subtable" iluy thinspace
EndChar

StartChar: dehi
Encoding: 128 1453 70
Width: 0
VWidth: 2248
GlyphClass: 4
Flags: W
HStem: -494 76<40.9252 135.892>
VStem: -60 76<-390.185 -143.111>
AnchorPoint: "m2m6d" -60 0 mark 0
AnchorPoint: "m2m6c" -60 0 mark 0
AnchorPoint: "m2m6b" -60 0 mark 0
AnchorPoint: "m2m6a" -60 0 mark 0
AnchorPoint: "m2m5" -113 0 mark 0
AnchorPoint: "m2m6e" -60 0 mark 0
AnchorPoint: "m2b5b" -11 0 mark 0
LayerCount: 2
Fore
SplineSet
133 -418 m 1
 136 -428 136 -443 136 -452 c 1
 136 -473 130 -484 121 -494 c 1
 16 -473 -60 -421 -60 -298 c 0
 -60 -240 -52 -166 -49 -152 c 1
 -36 -146 -23 -142 -11 -142 c 0
 2 -142 13 -146 26 -152 c 1
 20 -200 16 -239 16 -271 c 0
 16 -390 39 -393 133 -418 c 1
EndSplineSet
Validated: 1
MultipleSubs2: "AddHairspaceAfterMark subtable" dehi hairspace
MultipleSubs2: "AddThinspaceAfterMark subtable" dehi thinspace
EndChar

StartChar: tsinor
Encoding: 129 1454 71
Width: 0
VWidth: 2506
GlyphClass: 4
Flags: W
HStem: 1268 71<43.1368 129.987> 1438 66<-128.462 -45.7732>
VStem: -194 61<1332.4 1434.47> 133 61<1343.56 1439.12>
AnchorPoint: "m2m8" 194 0 mark 0
AnchorPoint: "m2m7" 194 0 mark 0
AnchorPoint: "m2m7n" 194 0 mark 0
AnchorPoint: "m2mrafe" 320 0 mark 0
AnchorPoint: "m2b8b" 0 0 mark 0
LayerCount: 2
Fore
SplineSet
133 1392 m 0
 133 1421 110 1437 92 1446 c 1
 92 1474 105 1496 122 1509 c 1
 158 1490 194 1453 194 1394 c 0
 194 1316 141 1268 89 1268 c 0
 26 1268 -3 1323 -23 1365 c 2
 -37 1391 l 2
 -59 1433 -76 1438 -88 1438 c 0
 -111 1438 -133 1414 -133 1381 c 0
 -133 1360 -119 1338 -92 1326 c 1
 -92 1299 -104 1278 -122 1264 c 1
 -173 1294 -194 1334 -194 1381 c 0
 -194 1455 -144 1504 -88 1504 c 0
 -36 1504 -4 1466 25 1409 c 1
 39 1382 l 2
 53 1353 66 1339 86 1339 c 0
 110 1339 133 1360 133 1392 c 0
EndSplineSet
Validated: 1
MultipleSubs2: "AddHairspaceAfterMark subtable" tsinor hairspace
MultipleSubs2: "AddThinspaceAfterMark subtable" tsinor thinspace
Substitution2: "UpperMarksChanges subtable" zarqa
EndChar

StartChar: masoracircle
Encoding: 130 1455 72
Width: 0
VWidth: 2498
GlyphClass: 4
Flags: W
HStem: 1260 55<-65.3079 65.3338> 1507 56<-67.5553 67.6838>
VStem: -151 57<1343.32 1482.05> 94 57<1343.75 1480>
AnchorPoint: "m2m7" 151 0 mark 0
AnchorPoint: "m2m7" -230 0 basemark 0
AnchorPoint: "m2m7n" 150 0 mark 0
AnchorPoint: "m2mrafe" 0 0 mark 0
AnchorPoint: "m2b9" 0 0 mark 0
AnchorPoint: "m2b8a" 0 0 mark 0
LayerCount: 2
Fore
SplineSet
0 1260 m 0
 -84 1260 -151 1330 -151 1413 c 0
 -151 1491 -87 1563 0 1563 c 0
 79 1563 151 1499 151 1413 c 0
 151 1330 83 1260 0 1260 c 0
0 1507 m 0
 -52 1507 -94 1471 -94 1413 c 256
 -94 1356 -52 1315 0 1315 c 0
 49 1315 94 1354 94 1413 c 256
 94 1472 49 1507 0 1507 c 0
EndSplineSet
Validated: 1
MultipleSubs2: "AddHairspaceAfterMark subtable" masoracircle hairspace
MultipleSubs2: "AddThinspaceAfterMark subtable" masoracircle thinspace
EndChar

StartChar: sheva
Encoding: 131 1456 73
Width: 0
VWidth: 2248
GlyphClass: 4
Flags: W
HStem: -472 136<-64.9132 64.9132> -281 136<-64.9132 64.9132>
VStem: -69 138<-468.046 -340.087 -277.046 -149.087>
AnchorPoint: "m2m5" 290 0 basemark 0
AnchorPoint: "m2m6e" 150 0 basemark 0
AnchorPoint: "m2m3" 70 0 mark 0
AnchorPoint: "m2m2" 70 0 mark 0
AnchorPoint: "m2m1" -150 0 basemark 0
AnchorPoint: "m2bv2left" 35 0 mark 0
AnchorPoint: "m2bvback" 0 0 mark 0
AnchorPoint: "m2bv2r" -150 0 mark 0
AnchorPoint: "VbWM" -70 0 mark 0
AnchorPoint: "VbNM" -70 0 mark 0
AnchorPoint: "m2b4a" 0 0 mark 0
LayerCount: 2
Fore
SplineSet
-69 -405 m 0
 -69 -366 -39 -336 0 -336 c 0
 39 -336 69 -366 69 -405 c 0
 69 -443 39 -472 0 -472 c 0
 -39 -472 -69 -443 -69 -405 c 0
-69 -214 m 0
 -69 -175 -39 -145 0 -145 c 0
 39 -145 69 -175 69 -214 c 0
 69 -252 39 -281 0 -281 c 0
 -39 -281 -69 -252 -69 -214 c 0
EndSplineSet
Validated: 1
Position2: "positionMoveVowelToLeft subtable" dx=-30 dy=0 dh=0 dv=0
MultipleSubs2: "AddHairspaceAfterMark subtable" sheva hairspace
MultipleSubs2: "AddThinspaceAfterMark subtable" sheva thinspace
Substitution2: "ShevaAndQamatsForFinalkaf subtable" sheva_for_finalkaf
EndChar

StartChar: hatafsegol
Encoding: 132 1457 74
Width: 0
VWidth: 2248
GlyphClass: 4
Flags: W
HStem: -472 136<150.076 278.148> -451 143<-170.375 -37.625> -290 143<-276.688 -145.625 -63 68.0625 154.118 274.285>
VStem: -282 142<-284.531 -152.625> -176 144<-445.375 -313.469> -68 142<-283.851 -153.324> 146 136<-468.046 -340.087 -277.046 -149.087>
AnchorPoint: "m2m5" 492 0 basemark 0
AnchorPoint: "m2m6e" 360 0 basemark 0
AnchorPoint: "m2m2" 282 0 mark 0
AnchorPoint: "m2m1" -360 0 basemark 0
AnchorPoint: "m2bv2r" -320 0 mark 0
AnchorPoint: "HbWM" -282 0 mark 0
AnchorPoint: "HbNM" -282 0 mark 0
AnchorPoint: "m2b4c" 0 0 mark 0
LayerCount: 2
Fore
SplineSet
-282 -219 m 0x32
 -282 -179 -252 -147 -212 -147 c 0
 -172 -147 -140 -179 -140 -219 c 0
 -140 -259 -172 -290 -212 -290 c 0
 -252 -290 -282 -259 -282 -219 c 0x32
-68 -219 m 0x26
 -68 -179 -40 -147 0 -147 c 0
 40 -147 74 -179 74 -219 c 0
 74 -259 40 -290 0 -290 c 0
 -40 -290 -68 -259 -68 -219 c 0x26
-176 -379 m 0x6a
 -176 -339 -144 -308 -104 -308 c 0
 -64 -308 -32 -339 -32 -379 c 0
 -32 -419 -64 -451 -104 -451 c 0
 -144 -451 -176 -419 -176 -379 c 0x6a
146 -405 m 0
 146 -366 176 -336 214 -336 c 0
 254 -336 282 -366 282 -405 c 0
 282 -443 254 -472 214 -472 c 0xa2
 176 -472 146 -443 146 -405 c 0
146 -214 m 0
 146 -175 176 -145 214 -145 c 0
 254 -145 282 -175 282 -214 c 0
 282 -252 254 -281 214 -281 c 0
 176 -281 146 -252 146 -214 c 0
EndSplineSet
Validated: 1
Position2: "positionMoveVowelToLeft subtable" dx=-70 dy=0 dh=0 dv=0
MultipleSubs2: "AddHairspaceAfterMark subtable" hatafsegol hairspace
MultipleSubs2: "AddThinspaceAfterMark subtable" hatafsegol thinspace
EndChar

StartChar: hatafpatah
Encoding: 133 1458 75
Width: 0
VWidth: 2248
GlyphClass: 4
Flags: W
HStem: -472 136<149.964 278.913> -281 136<149.964 278.913> -258 94<-282 73.9683>
VStem: 146 137<-468.046 -340.087 -277.046 -149.087>
AnchorPoint: "m2m5" 492 0 basemark 0
AnchorPoint: "m2m6e" 360 0 basemark 0
AnchorPoint: "m2m2" 282 0 mark 0
AnchorPoint: "m2m1" -360 0 basemark 0
AnchorPoint: "m2bv2r" -320 0 mark 0
AnchorPoint: "HbWM" -282 0 mark 0
AnchorPoint: "HbNM" -282 0 mark 0
AnchorPoint: "m2b4c" 0 0 mark 0
LayerCount: 2
Fore
SplineSet
-246 -258 m 18xb0
 -284 -258 -282 -246 -282 -206 c 0
 -282 -164 -282 -164 -245 -164 c 1
 37 -164 l 1
 74 -164 74 -164 74 -206 c 0
 74 -246 72 -258 34 -258 c 10
 -246 -258 l 18xb0
146 -405 m 0
 146 -366 175 -336 214 -336 c 0
 253 -336 283 -366 283 -405 c 0
 283 -443 253 -472 214 -472 c 0
 175 -472 146 -443 146 -405 c 0
146 -214 m 0
 146 -175 175 -145 214 -145 c 0
 253 -145 283 -175 283 -214 c 0
 283 -252 253 -281 214 -281 c 0xd0
 175 -281 146 -252 146 -214 c 0
EndSplineSet
Validated: 1
Position2: "positionMoveVowelToLeft subtable" dx=-70 dy=0 dh=0 dv=0
MultipleSubs2: "AddHairspaceAfterMark subtable" hatafpatah hairspace
MultipleSubs2: "AddThinspaceAfterMark subtable" hatafpatah thinspace
EndChar

StartChar: hatafqamats
Encoding: 134 1459 76
Width: 0
VWidth: 2248
GlyphClass: 4
Flags: W
HStem: -470 135<149.964 278.036> -279 135<149.964 278.036> -255 93<-281.968 -131.001 -76.9993 73.9683>
VStem: -173 138<-479.327 -281.151> -131 54<-355.837 -255.421> 146 136<-466.057 -339.087 -275.046 -147.964>
AnchorPoint: "m2m5" 492 0 basemark 0
AnchorPoint: "m2m6e" 360 0 basemark 0
AnchorPoint: "m2m2" 282 0 mark 0
AnchorPoint: "m2m1" -360 0 basemark 0
AnchorPoint: "m2bv2r" -320 0 mark 0
AnchorPoint: "HbWM" -282 0 mark 0
AnchorPoint: "HbNM" -282 0 mark 0
AnchorPoint: "m2b4c" 0 0 mark 0
LayerCount: 2
Fore
SplineSet
37 -162 m 2xac
 74 -162 74 -162 74 -203 c 0
 74 -244 72 -255 34 -255 c 10
 -73 -255 l 17xac
 -76 -264 -77 -272 -77 -279 c 0xcc
 -77 -325 -35 -364 -35 -407 c 11
 -35 -448 -66 -485 -104 -485 c 0
 -142 -485 -173 -448 -173 -407 c 19xd4
 -173 -364 -131 -325 -131 -279 c 0xcc
 -131 -272 -132 -264 -135 -255 c 9
 -242 -255 l 18
 -280 -255 -282 -244 -282 -203 c 0
 -282 -162 -282 -162 -245 -162 c 2
 37 -162 l 2xac
146 -404 m 0
 146 -365 175 -335 214 -335 c 0
 253 -335 282 -365 282 -404 c 0
 282 -441 253 -470 214 -470 c 0
 175 -470 146 -441 146 -404 c 0
146 -212 m 0
 146 -173 175 -144 214 -144 c 0
 253 -144 282 -173 282 -212 c 0
 282 -250 253 -279 214 -279 c 0xc4
 175 -279 146 -250 146 -212 c 0
EndSplineSet
Validated: 1
Position2: "positionMoveVowelToLeft subtable" dx=-70 dy=0 dh=0 dv=0
MultipleSubs2: "AddHairspaceAfterMark subtable" hatafqamats hairspace
MultipleSubs2: "AddThinspaceAfterMark subtable" hatafqamats thinspace
EndChar

StartChar: hiriq
Encoding: 135 1460 77
Width: 0
VWidth: 2248
GlyphClass: 4
Flags: W
HStem: -303 136<-64.9132 64.9132>
VStem: -69 138<-299.046 -171.087>
AnchorPoint: "m2m5" 290 0 basemark 0
AnchorPoint: "m2m6e" 150 0 basemark 0
AnchorPoint: "m2m3" 70 0 mark 0
AnchorPoint: "m2m2" 70 0 mark 0
AnchorPoint: "m2m1" -150 0 basemark 0
AnchorPoint: "m2bv2left" 35 0 mark 0
AnchorPoint: "m2bvback" 0 0 mark 0
AnchorPoint: "m2bv2r" -150 0 mark 0
AnchorPoint: "VbWM" -70 0 mark 0
AnchorPoint: "VbNM" -70 0 mark 0
AnchorPoint: "m2b4a" 0 0 mark 0
LayerCount: 2
Fore
SplineSet
-69 -236 m 0
 -69 -197 -39 -167 0 -167 c 0
 39 -167 69 -197 69 -236 c 0
 69 -274 39 -303 0 -303 c 0
 -39 -303 -69 -274 -69 -236 c 0
EndSplineSet
Validated: 1
Position2: "positionMoveVowelToLeft subtable" dx=-30 dy=0 dh=0 dv=0
MultipleSubs2: "AddHairspaceAfterMark subtable" hiriq hairspace
MultipleSubs2: "AddThinspaceAfterMark subtable" hiriq thinspace
Substitution2: "Single Substitution lookup 13 subtable" hiriqmem
Ligature2: "L2ccmpCgjZwjZwnjComatibility subtable" cgj hiriq
Ligature2: "L2ccmpCgjZwjZwnjComatibility subtable" zerojoin hiriq
LCarets2: 1 0 
EndChar

StartChar: tsere
Encoding: 136 1461 78
Width: 0
VWidth: 2248
GlyphClass: 4
Flags: W
HStem: -310 144<-172.531 -41.4688 41.4688 172.531>
VStem: -178 142<-305.036 -170.964> 36 142<-305.036 -170.964>
AnchorPoint: "m2m5" 380 0 basemark 0
AnchorPoint: "m2m6e" 260 0 basemark 0
AnchorPoint: "m2m2" 180 0 mark 0
AnchorPoint: "m2m1" -260 0 basemark 0
AnchorPoint: "m2bv2left" 90 0 mark 0
AnchorPoint: "m2bvback" 0 0 mark 0
AnchorPoint: "m2bv2r" -230 0 mark 0
AnchorPoint: "VbWM" -180 0 mark 0
AnchorPoint: "VbNM" -180 0 mark 0
AnchorPoint: "m2b4b" 0 0 mark 0
LayerCount: 2
Fore
SplineSet
-178 -238 m 0
 -178 -198 -147 -166 -107 -166 c 0
 -67 -166 -36 -198 -36 -238 c 0
 -36 -278 -67 -310 -107 -310 c 0
 -147 -310 -178 -278 -178 -238 c 0
36 -238 m 0
 36 -198 67 -166 107 -166 c 0
 147 -166 178 -198 178 -238 c 0
 178 -278 147 -310 107 -310 c 0
 67 -310 36 -278 36 -238 c 0
EndSplineSet
Validated: 1
Position2: "positionMoveVowelToLeft subtable" dx=-70 dy=0 dh=0 dv=0
MultipleSubs2: "AddHairspaceAfterMark subtable" tsere hairspace
MultipleSubs2: "AddThinspaceAfterMark subtable" tsere thinspace
EndChar

StartChar: segol
Encoding: 137 1462 79
Width: 0
VWidth: 2248
GlyphClass: 4
Flags: W
HStem: -450 143<-67.3594 67.3594> -289 143<-172.531 -41.4688 41.4688 172.531>
VStem: -178 142<-284.175 -150.964> -73 146<-444.375 -312.469> 36 142<-284.175 -150.964>
AnchorPoint: "m2m5" 380 0 basemark 0
AnchorPoint: "m2m6e" 260 0 basemark 0
AnchorPoint: "m2m2" 180 0 mark 0
AnchorPoint: "m2m1" -260 0 basemark 0
AnchorPoint: "m2bv2left" 90 0 mark 0
AnchorPoint: "m2bvback" 0 0 mark 0
AnchorPoint: "m2bv2r" -230 0 mark 0
AnchorPoint: "VbWM" -180 0 mark 0
AnchorPoint: "VbNM" -180 0 mark 0
AnchorPoint: "m2b4b" 0 0 mark 0
LayerCount: 2
Fore
SplineSet
-178 -218 m 0xe0
 -178 -178 -147 -146 -107 -146 c 0
 -67 -146 -36 -178 -36 -218 c 0
 -36 -258 -67 -289 -107 -289 c 0
 -147 -289 -178 -258 -178 -218 c 0xe0
36 -218 m 0xc8
 36 -178 67 -146 107 -146 c 0
 147 -146 178 -178 178 -218 c 0
 178 -258 147 -289 107 -289 c 0
 67 -289 36 -258 36 -218 c 0xc8
-73 -378 m 0xd0
 -73 -338 -41 -307 0 -307 c 0
 41 -307 73 -338 73 -378 c 0
 73 -418 41 -450 0 -450 c 0
 -41 -450 -73 -418 -73 -378 c 0xd0
EndSplineSet
Validated: 1
Position2: "positionMoveVowelToLeft subtable" dx=-70 dy=0 dh=0 dv=0
MultipleSubs2: "AddHairspaceAfterMark subtable" segol hairspace
MultipleSubs2: "AddThinspaceAfterMark subtable" segol thinspace
EndChar

StartChar: patah
Encoding: 138 1463 80
Width: 0
VWidth: 2248
GlyphClass: 4
Flags: W
HStem: -239 94<-160 159.957>
VStem: -160 320
AnchorPoint: "m2m5" 380 0 basemark 0
AnchorPoint: "m2m6e" 260 0 basemark 0
AnchorPoint: "m2m3" 178 0 mark 0
AnchorPoint: "m2m2" 180 0 mark 0
AnchorPoint: "m2m1" -260 0 basemark 0
AnchorPoint: "m2bv2left" 90 0 mark 0
AnchorPoint: "m2bvback" 0 0 mark 0
AnchorPoint: "m2bv2r" -230 0 mark 0
AnchorPoint: "VbWM" -180 0 mark 0
AnchorPoint: "VbNM" -180 0 mark 0
AnchorPoint: "m2bpg" 0 0 mark 0
AnchorPoint: "m2b4b" 0 0 mark 0
LayerCount: 2
Fore
SplineSet
-128 -239 m 18
 -162 -239 -160 -227 -160 -187 c 0
 -160 -145 -160 -145 -127 -145 c 1
 127 -145 l 1
 160 -145 160 -145 160 -187 c 0
 160 -227 158 -239 124 -239 c 10
 -128 -239 l 18
EndSplineSet
Position2: "positionMoveVowelToLeft subtable" dx=-70 dy=0 dh=0 dv=0
MultipleSubs2: "AddHairspaceAfterMark subtable" patah hairspace
MultipleSubs2: "AddThinspaceAfterMark subtable" patah thinspace
EndChar

StartChar: qamats
Encoding: 139 1464 81
Width: 0
VWidth: 2248
GlyphClass: 4
Flags: W
HStem: -239 93<-159.969 -27.0007 27.0007 159.969>
VStem: -69 138<-463.327 -265.151> -27 54<-339.837 -239.421>
AnchorPoint: "m2m5" 380 0 basemark 0
AnchorPoint: "m2m6e" 260 0 basemark 0
AnchorPoint: "m2m2" 180 0 mark 0
AnchorPoint: "m2m1" -260 0 basemark 0
AnchorPoint: "m2bv2left" 90 0 mark 0
AnchorPoint: "m2bvback" 0 0 mark 0
AnchorPoint: "m2bv2r" -230 0 mark 0
AnchorPoint: "VbWM" -180 0 mark 0
AnchorPoint: "VbNM" -180 0 mark 0
AnchorPoint: "m2b4b" 0 0 mark 0
LayerCount: 2
Fore
SplineSet
127 -146 m 2xa0
 160 -146 160 -146 160 -187 c 0
 160 -228 158 -239 124 -239 c 10
 31 -239 l 17
 28 -248 27 -256 27 -263 c 0xa0
 27 -309 69 -348 69 -391 c 11
 69 -432 38 -469 0 -469 c 0
 -38 -469 -69 -432 -69 -391 c 19xc0
 -69 -348 -27 -309 -27 -263 c 0
 -27 -256 -28 -248 -31 -239 c 9
 -124 -239 l 18
 -158 -239 -160 -228 -160 -187 c 0
 -160 -146 -160 -146 -127 -146 c 2
 127 -146 l 2xa0
EndSplineSet
Position2: "positionMoveVowelToLeft subtable" dx=-70 dy=0 dh=0 dv=0
MultipleSubs2: "AddHairspaceAfterMark subtable" qamats
MultipleSubs2: "AddThinspaceAfterMark subtable" qamats
Substitution2: "ShevaAndQamatsForFinalkaf subtable" qamats_for_finalkaf
EndChar

StartChar: holam
Encoding: 140 1465 82
Width: 0
VWidth: 2248
GlyphClass: 4
Flags: W
HStem: 1272 150<-68.6201 68.6201>
VStem: -75 150<1278.54 1415.15>
AnchorPoint: "m2m8" -155 0 basemark 0
AnchorPoint: "m2b7d" 0 0 mark 0
AnchorPoint: "m2b7c" 0 0 mark 0
AnchorPoint: "m2b7b" 0 0 mark 0
AnchorPoint: "m2b7a" 0 0 mark 0
LayerCount: 2
Fore
SplineSet
-75 1347 m 0
 -75 1387 -43 1422 0 1422 c 0
 43 1422 75 1387 75 1347 c 0
 75 1305 43 1272 0 1272 c 0
 -43 1272 -75 1305 -75 1347 c 0
EndSplineSet
Validated: 1
EndChar

StartChar: qubuts
Encoding: 142 1467 84
Width: 0
VWidth: 2248
GlyphClass: 4
Flags: W
HStem: -496 135<137.087 266.913> -389 135<-6.91318 122.913> -277 135<-151.025 -20.9747>
VStem: -155 138<-273.169 -146.087> -11 138<-384.934 -257.964> 133 138<-492.057 -364.975>
CounterMasks: 1 1c
AnchorPoint: "m2m5" 416 0 basemark 0
AnchorPoint: "m2m6e" 350 0 basemark 0
AnchorPoint: "m2m2" 271 0 mark 0
AnchorPoint: "m2m1" -235 0 basemark 0
AnchorPoint: "m2bv2left" 60 0 mark 0
AnchorPoint: "m2bvback" 0 0 mark 0
AnchorPoint: "m2bv2r" -230 0 mark 0
AnchorPoint: "VbWM" -155 0 mark 0
AnchorPoint: "VbNM" -155 0 mark 0
AnchorPoint: "m2b4b" 0 0 mark 0
LayerCount: 2
Fore
SplineSet
133 -430 m 0x9c
 133 -390 163 -361 202 -361 c 0
 241 -361 271 -390 271 -430 c 0
 271 -467 241 -496 202 -496 c 0
 163 -496 133 -467 133 -430 c 0x9c
-155 -211 m 0
 -155 -172 -126 -142 -86 -142 c 0
 -46 -142 -17 -172 -17 -211 c 0
 -17 -249 -46 -277 -86 -277 c 0x3c
 -126 -277 -155 -249 -155 -211 c 0
-11 -322 m 0
 -11 -283 19 -254 58 -254 c 0
 97 -254 127 -283 127 -322 c 0
 127 -359 97 -389 58 -389 c 0x5c
 19 -389 -11 -359 -11 -322 c 0
EndSplineSet
Validated: 1
Position2: "positionMoveVowelToLeft subtable" dx=-70 dy=0 dh=0 dv=0
MultipleSubs2: "AddHairspaceAfterMark subtable" qubuts hairspace
MultipleSubs2: "AddThinspaceAfterMark subtable" qubuts thinspace
EndChar

StartChar: dagesh
Encoding: 143 1468 85
Width: 0
VWidth: 2248
GlyphClass: 4
Flags: W
HStem: 465 153<-67.8734 67.8734>
VStem: -75 150<472.039 610.98>
AnchorPoint: "m2b2" 0 0 mark 0
LayerCount: 2
Fore
SplineSet
-75 542 m 0
 -75 582 -43 618 0 618 c 0
 43 618 75 582 75 542 c 0
 75 501 43 465 0 465 c 0
 -43 465 -75 501 -75 542 c 0
EndSplineSet
Validated: 1
EndChar

StartChar: meteg
Encoding: 144 1469 86
Width: 0
VWidth: 2248
GlyphClass: 4
Flags: W
HStem: -470 324
VStem: -49 98<-469.986 -146.014>
AnchorPoint: "m2m6c" 800 0 basemark 0
AnchorPoint: "m2m6b" 596 0 basemark 0
AnchorPoint: "m2m6a" 380 0 basemark 0
AnchorPoint: "m2m4" 50 0 mark 0
AnchorPoint: "m2m4" -130 0 basemark 0
AnchorPoint: "m2m2" -130 0 basemark 0
AnchorPoint: "m2m1" 50 0 mark 0
AnchorPoint: "m2bv2left" 25 0 mark 0
AnchorPoint: "m2bv2left" 35 0 mark 0
AnchorPoint: "m2bv2r" -150 0 mark 0
AnchorPoint: "m2b4a" 0 0 mark 0
AnchorPoint: "m2m6b" 35 0 mark 0
LayerCount: 2
Fore
SplineSet
0 -146 m 0
 49 -146 49 -144 49 -182 c 1
 49 -434 l 1
 49 -472 49 -470 0 -470 c 0
 -49 -470 -49 -472 -49 -434 c 1
 -49 -182 l 1
 -49 -144 -49 -146 0 -146 c 0
EndSplineSet
Validated: 1
Position2: "Single Positioning lookup 29 subtable" dx=214 dy=0 dh=0 dv=0
Position2: "Single Positioning lookup 28 subtable" dx=360 dy=0 dh=0 dv=0
Position2: "Single Positioning lookup 27 subtable" dx=494 dy=0 dh=0 dv=0
Position2: "Single Positioning lookup 23 subtable" dx=200 dy=0 dh=0 dv=0
Position2: "positionMoveVowelToLeft subtable" dx=-30 dy=0 dh=0 dv=0
MultipleSubs2: "AddHairspaceAfterMark subtable" meteg hairspace
MultipleSubs2: "AddThinspaceAfterMark subtable" meteg thinspace
Ligature2: "L2ccmpCgjZwjZwnjComatibility subtable" cgj meteg
Ligature2: "L2ccmpCgjZwjZwnjComatibility subtable" meteg cgj
Ligature2: "L2ccmpCgjZwjZwnjComatibility subtable" zerononjoin meteg
EndChar

StartChar: makaf
Encoding: 145 1470 87
Width: 988
VWidth: 2248
GlyphClass: 2
Flags: W
HStem: 911 186<199.131 796.323>
AnchorPoint: "m2b8a" 518 0 basechar 0
AnchorPoint: "m2b8b" 295 0 basechar 0
AnchorPoint: "m2b8c" 789 0 basechar 0
LayerCount: 2
Fore
SplineSet
794 1097 m 18
 844 1097 866 1096 866 1081 c 1
 866 1071 857 1054 839 1023 c 10
 817 984 l 17
 771 916 780 911 695 911 c 10
 186 911 l 18
 146 911 133 911 133 925 c 0
 133 935 133 945 156 982 c 10
 181 1023 l 17
 226 1096 223 1097 317 1097 c 10
 794 1097 l 18
EndSplineSet
Validated: 1
EndChar

StartChar: rafe
Encoding: 146 1471 88
Width: 0
VWidth: 2248
GlyphClass: 4
Flags: W
HStem: 1236 125<-179.609 182.84>
VStem: -200 400
AnchorPoint: "m2mrafe" 0 200 basemark 0
AnchorPoint: "m2b3" 0 0 mark 0
LayerCount: 2
Fore
SplineSet
-180 1236 m 1
 -200 1236 -210 1242 -200 1262 c 9
 -171 1340 l 17
 -166 1352 -164 1361 -151 1361 c 1
 181 1361 l 1
 201 1361 209 1358 200 1336 c 9
 176 1257 l 17
 172 1247 164 1236 151 1236 c 1
 -180 1236 l 1
EndSplineSet
Validated: 1
EndChar

StartChar: paseq
Encoding: 147 1472 89
Width: 351
VWidth: 2248
GlyphClass: 2
Flags: W
VStem: 152 53<-22 1139>
LayerCount: 2
Fore
SplineSet
152 1139 m 1
 205 1139 l 1
 205 -22 l 1
 152 -22 l 1
 152 1139 l 1
EndSplineSet
Validated: 1
EndChar

StartChar: shindot
Encoding: 148 1473 90
Width: 0
VWidth: 2248
GlyphClass: 4
Flags: W
HStem: 1185 150<-68.6201 68.6201>
VStem: -75 150<1191.54 1328.15>
AnchorPoint: "m2b0" -437 0 mark 0
LayerCount: 2
Fore
SplineSet
-75 1260 m 0
 -75 1300 -43 1335 0 1335 c 0
 43 1335 75 1300 75 1260 c 0
 75 1218 43 1185 0 1185 c 0
 -43 1185 -75 1218 -75 1260 c 0
EndSplineSet
Validated: 1
EndChar

StartChar: sofpasuq
Encoding: 150 1475 92
Width: 539
VWidth: 2248
GlyphClass: 2
Flags: W
VStem: 123 324<891.907 982.845>
LayerCount: 2
Fore
SplineSet
318 88 m 1
 305 53 267 53 254 88 c 1
 236 140 190 169 142 195 c 1
 130 202 123 214 123 226 c 0
 123 239 130 252 145 260 c 1
 186 289 229 315 254 369 c 1
 266 404 303 406 316 371 c 1
 341 316 385 291 426 261 c 1
 453 246 452 213 427 198 c 1
 380 172 337 140 318 88 c 1
317 794 m 1
 304 759 267 760 255 795 c 1
 236 848 190 877 143 904 c 1
 131 911 123 923 123 935 c 0
 123 947 131 960 145 968 c 1
 187 997 229 1023 254 1077 c 1
 267 1112 304 1113 316 1078 c 1
 342 1024 385 999 426 970 c 1
 441 961 447 949 447 937 c 0
 447 925 441 914 428 906 c 1
 381 880 336 847 317 794 c 1
EndSplineSet
Validated: 1
EndChar

StartChar: upperdot
Encoding: 151 1476 93
Width: 0
VWidth: 2248
GlyphClass: 4
Flags: W
HStem: 1420 211<-44.3505 44.3505>
VStem: -94 188<1468.39 1580.44>
AnchorPoint: "m2b1" 0 -112 mark 0
LayerCount: 2
Fore
SplineSet
0 1420 m 1
 -14 1420 -23 1443 -52 1471 c 1
 -78 1499 -94 1506 -94 1520 c 1
 -94 1536 -78 1546 -53 1576 c 1
 -25 1608 -14 1631 0 1631 c 1
 14 1631 25 1608 53 1576 c 1
 78 1546 94 1536 94 1520 c 1
 94 1506 78 1499 52 1471 c 1
 23 1443 14 1420 0 1420 c 1
EndSplineSet
Validated: 1
EndChar

StartChar: lowerdot
Encoding: 152 1477 94
Width: 0
VWidth: 2248
GlyphClass: 4
Flags: W
HStem: -508 211<-44.3505 44.3505>
VStem: -94 188<-459.61 -347.561>
AnchorPoint: "m2b1" 0 75 mark 0
LayerCount: 2
Fore
SplineSet
0 -508 m 1
 -14 -508 -23 -485 -52 -457 c 1
 -78 -429 -94 -422 -94 -408 c 1
 -94 -392 -78 -382 -53 -352 c 1
 -25 -320 -14 -297 0 -297 c 1
 14 -297 25 -320 53 -352 c 1
 78 -382 94 -392 94 -408 c 1
 94 -422 78 -429 52 -457 c 1
 23 -485 14 -508 0 -508 c 1
EndSplineSet
Validated: 1
EndChar

StartChar: nunhapukha
Encoding: 153 1478 95
Width: 712
VWidth: 2248
GlyphClass: 2
Flags: W
HStem: 0 225<288.391 578.12>
VStem: 175 82<225.457 696.195> 222 30<616.392 789.593>
AnchorPoint: "m2b8a" 350 0 basechar 0
AnchorPoint: "m2b8b" 100 0 basechar 0
AnchorPoint: "m2b8c" 500 0 basechar 0
AnchorPoint: "m2b1" 309 0 basechar 0
LayerCount: 2
Fore
SplineSet
222 798 m 1xa0
 215 802 208 804 200 804 c 0
 174 804 144 788 124 788 c 0
 113 788 106 793 106 812 c 0
 106 824 110 840 110 855 c 0
 110 908 122 909 138 963 c 0
 167 1058 376 1098 429 1123 c 0
 464 1141 459 1201 477 1201 c 0
 508 1201 517 1115 517 1035 c 3
 517 865 364 850 310 828 c 0
 270 812 263 809 263 729 c 0
 263 688 252 555 252 462 c 3xa0
 252 385 257 274 257 252 c 0
 257 230 266 225 300 225 c 10
 405 225 l 18
 415 225 425 225 434 225 c 0
 524 225 543 223 589 168 c 0
 641 107 656 47 656 26 c 0
 656 0 624 0 549 0 c 1
 432 0 l 1
 305 0 315 7 258 88 c 10
 181 198 l 18
 177 208 175 217 175 228 c 0xc0
 175 244 178 262 178 283 c 0
 178 452 222 673 222 798 c 1xa0
EndSplineSet
Validated: 1
EndChar

StartChar: qamatsqatan
Encoding: 154 1479 96
Width: 0
VWidth: 2248
GlyphClass: 4
Flags: W
HStem: -231 93<-143.992 -31 29 143.939>
VStem: -69 134<-523.062 -276.71> -31 60<-407.267 -231>
AnchorPoint: "m2m5" 380 0 basemark 0
AnchorPoint: "m2m6e" 260 0 basemark 0
AnchorPoint: "m2m2" 180 0 mark 0
AnchorPoint: "m2m1" -260 0 basemark 0
AnchorPoint: "m2bv2left" 90 0 mark 0
AnchorPoint: "m2bvback" 0 0 mark 0
AnchorPoint: "m2bv2r" -230 0 mark 0
AnchorPoint: "VbWM" -180 0 mark 0
AnchorPoint: "VbNM" -180 0 mark 0
AnchorPoint: "m2b4b" 0 0 mark 0
LayerCount: 2
Fore
SplineSet
29 -270 m 0xa0
 29 -416 65 -378 65 -450 c 27
 65 -490 38 -529 0 -529 c 0
 -38 -529 -69 -491 -69 -450 c 27xc0
 -69 -378 -31 -416 -31 -270 c 0
 -31 -252 -30 -235 -31 -231 c 9
 -114 -231 l 18
 -144 -231 -144 -220 -144 -179 c 0
 -144 -138 -144 -138 -113 -138 c 10
 113 -138 l 18
 144 -138 144 -138 144 -179 c 0
 144 -220 140 -231 110 -231 c 10
 30 -231 l 17
 29 -235 29 -252 29 -270 c 0xa0
EndSplineSet
Position2: "positionMoveVowelToLeft subtable" dx=-70 dy=0 dh=0 dv=0
MultipleSubs2: "AddHairspaceAfterMark subtable" qamatsqatan hairspace
MultipleSubs2: "AddThinspaceAfterMark subtable" qamatsqatan thinspace
EndChar

StartChar: alef
Encoding: 155 1488 97
Width: 1057
VWidth: 2248
GlyphClass: 2
Flags: W
VStem: 110 114<309.5 504.534> 157 109<991.396 1133.38> 213 205<81.3152 218.836> 674 129<1053.5 1113.93>
AnchorPoint: "m2b10" -300 0 basechar 0
AnchorPoint: "m2b9" 677 0 basechar 0
AnchorPoint: "m2b8a" 527 0 basechar 0
AnchorPoint: "m2b8b" 255 0 basechar 0
AnchorPoint: "m2b8c" 800 0 basechar 0
AnchorPoint: "m2b7c" -195 0 basechar 0
AnchorPoint: "m2b7b" 258 0 basechar 0
AnchorPoint: "m2b7a" 158 0 basechar 0
AnchorPoint: "m2b5a" 566 0 basechar 0
AnchorPoint: "m2b5b" 869 0 basechar 0
AnchorPoint: "m2bv2r" 566 0 basechar 0
AnchorPoint: "HbWM" 390 0 basechar 0
AnchorPoint: "HbNM" 330 0 basechar 0
AnchorPoint: "VbWM" 550 0 basechar 0
AnchorPoint: "VbNM" 490 0 basechar 0
AnchorPoint: "m2b4a" 566 0 basechar 0
AnchorPoint: "m2b4b" 566 0 basechar 0
AnchorPoint: "m2b4c" 566 0 basechar 0
AnchorPoint: "m2b4d" 566 0 basechar 0
AnchorPoint: "m2b3" 527 0 basechar 0
AnchorPoint: "m2b1" 566 0 basechar 0
LayerCount: 2
Fore
SplineSet
157 953 m 27x50
 157 1046 207 1176 238 1176 c 0
 251 1176 261 1158 266 1113 c 0x50
 288 924 508 753 699 585 c 9
 832 766 l 25
 709 890 l 17
 685 920 674 953 674 986 c 0
 674 1029 692 1074 717 1112 c 8
 744 1153 771 1210 794 1210 c 3
 807 1210 811 1202 811 1190 c 0
 811 1174 803 1150 803 1128 c 0
 803 1045 1007 961 1007 864 c 0
 1007 803 948 753 910 682 c 25
 857 742 l 25
 726 562 l 25
 867 423 l 17
 930 359 951 282 951 210 c 0
 951 73 926 9 890 9 c 0
 876 9 863 25 849 68 c 0
 762 323 539 412 394 576 c 9
 373 591 367 615 341 615 c 27
 267 615 224 534 224 465 c 3x90
 224 355 418 383 418 174 c 3x30
 418 87 297 3 264 3 c 10
 157 3 l 17x50
 133 3 110 8 110 31 c 27x90
 110 89 213 62 213 140 c 3x30
 213 185 110 259 110 360 c 0x90
 110 482 206 590 303 653 c 1
 218 748 157 823 157 953 c 27x50
EndSplineSet
Validated: 1
MultipleSubs2: "Addhairspacebeforeletter subtable" hairspace alef
MultipleSubs2: "Addthinspacebeforeletter subtable" thinspace alef
MultipleSubs2: "AddHairspaceAfterMark subtable" alef hairspace
MultipleSubs2: "AddThinspaceAfterMark subtable" alef thinspace
Substitution2: "jaltWideLetterAlternativesinHeb subtable" alef.wide
EndChar

StartChar: bet
Encoding: 156 1489 98
Width: 961
VWidth: 2248
GlyphClass: 2
Flags: W
HStem: 0 228<130.075 794.791> 900 225<230.57 727.064>
VStem: 774 62<445.022 848.585> 796 40<230.931 579.978>
AnchorPoint: "m2b10" -300 0 basechar 0
AnchorPoint: "m2b9" 653 0 basechar 0
AnchorPoint: "m2b8a" 503 0 basechar 0
AnchorPoint: "m2b8b" 161 0 basechar 0
AnchorPoint: "m2b8c" 780 0 basechar 0
AnchorPoint: "m2b7c" -195 0 basechar 0
AnchorPoint: "m2b7b" 220 0 basechar 0
AnchorPoint: "m2b7a" 120 0 basechar 0
AnchorPoint: "m2b5a" 500 0 basechar 0
AnchorPoint: "m2b5b" 781 0 basechar 0
AnchorPoint: "m2bv2r" 503 0 basechar 0
AnchorPoint: "VbWM" 460 0 basechar 0
AnchorPoint: "VbNM" 400 0 basechar 0
AnchorPoint: "m2b4a" 503 0 basechar 0
AnchorPoint: "m2b4b" 503 0 basechar 0
AnchorPoint: "m2b4c" 503 0 basechar 0
AnchorPoint: "m2b4d" 503 0 basechar 0
AnchorPoint: "m2b3" 503 0 basechar 0
AnchorPoint: "m2b1" 503 0 basechar 0
LayerCount: 2
Fore
SplineSet
443 900 m 18xe0
 440 900 437 900 434 900 c 0
 270 900 167 928 167 1066 c 10
 167 1089 l 17
 167 1113 168 1140 171 1165 c 0
 178 1213 214 1219 229 1169 c 0
 242 1126 244 1125 298 1125 c 1
 568 1125 l 1
 737 1125 836 1001 836 903 c 9
 836 263 l 18
 836 228 830 228 854 228 c 1
 860 228 866 228 871 228 c 0
 923 228 918 229 918 212 c 1
 918 199 905 175 883 138 c 1
 848 82 l 1
 801 6 801 0 744 0 c 0
 731 0 716 0 697 0 c 10
 111 0 l 18
 62 0 38 1 38 19 c 0
 38 31 51 53 73 89 c 10
 101 136 l 17
 154 228 155 228 272 228 c 1
 735 229 l 1
 786 229 796 229 796 265 c 0
 796 272 796 280 796 290 c 10xd0
 774 735 l 17
 774 810 755 900 606 900 c 10
 443 900 l 18xe0
EndSplineSet
Validated: 1
MultipleSubs2: "Addhairspacebeforeletter subtable" hairspace bet
MultipleSubs2: "Addthinspacebeforeletter subtable" thinspace bet
MultipleSubs2: "AddHairspaceAfterMark subtable" bet hairspace
MultipleSubs2: "AddThinspaceAfterMark subtable" bet thinspace
EndChar

StartChar: gimel
Encoding: 157 1490 99
Width: 665
VWidth: 2248
GlyphClass: 2
Flags: W
HStem: 0 228<125.358 371.901>
VStem: 214 325<911.344 1053.06> 468 102<24.1678 215.415> 497 42<390.248 792.831>
AnchorPoint: "m2b10" -300 0 basechar 0
AnchorPoint: "m2b9" 540 0 basechar 0
AnchorPoint: "m2b8a" 392 0 basechar 0
AnchorPoint: "m2b8b" 264 0 basechar 0
AnchorPoint: "m2b8c" 526 0 basechar 0
AnchorPoint: "m2b7d" 31 0 basechar 0
AnchorPoint: "m2b7c" -195 0 basechar 0
AnchorPoint: "m2b7b" 271 0 basechar 0
AnchorPoint: "m2b7a" 171 0 basechar 0
AnchorPoint: "m2b5a" 320 0 basechar 0
AnchorPoint: "m2b5b" 495 0 basechar 0
AnchorPoint: "m2bv2r" 322 0 basechar 0
AnchorPoint: "VbWM" 360 0 basechar 0
AnchorPoint: "VbNM" 300 0 basechar 0
AnchorPoint: "m2b4a" 322 0 basechar 0
AnchorPoint: "m2b4b" 322 0 basechar 0
AnchorPoint: "m2b4c" 322 0 basechar 0
AnchorPoint: "m2b4d" 322 0 basechar 0
AnchorPoint: "m2b3" 392 0 basechar 0
AnchorPoint: "m2b1" 392 0 basechar 0
LayerCount: 2
Fore
SplineSet
539 544 m 0x90
 539 300 570 164 570 137 c 0
 570 112 560 95 545 58 c 9
 526 25 l 17
 508 5 494 -4 485 -4 c 0
 473 -4 468 9 468 34 c 0
 468 42 468 52 468 64 c 1xa0
 468 98 474 184 474 217 c 0
 474 274 470 274 445 228 c 2
 380 58 l 1
 349 0 347 0 286 0 c 10
 82 0 l 18
 47 0 32 2 32 14 c 0
 32 22 39 33 51 56 c 1
 115 167 l 2
 150 228 150 228 214 228 c 2xc0
 345 228 l 2
 409 228 474 372 483 412 c 1
 495 493 497 534 497 584 c 0
 497 612 497 642 497 683 c 0x90
 497 752 489 809 422 841 c 0
 370 865 214 864 214 1034 c 3
 214 1114 220 1214 251 1214 c 0
 269 1214 265 1156 299 1136 c 0
 344 1111 383 1111 426 1097 c 0
 480 1079 539 1025 539 966 c 0xc0
 539 804 539 667 539 544 c 0x90
EndSplineSet
Validated: 1
MultipleSubs2: "Addhairspacebeforeletter subtable" hairspace gimel
MultipleSubs2: "Addthinspacebeforeletter subtable" thinspace gimel
MultipleSubs2: "AddHairspaceAfterMark subtable" gimel hairspace
MultipleSubs2: "AddThinspaceAfterMark subtable" gimel thinspace
EndChar

StartChar: dalet
Encoding: 158 1491 100
Width: 1040
VWidth: 2248
GlyphClass: 2
Flags: W
HStem: 0 21G<780.5 789.5> 901 227<142.083 770.828>
VStem: 764 97<17.6449 593.228> 771 59<394.158 899.668>
AnchorPoint: "m2b10" -300 0 basechar 0
AnchorPoint: "m2b9" 660 0 basechar 0
AnchorPoint: "m2b8a" 511 0 basechar 0
AnchorPoint: "m2b8b" 91 0 basechar 0
AnchorPoint: "m2b8c" 856 0 basechar 0
AnchorPoint: "m2b7c" -195 0 basechar 0
AnchorPoint: "m2b7b" 124 0 basechar 0
AnchorPoint: "m2b7a" 24 0 basechar 0
AnchorPoint: "m2b5a" 766 0 basechar 0
AnchorPoint: "m2b5b" 865 0 basechar 0
AnchorPoint: "m2bv2left" 799 0 basechar 0
AnchorPoint: "m2b4a" 799 0 basechar 0
AnchorPoint: "m2b4b" 799 0 basechar 0
AnchorPoint: "m2b4c" 737 0 basechar 0
AnchorPoint: "m2b4d" 637 0 basechar 0
AnchorPoint: "m2b3" 511 0 basechar 0
AnchorPoint: "m2b1" 511 0 basechar 0
LayerCount: 2
Fore
SplineSet
348 901 m 17xd0
 153 901 74 923 74 1063 c 9
 74 1090 l 18
 74 1114 74 1154 77 1179 c 0
 84 1227 120 1233 135 1183 c 0
 148 1140 157 1128 211 1128 c 1
 750 1128 l 1
 778 1128 801 1128 821 1128 c 0
 881 1128 905 1124 916 1087 c 1
 929 1006 l 2
 935 967 937 955 937 933 c 0
 937 898 922 872 914 872 c 1
 907 871 898 874 888 886 c 0
 874 904 835 903 830 895 c 1
 830 787 l 2xd0
 830 601 835 329 861 161 c 1
 861 18 792 0 787 0 c 0
 774 0 764 18 764 65 c 0xe0
 764 188 771 624 771 773 c 0
 771 800 771 821 771 832 c 0
 771 837 771 840 771 841 c 1
 771 895 768 901 713 901 c 10
 348 901 l 17xd0
EndSplineSet
Validated: 1
MultipleSubs2: "Addhairspacebeforeletter subtable" hairspace dalet
MultipleSubs2: "Addthinspacebeforeletter subtable" thinspace dalet
MultipleSubs2: "AddHairspaceAfterMark subtable" dalet hairspace
MultipleSubs2: "AddThinspaceAfterMark subtable" dalet thinspace
Substitution2: "jaltWideLetterAlternativesinHeb subtable" dalet.wide
EndChar

StartChar: he
Encoding: 159 1492 101
Width: 1096
VWidth: 2248
GlyphClass: 2
Flags: W
HStem: -14 35G<141.5 147.5 863.5 872.5> 901 227<165.292 853.828 915 961.423>
VStem: 150 80<24.5454 665.547> 847 96<15.7251 592.996> 854 61<393.496 899.699>
AnchorPoint: "m2b10" -300 0 basechar 0
AnchorPoint: "m2b9" 680 0 basechar 0
AnchorPoint: "m2b8a" 529 0 basechar 0
AnchorPoint: "m2b8b" 118 0 basechar 0
AnchorPoint: "m2b8c" 930 0 basechar 0
AnchorPoint: "m2b7c" -195 0 basechar 0
AnchorPoint: "m2b7b" 156 0 basechar 0
AnchorPoint: "m2b7a" 56 0 basechar 0
AnchorPoint: "m2b5a" 529 0 basechar 0
AnchorPoint: "m2b5b" 885 0 basechar 0
AnchorPoint: "m2bv2r" 529 0 basechar 0
AnchorPoint: "HbWM" 340 0 basechar 0
AnchorPoint: "HbNM" 280 0 basechar 0
AnchorPoint: "VbWM" 520 0 basechar 0
AnchorPoint: "VbNM" 460 0 basechar 0
AnchorPoint: "m2bpg" 1000 0 basechar 0
AnchorPoint: "m2b4a" 529 0 basechar 0
AnchorPoint: "m2b4b" 529 0 basechar 0
AnchorPoint: "m2b4c" 529 0 basechar 0
AnchorPoint: "m2b4d" 529 0 basechar 0
AnchorPoint: "m2b3" 529 0 basechar 0
AnchorPoint: "m2b1" 529 0 basechar 0
LayerCount: 2
Fore
SplineSet
987 945 m 1xe8
 987 910 972 886 964 886 c 1
 957 885 958 901 940 901 c 0
 922 901 915 898 915 876 c 2
 915 787 l 1xe8
 915 601 917 328 943 160 c 1
 943 17 875 0 870 0 c 0
 857 0 847 17 847 64 c 0xf0
 847 187 854 624 854 773 c 0
 854 800 854 821 854 832 c 0
 854 837 854 840 854 841 c 1
 854 895 851 901 796 901 c 1
 378 901 l 1
 200 901 103 928 103 1068 c 10
 103 1089 l 17
 103 1113 105 1140 108 1165 c 0
 115 1213 151 1219 166 1169 c 0
 178 1130 181 1128 222 1128 c 0
 235 1128 l 1
 836 1128 l 1
 948 1128 968 1089 976 1041 c 1
 976 1041 987 968 987 945 c 1xe8
230 573 m 10
 230 151 l 17
 230 59 221 55 167 0 c 1
 157 -10 152 -14 143 -14 c 0
 140 -14 139 -12 139 -9 c 0
 139 1 150 28 150 74 c 9
 150 539 l 17
 150 628 150 614 174 646 c 0
 199 679 206 682 216 682 c 0
 230 682 230 647 230 573 c 10
EndSplineSet
Validated: 1
MultipleSubs2: "Addhairspacebeforeletter subtable" hairspace he
MultipleSubs2: "Addthinspacebeforeletter subtable" thinspace he
MultipleSubs2: "AddHairspaceAfterMark subtable" he hairspace
MultipleSubs2: "AddThinspaceAfterMark subtable" he thinspace
Substitution2: "jaltWideLetterAlternativesinHeb subtable" he.wide
EndChar

StartChar: vav
Encoding: 160 1493 102
Width: 551
VWidth: 2248
GlyphClass: 2
Flags: W
HStem: -15 21G<353 363.5>
VStem: 342 84<-1.54208 468.828> 381 42<341.475 801.326>
AnchorPoint: "m2b10" -300 0 basechar 0
AnchorPoint: "m2b9" 425 0 basechar 0
AnchorPoint: "m2b8a" 276 0 basechar 0
AnchorPoint: "m2b8b" 130 0 basechar 0
AnchorPoint: "m2b8c" 430 0 basechar 0
AnchorPoint: "m2b7d" -89 0 basechar 0
AnchorPoint: "m2b7c" -195 0 basechar 0
AnchorPoint: "m2b7b" 151 0 basechar 0
AnchorPoint: "m2b7a" 51 0 basechar 0
AnchorPoint: "m2b5a" 364 0 basechar 0
AnchorPoint: "m2b5b" 460 0 basechar 0
AnchorPoint: "m2bv2left" 370 0 basechar 0
AnchorPoint: "VbWM" 350 0 basechar 0
AnchorPoint: "VbNM" 300 0 basechar 0
AnchorPoint: "m2b4a" 380 0 basechar 0
AnchorPoint: "m2b4b" 368 0 basechar 0
AnchorPoint: "m2b4c" 303 0 basechar 0
AnchorPoint: "m2b4d" 246 0 basechar 0
AnchorPoint: "m2b1" 276 0 basechar 0
LayerCount: 2
Fore
SplineSet
426 130 m 0xc0
 426 107 426 76 418 42 c 1
 415 31 407 21 400 14 c 1
 382 -6 368 -15 359 -15 c 0
 347 -15 342 -1 342 24 c 0
 342 33 342 43 342 55 c 1xc0
 360 181 381 607 381 722 c 0
 381 791 375 800 308 832 c 0
 256 856 100 854 100 1024 c 3
 100 1104 100 1194 131 1194 c 0
 149 1194 145 1136 179 1116 c 0
 224 1091 264 1091 307 1077 c 0
 361 1059 425 1007 425 948 c 0
 425 786 423 656 423 533 c 0xa0
 423 289 426 157 426 130 c 0xc0
EndSplineSet
Validated: 1
MultipleSubs2: "Addhairspacebeforeletter subtable" hairspace vav
MultipleSubs2: "Addthinspacebeforeletter subtable" thinspace vav
MultipleSubs2: "AddHairspaceAfterMark subtable" vav hairspace
MultipleSubs2: "AddThinspaceAfterMark subtable" vav thinspace
EndChar

StartChar: zayin
Encoding: 161 1494 103
Width: 564
VWidth: 2248
GlyphClass: 2
Flags: W
VStem: 170 329<892.376 1008> 224 101<162.511 647.127> 266 91<8.27527 459.736>
AnchorPoint: "m2b10" -300 0 basechar 0
AnchorPoint: "m2b9" 500 0 basechar 0
AnchorPoint: "m2b8a" 351 0 basechar 0
AnchorPoint: "m2b8b" 233 0 basechar 0
AnchorPoint: "m2b8c" 426 0 basechar 0
AnchorPoint: "m2b7d" 33 0 basechar 0
AnchorPoint: "m2b7c" -195 0 basechar 0
AnchorPoint: "m2b7b" 273 0 basechar 0
AnchorPoint: "m2b7a" 173 0 basechar 0
AnchorPoint: "m2b5a" 272 0 basechar 0
AnchorPoint: "m2b5b" 426 0 basechar 0
AnchorPoint: "m2bv2left" 290 0 basechar 0
AnchorPoint: "VbWM" 340 0 basechar 0
AnchorPoint: "VbNM" 280 0 basechar 0
AnchorPoint: "m2b4a" 289 0 basechar 0
AnchorPoint: "m2b4b" 289 0 basechar 0
AnchorPoint: "m2b4c" 319 0 basechar 0
AnchorPoint: "m2b4d" 232 0 basechar 0
AnchorPoint: "m2b1" 351 0 basechar 0
LayerCount: 2
Fore
SplineSet
170 998 m 0x80
 170 1055 220 1213 253 1213 c 2
 255 1213 l 1
 271 1209 254 1152 281 1125 c 0
 336 1071 499 1028 499 920 c 1x80
 499 909 497 896 495 886 c 1
 472 803 l 18
 463 771 457 758 444 758 c 0
 431 758 411 772 376 794 c 1
 340 714 325 582 325 517 c 0x40
 325 377 357 266 357 132 c 0
 357 75 334 31 296 -12 c 1
 277 -30 254 -34 254 -10 c 1
 263 65 266 127 266 182 c 0x20
 266 284 224 352 224 465 c 0x40
 224 579 310 744 345 807 c 1
 316 831 170 873 170 998 c 0x80
EndSplineSet
Validated: 1
MultipleSubs2: "Addhairspacebeforeletter subtable" hairspace zayin
MultipleSubs2: "Addthinspacebeforeletter subtable" thinspace zayin
MultipleSubs2: "AddHairspaceAfterMark subtable" zayin hairspace
MultipleSubs2: "AddThinspaceAfterMark subtable" zayin thinspace
EndChar

StartChar: het
Encoding: 162 1495 104
Width: 1135
VWidth: 2248
GlyphClass: 2
Flags: W
HStem: 0 21G<906.5 915.5> 902 226<242.366 898.895 959.002 995.74>
VStem: 156 106<4.78906 596.647> 156 77<222.29 874.65> 890 97<17.2611 593.058> 899 60<306.971 900.905>
AnchorPoint: "m2b10" -300 0 basechar 0
AnchorPoint: "m2b9" 725 0 basechar 0
AnchorPoint: "m2b8a" 575 0 basechar 0
AnchorPoint: "m2b8b" 104 0 basechar 0
AnchorPoint: "m2b8c" 934 0 basechar 0
AnchorPoint: "m2b7c" -195 0 basechar 0
AnchorPoint: "m2b7b" 151 0 basechar 0
AnchorPoint: "m2b7a" 51 0 basechar 0
AnchorPoint: "m2b5a" 584 0 basechar 0
AnchorPoint: "m2b5b" 913 0 basechar 0
AnchorPoint: "m2bv2r" 584 0 basechar 0
AnchorPoint: "HbWM" 440 0 basechar 0
AnchorPoint: "HbNM" 380 0 basechar 0
AnchorPoint: "VbWM" 560 0 basechar 0
AnchorPoint: "VbNM" 480 0 basechar 0
AnchorPoint: "m2bpg" 1000 0 basechar 0
AnchorPoint: "m2b4a" 584 0 basechar 0
AnchorPoint: "m2b4b" 584 0 basechar 0
AnchorPoint: "m2b4c" 584 0 basechar 0
AnchorPoint: "m2b4d" 584 0 basechar 0
AnchorPoint: "m2b2" 539 0 basechar 0
AnchorPoint: "m2b1" 575 0 basechar 0
LayerCount: 2
Fore
SplineSet
1025 948 m 0xd0
 1025 912 1009 886 1001 886 c 1
 995 886 991 902 973 902 c 0
 962 902 959 899 959 877 c 1
 959 707 l 1xd4
 959 521 961 328 987 160 c 1
 987 17 918 0 913 0 c 0
 900 0 890 17 890 64 c 0xc8
 890 187 899 544 899 693 c 0
 899 720 899 741 899 752 c 0
 899 757 899 841 899 842 c 1
 899 896 898 902 843 902 c 2
 375 902 l 18
 328 902 284 902 247 902 c 1
 238 838 233 696 233 633 c 0xd4
 233 478 261 322 261 151 c 1
 261 108 262 87 262 72 c 0
 262 57 260 49 231 19 c 1
 202 -12 186 -29 177 -29 c 0
 165 -29 156 -1 156 59 c 10xe0
 156 668 l 18
 156 677 156 686 156 693 c 0
 156 756 159 856 217 902 c 1
 169 917 98 978 98 1068 c 10
 98 1089 l 17
 98 1113 102 1152 105 1176 c 0
 112 1224 148 1230 163 1180 c 0
 176 1138 177 1128 231 1128 c 1
 878 1128 l 1
 991 1128 997 1090 1011 1041 c 1
 1011 1041 1025 970 1025 948 c 0xd0
EndSplineSet
Validated: 1
MultipleSubs2: "Addhairspacebeforeletter subtable" hairspace het
MultipleSubs2: "Addthinspacebeforeletter subtable" thinspace het
MultipleSubs2: "AddHairspaceAfterMark subtable" het hairspace
MultipleSubs2: "AddThinspaceAfterMark subtable" het thinspace
EndChar

StartChar: tet
Encoding: 163 1496 105
Width: 1097
VWidth: 2248
GlyphClass: 2
Flags: W
HStem: -4 232<272.379 809.429> 879 249<709.846 850.421>
VStem: 116 363<880.031 1021.74> 150 82<274.307 700.501> 518 55<513.41 551.488> 948 99<445.008 802.505>
AnchorPoint: "m2b10" -300 0 basechar 0
AnchorPoint: "m2b9" 700 0 basechar 0
AnchorPoint: "m2b8a" 546 0 basechar 0
AnchorPoint: "m2b8b" 140 0 basechar 0
AnchorPoint: "m2b8c" 917 0 basechar 0
AnchorPoint: "m2b7c" -195 0 basechar 0
AnchorPoint: "m2b7b" 177 0 basechar 0
AnchorPoint: "m2b7a" 77 0 basechar 0
AnchorPoint: "m2b5a" 546 0 basechar 0
AnchorPoint: "m2b5b" 827 0 basechar 0
AnchorPoint: "m2bv2r" 546 0 basechar 0
AnchorPoint: "VbWM" 510 0 basechar 0
AnchorPoint: "VbNM" 430 0 basechar 0
AnchorPoint: "m2b4a" 546 0 basechar 0
AnchorPoint: "m2b4b" 546 0 basechar 0
AnchorPoint: "m2b4c" 546 0 basechar 0
AnchorPoint: "m2b4d" 546 0 basechar 0
AnchorPoint: "m2b1" 546 0 basechar 0
LayerCount: 2
Fore
SplineSet
157 1204 m 0xec
 168 1204 178 1190 183 1168 c 1
 197 1126 216 1108 319 1078 c 1
 393 1048 479 1023 479 933 c 0xec
 479 925 477 917 477 907 c 9
 450 771 l 25
 298 818 l 17
 256 768 232 654 232 588 c 0
 232 505 252 356 261 313 c 0
 276 243 293 228 351 228 c 10
 717 228 l 18
 785 228 775 228 821 287 c 1
 867 352 948 465 948 630 c 0
 948 741 894 879 804 879 c 0
 678 879 645 708 573 540 c 1
 552 502 550 488 518 488 c 9
 644 1046 l 18
 657 1102 673 1128 727 1128 c 0
 761 1128 1047 1062 1047 688 c 0
 1047 506 944 271 863 89 c 0
 827 7 818 -4 744 -4 c 10
 268 -4 l 17
 198 -4 190 1 190 46 c 2
 190 106 l 2
 190 234 164 367 150 498 c 1xdc
 150 618 198 746 259 837 c 1
 138 861 116 924 116 1018 c 0
 116 1038 128 1204 157 1204 c 0xec
EndSplineSet
Validated: 1
MultipleSubs2: "Addhairspacebeforeletter subtable" hairspace tet
MultipleSubs2: "Addthinspacebeforeletter subtable" thinspace tet
MultipleSubs2: "AddHairspaceAfterMark subtable" tet hairspace
MultipleSubs2: "AddThinspaceAfterMark subtable" tet thinspace
EndChar

StartChar: yod
Encoding: 164 1497 106
Width: 530
VWidth: 2248
GlyphClass: 2
Flags: W
HStem: 557 646
VStem: 389 33<557.118 794.98>
AnchorPoint: "m2b10" -300 0 basechar 0
AnchorPoint: "m2b9" 420 0 basechar 0
AnchorPoint: "m2b8a" 269 0 basechar 0
AnchorPoint: "m2b8b" 116 0 basechar 0
AnchorPoint: "m2b8c" 453 0 basechar 0
AnchorPoint: "m2b7d" -86 0 basechar 0
AnchorPoint: "m2b7c" -195 0 basechar 0
AnchorPoint: "m2b7b" 154 0 basechar 0
AnchorPoint: "m2b7a" 54 0 basechar 0
AnchorPoint: "m2b5a" 390 0 basechar 0
AnchorPoint: "m2b5b" 423 0 basechar 0
AnchorPoint: "m2bv2left" 390 0 basechar 0
AnchorPoint: "VbWM" 400 0 basechar 0
AnchorPoint: "VbNM" 350 0 basechar 0
AnchorPoint: "m2b4a" 390 0 basechar 0
AnchorPoint: "m2b4b" 390 0 basechar 0
AnchorPoint: "m2b4c" 302 0 basechar 0
AnchorPoint: "m2b4d" 269 0 basechar 0
AnchorPoint: "m2b1" 269 0 basechar 0
LayerCount: 2
Fore
SplineSet
389 591 m 1
 389 619 389 647 389 672 c 0
 389 757 383 819 330 828 c 1
 278 852 106 847 106 1017 c 3
 106 1030 106 1044 106 1057 c 0
 106 1129 108 1203 134 1203 c 0
 152 1203 149 1145 183 1125 c 0
 228 1100 267 1100 310 1086 c 0
 364 1068 422 1003 422 944 c 0
 422 782 421 708 421 585 c 0
 421 567 412 557 404 557 c 0
 395 557 389 567 389 591 c 1
EndSplineSet
Validated: 1
MultipleSubs2: "Addhairspacebeforeletter subtable" hairspace yod
MultipleSubs2: "Addthinspacebeforeletter subtable" thinspace yod
MultipleSubs2: "AddHairspaceAfterMark subtable" yod hairspace
MultipleSubs2: "AddThinspaceAfterMark subtable" yod thinspace
EndChar

StartChar: finalkaf
Encoding: 165 1498 107
Width: 955
VWidth: 2248
GlyphClass: 2
Flags: W
HStem: 901 227<128.292 705.566 776.005 822.423>
VStem: 713 112<-530.035 59.4254> 716 60<285.461 889.809>
AnchorPoint: "m2b9" 590 0 basechar 0
AnchorPoint: "m2b8a" 436 0 basechar 0
AnchorPoint: "m2b8b" 70 0 basechar 0
AnchorPoint: "m2b8c" 810 0 basechar 0
AnchorPoint: "m2b7b" 117 0 basechar 0
AnchorPoint: "m2b7a" 17 0 basechar 0
AnchorPoint: "m2bmback" 435 0 basechar 0
AnchorPoint: "m2b5a" 435 0 basechar 0
AnchorPoint: "m2b5b" 894 0 basechar 0
AnchorPoint: "m2bvback" 435 0 basechar 0
AnchorPoint: "m2b6" 435 0 basechar 0
AnchorPoint: "m2b4a" 435 0 basechar 0
AnchorPoint: "m2b4b" 435 0 basechar 0
AnchorPoint: "m2b4c" 350 0 basechar 0
AnchorPoint: "m2b4d" 222 0 basechar 0
AnchorPoint: "m2b3" 435 0 basechar 0
AnchorPoint: "m2b1" 435 0 basechar 0
LayerCount: 2
Fore
SplineSet
657 901 m 1xa0
 341 901 l 1
 163 901 66 929 66 1069 c 10
 66 1090 l 17
 66 1114 68 1141 71 1166 c 0
 78 1214 114 1220 129 1170 c 0
 141 1131 144 1128 185 1128 c 0
 198 1128 l 1
 697 1128 l 1
 809 1128 829 1089 837 1041 c 1
 837 1041 848 968 848 945 c 1
 848 910 833 886 825 886 c 1xc0
 818 885 819 901 801 901 c 0
 783 901 776 898 776 876 c 2
 776 705 l 2xa0
 776 697 775 688 775 679 c 0
 775 458 800 -231 825 -392 c 1
 825 -535 741 -557 736 -557 c 0
 723 -557 713 -540 713 -493 c 0xc0
 713 -370 716 544 716 693 c 0
 716 720 716 741 716 752 c 0
 716 757 716 760 716 761 c 1
 716 815 712 901 657 901 c 1xa0
EndSplineSet
Validated: 1
MultipleSubs2: "Addhairspacebeforeletter subtable" hairspace finalkaf
MultipleSubs2: "Addthinspacebeforeletter subtable" thinspace finalkaf
MultipleSubs2: "AddHairspaceAfterMark subtable" finalkaf hairspace
MultipleSubs2: "AddThinspaceAfterMark subtable" finalkaf thinspace
EndChar

StartChar: kaf
Encoding: 166 1499 108
Width: 976
VWidth: 2248
GlyphClass: 2
Flags: W
HStem: 0 228<134.876 745.183> 902 223<178.432 759.441>
VStem: 819 54<233.76 804.306>
AnchorPoint: "m2b10" -300 0 basechar 0
AnchorPoint: "m2b9" 590 0 basechar 0
AnchorPoint: "m2b8a" 431 0 basechar 0
AnchorPoint: "m2b8b" 135 0 basechar 0
AnchorPoint: "m2b8c" 780 0 basechar 0
AnchorPoint: "m2b7c" -195 0 basechar 0
AnchorPoint: "m2b7b" 168 0 basechar 0
AnchorPoint: "m2b7a" 68 0 basechar 0
AnchorPoint: "m2b5a" 415 0 basechar 0
AnchorPoint: "m2b5b" 692 0 basechar 0
AnchorPoint: "m2bv2r" 415 0 basechar 0
AnchorPoint: "VbWM" 420 0 basechar 0
AnchorPoint: "VbNM" 360 0 basechar 0
AnchorPoint: "m2b4a" 415 0 basechar 0
AnchorPoint: "m2b4b" 415 0 basechar 0
AnchorPoint: "m2b4c" 415 0 basechar 0
AnchorPoint: "m2b4d" 415 0 basechar 0
AnchorPoint: "m2b3" 524 0 basechar 0
AnchorPoint: "m2b1" 415 0 basechar 0
LayerCount: 2
Fore
SplineSet
819 133 m 10
 792 93 l 17
 726 15 704 0 598 0 c 2
 118 0 l 1
 69 0 46 0 46 19 c 1
 46 31 61 52 81 89 c 10
 106 136 l 17
 155 221 160 228 251 228 c 0
 259 228 268 228 277 228 c 2
 738 228 l 1
 817 228 819 236 819 314 c 2
 819 660 l 2
 819 735 801 902 652 902 c 10
 390 902 l 18
 382 902 375 902 368 902 c 0
 212 902 114 934 114 1068 c 10
 114 1089 l 17
 114 1113 115 1140 118 1165 c 0
 125 1213 161 1219 176 1169 c 0
 189 1126 192 1125 246 1125 c 1
 606 1125 l 1
 775 1125 873 1000 873 902 c 2
 873 294 l 2
 873 217 845 175 819 133 c 10
EndSplineSet
Validated: 1
MultipleSubs2: "Addhairspacebeforeletter subtable" hairspace kaf
MultipleSubs2: "Addthinspacebeforeletter subtable" thinspace kaf
MultipleSubs2: "AddHairspaceAfterMark subtable" kaf hairspace
MultipleSubs2: "AddThinspaceAfterMark subtable" kaf thinspace
Substitution2: "jaltWideLetterAlternativesinHeb subtable" kaf.wide
EndChar

StartChar: lamed
Encoding: 167 1500 109
Width: 898
VWidth: 2248
GlyphClass: 2
Flags: W
HStem: 901 224<157.389 700.135>
VStem: 61 69<1153.71 1478.28> 164 87<1521.81 1607> 374 161<-26 100> 767 46<367.591 558.609>
AnchorPoint: "m2b10" -300 0 basechar 0
AnchorPoint: "m2b9" 580 0 basechar 0
AnchorPoint: "m2b8a" 430 0 basechar 0
AnchorPoint: "m2b8b" -130 0 basechar 0
AnchorPoint: "m2b8c" 736 0 basechar 0
AnchorPoint: "m2b7c" -195 0 basechar 0
AnchorPoint: "m2b7a" -108 0 basechar 0
AnchorPoint: "m2b5a" 400 0 basechar 0
AnchorPoint: "m2b5b" 736 0 basechar 0
AnchorPoint: "m2bv2r" 430 0 basechar 0
AnchorPoint: "VbWM" 410 0 basechar 0
AnchorPoint: "VbNM" 350 0 basechar 0
AnchorPoint: "m2b4a" 430 0 basechar 0
AnchorPoint: "m2b4b" 430 0 basechar 0
AnchorPoint: "m2b4c" 430 0 basechar 0
AnchorPoint: "m2b4d" 430 0 basechar 0
AnchorPoint: "m2b1" 430 0 basechar 0
LayerCount: 2
Fore
SplineSet
61 1417 m 17
 61 1498 164 1487 164 1554 c 27
 164 1606 96 1588 96 1668 c 3
 96 1715 149 1769 164 1769 c 3
 186 1769 180 1739 190 1720 c 24
 214 1673 251 1652 251 1599 c 27
 251 1514 130 1495 130 1418 c 9
 130 1289 l 17
 130 1210 159 1125 212 1125 c 10
 597 1125 l 18
 744 1125 777 1072 786 962 c 9
 811 460 l 18
 812 448 813 437 813 426 c 0
 813 396 804 372 763 334 c 9
 561 165 l 17
 543 145 535 122 535 100 c 1
 535 74 520 66 504 52 c 10
 392 -41 l 18
 383 -49 374 -40 374 -26 c 0
 374 17 383 63 430 104 c 10
 738 361 l 18
 759 380 767 387 767 403 c 0
 767 415 761 428 757 459 c 10
 710 834 l 17
 694 889 662 901 581 901 c 10
 213 901 l 18
 150 901 67 946 67 1065 c 9
 61 1417 l 17
EndSplineSet
Validated: 1
MultipleSubs2: "Addhairspacebeforeletter subtable" hairspace lamed
MultipleSubs2: "Addthinspacebeforeletter subtable" thinspace lamed
MultipleSubs2: "AddHairspaceAfterMark subtable" lamed hairspace
MultipleSubs2: "AddThinspaceAfterMark subtable" lamed thinspace
Substitution2: "jaltWideLetterAlternativesinHeb subtable" lamed.wide
EndChar

StartChar: finalmem
Encoding: 168 1501 110
Width: 1126
VWidth: 2248
GlyphClass: 2
Flags: W
HStem: 0 228<235.316 949.974> 901 224<282.96 888.89>
VStem: 132 100<228.07 758.914> 950 56<228.126 839.845>
AnchorPoint: "m2b9" 710 0 basechar 0
AnchorPoint: "m2b8a" 559 0 basechar 0
AnchorPoint: "m2b8b" 175 0 basechar 0
AnchorPoint: "m2b8c" 900 0 basechar 0
AnchorPoint: "m2b7b" 196 0 basechar 0
AnchorPoint: "m2b7a" 96 0 basechar 0
AnchorPoint: "m2b5a" 565 0 basechar 0
AnchorPoint: "m2b5b" 958 0 basechar 0
AnchorPoint: "m2bv2r" 565 0 basechar 0
AnchorPoint: "m2b4a" 565 0 basechar 0
AnchorPoint: "m2b4b" 565 0 basechar 0
AnchorPoint: "m2b4c" 565 0 basechar 0
AnchorPoint: "m2b4d" 565 0 basechar 0
AnchorPoint: "m2b2" 565 0 basechar 0
AnchorPoint: "m2b1" 565 0 basechar 0
LayerCount: 2
Fore
SplineSet
421 901 m 1
 355 901 322 901 314 901 c 0
 283 901 232 708 232 553 c 1
 232 292 l 2
 232 283 235 276 235 269 c 0
 235 231 242 228 285 228 c 0
 292 228 299 228 307 228 c 2
 914 228 l 2
 945 228 950 232 950 265 c 2
 950 734 l 2
 950 810 921 901 791 901 c 1
 421 901 l 1
132 165 m 9
 132 557 l 17
 132 659 182 820 257 901 c 1
 179 919 146 976 146 1068 c 10
 146 1090 l 17
 146 1114 147 1141 150 1166 c 0
 157 1214 194 1220 209 1170 c 0
 222 1127 224 1125 278 1125 c 1
 727 1125 l 1
 896 1125 1006 999 1006 901 c 10
 1006 165 l 18
 1006 0 1004 0 883 0 c 10
 266 0 l 18
 149 0 118 0 118 90 c 0
 118 110 132 134 132 165 c 9
EndSplineSet
Validated: 1
MultipleSubs2: "Addhairspacebeforeletter subtable" hairspace finalmem
MultipleSubs2: "Addthinspacebeforeletter subtable" thinspace finalmem
MultipleSubs2: "AddHairspaceAfterMark subtable" finalmem hairspace
MultipleSubs2: "AddThinspaceAfterMark subtable" finalmem thinspace
Substitution2: "jaltWideLetterAlternativesinHeb subtable" finalmem.wide
EndChar

StartChar: mem
Encoding: 169 1502 111
Width: 1096
VWidth: 2248
GlyphClass: 2
Flags: W
HStem: 0 228<362.75 922.356> 901 27<502.842 529.661>
VStem: 114 98<195.968 564.311> 144 95<94.0392 378.532> 149 313<929.126 1054.76> 983 54<241.435 535.744>
AnchorPoint: "m2b10" -300 0 basechar 0
AnchorPoint: "m2b9" 680 0 basechar 0
AnchorPoint: "m2b8a" 526 0 basechar 0
AnchorPoint: "m2b8b" 210 0 basechar 0
AnchorPoint: "m2b8c" 900 0 basechar 0
AnchorPoint: "m2b7c" -195 0 basechar 0
AnchorPoint: "m2b7b" 257 0 basechar 0
AnchorPoint: "m2b7a" 157 0 basechar 0
AnchorPoint: "m2b5a" 526 0 basechar 0
AnchorPoint: "m2b5b" 841 0 basechar 0
AnchorPoint: "m2bv2r" 526 0 basechar 0
AnchorPoint: "VbWM" 560 0 basechar 0
AnchorPoint: "VbNM" 480 0 basechar 0
AnchorPoint: "m2b4a" 526 0 basechar 0
AnchorPoint: "m2b4b" 526 0 basechar 0
AnchorPoint: "m2b4c" 526 0 basechar 0
AnchorPoint: "m2b4d" 526 0 basechar 0
AnchorPoint: "m2b1" 526 0 basechar 0
LayerCount: 2
Fore
SplineSet
530 942 m 1xcc
 611 1103 l 1
 625 1145 665 1158 687 1158 c 0
 697 1158 711 1154 752 1125 c 1
 1005 956 1037 626 1037 350 c 0
 1037 291 1013 227 1000 194 c 1
 952 98 l 1
 902 0 902 0 796 0 c 10
 329 0 l 18
 275 0 251 0 251 14 c 0
 251 26 269 46 297 89 c 10
 333 144 l 17
 383 220 407 229 469 229 c 0
 488 229 510 228 537 228 c 10
 899 228 l 18
 978 228 983 267 983 314 c 27
 983 590 863 901 587 901 c 27
 350 901 212 660 212 423 c 27xe4
 212 342 239 298 239 217 c 27xd4
 239 129 182 93 149 11 c 16xcc
 145 1 133 -4 124 -4 c 0
 117 -4 114 -3 114 4 c 0xe4
 114 26 144 103 144 168 c 27xd4
 144 236 114 273 114 341 c 16xe4
 114 496 186 668 285 785 c 0
 296 799 318 810 318 829 c 1
 289 853 149 895 149 1020 c 0xcc
 149 1077 204 1213 237 1213 c 2
 239 1213 l 1xd4
 255 1209 246 1165 273 1138 c 0
 327 1085 477 1046 477 1001 c 0
 477 1000 477 999 477 998 c 0
 470 960 462 942 462 934 c 0
 462 929 466 928 477 928 c 0
 482 928 489 928 499 928 c 3
 504 928 527 934 530 942 c 1xcc
EndSplineSet
Validated: 1
MultipleSubs2: "Addhairspacebeforeletter subtable" hairspace mem
MultipleSubs2: "Addthinspacebeforeletter subtable" thinspace mem
MultipleSubs2: "AddHairspaceAfterMark subtable" mem hairspace
MultipleSubs2: "AddThinspaceAfterMark subtable" mem thinspace
EndChar

StartChar: finalnun
Encoding: 170 1503 112
Width: 544
VWidth: 2248
GlyphClass: 2
Flags: W
HStem: 890 235<138.083 348.001>
VStem: 72 376<936.384 1087.2> 227 112<-494.741 43.9458> 230 93<-353.375 663.945>
AnchorPoint: "m2b9" 415 0 basechar 0
AnchorPoint: "m2b8a" 260 0 basechar 0
AnchorPoint: "m2b8b" 91 0 basechar 0
AnchorPoint: "m2b8c" 400 0 basechar 0
AnchorPoint: "m2b7b" 124 0 basechar 0
AnchorPoint: "m2b7a" 24 0 basechar 0
AnchorPoint: "m2bmback" -15 0 basechar 0
AnchorPoint: "m2b5a" -15 0 basechar 0
AnchorPoint: "m2b5b" 442 0 basechar 0
AnchorPoint: "m2bvback" -35 0 basechar 0
AnchorPoint: "m2b4a" -8 0 basechar 0
AnchorPoint: "m2b4b" -35 0 basechar 0
AnchorPoint: "m2b4c" -128 0 basechar 0
AnchorPoint: "m2b4d" -238 0 basechar 0
AnchorPoint: "m2b2" 100 0 basechar 0
AnchorPoint: "m2b1" 260 0 basechar 0
LayerCount: 2
Fore
SplineSet
343 890 m 0x90
 181 890 72 904 72 1046 c 10
 72 1089 l 17
 72 1113 74 1140 77 1165 c 0
 84 1213 120 1219 135 1169 c 0
 148 1126 150 1125 204 1125 c 0
 408 1125 448 1085 448 962 c 0xc0
 448 827 328 664 328 573 c 0
 328 456 323 246 323 52 c 0x90
 323 -120 327 -281 339 -357 c 1
 339 -500 255 -521 250 -521 c 0
 237 -521 227 -505 227 -458 c 0xa0
 227 -335 230 349 230 498 c 0
 230 539 289 731 348 849 c 1
 353 865 368 890 343 890 c 0x90
EndSplineSet
Validated: 1
MultipleSubs2: "Addhairspacebeforeletter subtable" hairspace finalnun
MultipleSubs2: "Addthinspacebeforeletter subtable" thinspace finalnun
MultipleSubs2: "AddHairspaceAfterMark subtable" finalnun hairspace
MultipleSubs2: "AddThinspaceAfterMark subtable" finalnun thinspace
EndChar

StartChar: nun
Encoding: 171 1504 113
Width: 601
VWidth: 2248
GlyphClass: 2
Flags: W
HStem: 0 228<123.156 413.756>
VStem: 438 43<585.539 784.271> 454 85<230.641 633.932>
AnchorPoint: "m2b10" -300 0 basechar 0
AnchorPoint: "m2b9" 470 0 basechar 0
AnchorPoint: "m2b8a" 325 0 basechar 0
AnchorPoint: "m2b8b" 180 0 basechar 0
AnchorPoint: "m2b8c" 468 0 basechar 0
AnchorPoint: "m2b7d" -26 0 basechar 0
AnchorPoint: "m2b7c" -195 0 basechar 0
AnchorPoint: "m2b7b" 214 0 basechar 0
AnchorPoint: "m2b7a" 114 0 basechar 0
AnchorPoint: "m2b5a" 265 0 basechar 0
AnchorPoint: "m2b5b" 394 0 basechar 0
AnchorPoint: "m2bv2left" 265 0 basechar 0
AnchorPoint: "m2bv2r" 265 0 basechar 0
AnchorPoint: "VbWM" 260 0 basechar 0
AnchorPoint: "VbNM" 200 0 basechar 0
AnchorPoint: "m2b4a" 265 0 basechar 0
AnchorPoint: "m2b4b" 265 0 basechar 0
AnchorPoint: "m2b4c" 265 0 basechar 0
AnchorPoint: "m2b4d" 265 0 basechar 0
AnchorPoint: "m2b1" 325 0 basechar 0
LayerCount: 2
Fore
SplineSet
446 462 m 19xa0
 446 521 438 574 438 621 c 0
 438 657 434 750 427 786 c 0
 424 801 393 811 360 823 c 1
 307 846 151 853 151 1023 c 3
 151 1103 163 1207 194 1207 c 0
 212 1207 208 1149 242 1129 c 0
 287 1104 327 1104 370 1090 c 0
 424 1072 481 1007 481 948 c 0xc0
 481 786 494 596 535 352 c 1
 535 333 539 316 539 300 c 0xa0
 539 289 537 278 532 267 c 10
 438 88 l 18xc0
 393 0 393 0 266 0 c 10
 149 0 l 18
 75 0 42 0 42 27 c 0
 42 48 64 87 101 156 c 1
 148 226 168 228 287 228 c 0
 293 228 300 228 307 228 c 9
 412 228 l 18
 450 228 454 229 454 276 c 0
 454 285 446 389 446 462 c 19xa0
EndSplineSet
Validated: 1
MultipleSubs2: "Addhairspacebeforeletter subtable" hairspace nun
MultipleSubs2: "Addthinspacebeforeletter subtable" thinspace nun
MultipleSubs2: "AddHairspaceAfterMark subtable" nun hairspace
MultipleSubs2: "AddThinspaceAfterMark subtable" nun thinspace
EndChar

StartChar: samekh
Encoding: 172 1505 114
Width: 1053
VWidth: 2248
GlyphClass: 2
Flags: W
HStem: 0 228<248.197 838.863> 902 223<293.795 819.854>
VStem: 123 106<248.383 731.426> 901 69<273.444 822.277>
AnchorPoint: "m2b10" -300 0 basechar 0
AnchorPoint: "m2b9" 720 7 basechar 0
AnchorPoint: "m2b8a" 566 0 basechar 0
AnchorPoint: "m2b8b" 184 0 basechar 0
AnchorPoint: "m2b8c" 800 7 basechar 0
AnchorPoint: "m2b7c" -195 0 basechar 0
AnchorPoint: "m2b7b" 207 0 basechar 0
AnchorPoint: "m2b7a" 107 0 basechar 0
AnchorPoint: "m2b5a" 566 0 basechar 0
AnchorPoint: "m2b5b" 843 0 basechar 0
AnchorPoint: "m2bv2r" 566 0 basechar 0
AnchorPoint: "VbWM" 530 0 basechar 0
AnchorPoint: "VbNM" 470 0 basechar 0
AnchorPoint: "m2b4a" 566 0 basechar 0
AnchorPoint: "m2b4b" 566 0 basechar 0
AnchorPoint: "m2b4c" 566 0 basechar 0
AnchorPoint: "m2b4d" 566 0 basechar 0
AnchorPoint: "m2b1" 566 0 basechar 0
LayerCount: 2
Fore
SplineSet
385 902 m 1
 253 902 229 713 229 555 c 1
 229 342 l 1
 229 274 262 228 349 228 c 2
 790 228 l 2
 853 228 901 310 901 345 c 2
 901 657 l 1
 901 733 879 902 749 902 c 1
 385 902 l 1
672 0 m 2
 402 0 l 1
 240 0 123 126 123 285 c 1
 123 557 l 1
 123 659 196 821 271 902 c 1
 193 920 155 977 155 1069 c 10
 155 1090 l 17
 155 1114 156 1141 159 1166 c 0
 166 1214 203 1220 218 1170 c 0
 231 1127 233 1125 287 1125 c 2
 685 1125 l 2
 854 1125 970 938 970 840 c 1
 970 336 l 1
 970 255 938 185 892 108 c 1
 831 3 748 0 672 0 c 2
EndSplineSet
Validated: 1
MultipleSubs2: "Addhairspacebeforeletter subtable" hairspace samekh
MultipleSubs2: "Addthinspacebeforeletter subtable" thinspace samekh
MultipleSubs2: "AddHairspaceAfterMark subtable" samekh hairspace
MultipleSubs2: "AddThinspaceAfterMark subtable" samekh thinspace
EndChar

StartChar: ayin
Encoding: 173 1506 115
Width: 1001
VWidth: 2248
GlyphClass: 2
Flags: W
VStem: 96 357<883.206 1006.37> 216 62<506.062 755.059> 398 60<73.0059 198.406>
AnchorPoint: "m2b10" -300 0 basechar 0
AnchorPoint: "m2b9" 655 0 basechar 0
AnchorPoint: "m2b8a" 500 0 basechar 0
AnchorPoint: "m2b8b" 180 0 basechar 0
AnchorPoint: "m2b8c" 870 0 basechar 0
AnchorPoint: "m2b7c" -195 0 basechar 0
AnchorPoint: "m2b7b" 206 0 basechar 0
AnchorPoint: "m2b7a" 106 0 basechar 0
AnchorPoint: "m2b5a" 800 0 basechar 0
AnchorPoint: "m2b5b" 887 0 basechar 0
AnchorPoint: "m2bv2r" 809 0 basechar 0
AnchorPoint: "HbWM" 760 0 basechar 0
AnchorPoint: "HbNM" 700 0 basechar 0
AnchorPoint: "VbWM" 760 0 basechar 0
AnchorPoint: "VbNM" 700 0 basechar 0
AnchorPoint: "m2bpg" 1000 0 basechar 0
AnchorPoint: "m2b4a" 809 0 basechar 0
AnchorPoint: "m2b4b" 809 0 basechar 0
AnchorPoint: "m2b4c" 866 0 basechar 0
AnchorPoint: "m2b4d" 976 0 basechar 0
AnchorPoint: "m2b2" 528 -82 basechar 0
AnchorPoint: "m2b1" 505 0 basechar 0
LayerCount: 2
Fore
SplineSet
278 616 m 3x40
 278 447 458 399 458 96 c 0
 458 81 466 73 481 73 c 3
 494 73 512 80 534 98 c 1
 770 274 705 351 773 581 c 1
 784 609 812 727 812 742 c 1
 812 756 726 804 712 814 c 1
 678 838 649 868 622 900 c 1
 612 914 600 949 600 971 c 0
 600 1006 619 1040 640 1073 c 10
 712 1189 l 17
 723 1204 734 1211 744 1211 c 0
 756 1211 765 1199 765 1183 c 0
 765 1168 759 1148 759 1133 c 0
 759 1123 760 1114 767 1109 c 10
 880 1014 l 17
 920 977 940 944 940 908 c 1
 940 863 931 851 879 740 c 0
 846 670 802 477 777 356 c 1
 765 298 761 289 761 240 c 2
 761 152 l 2
 761 25 759 25 653 -58 c 9
 297 -324 l 18
 219 -382 175 -414 150 -414 c 0
 122 -414 120 -401 120 -318 c 0
 120 -308 120 -297 120 -284 c 2
 120 -276 l 2
 120 -210 137 -205 248 -119 c 9
 345 -42 l 17
 387 -11 398 4 398 30 c 0
 398 276 216 455 216 577 c 2
 216 593 l 2x60
 216 629 228 712 264 807 c 1
 235 831 96 860 96 985 c 0x80
 96 1042 153 1211 186 1211 c 2
 188 1211 l 1
 204 1207 189 1150 216 1123 c 0x40
 271 1069 453 1031 453 923 c 0x80
 453 913 450 902 448 891 c 2
 433 792 l 17
 423 761 418 747 405 747 c 0
 392 747 345 781 302 792 c 1
 278 745 278 643 278 616 c 3x40
EndSplineSet
Validated: 1
MultipleSubs2: "Addhairspacebeforeletter subtable" hairspace ayin
MultipleSubs2: "Addthinspacebeforeletter subtable" thinspace ayin
MultipleSubs2: "AddHairspaceAfterMark subtable" ayin hairspace
MultipleSubs2: "AddThinspaceAfterMark subtable" ayin thinspace
Substitution2: "saltStylisticAlternativesinHebr subtable" ayin.alt
EndChar

StartChar: finalpe
Encoding: 174 1507 116
Width: 1058
VWidth: 2248
GlyphClass: 2
Flags: W
HStem: 439 200<230.968 475.163> 901 224<208.699 264 327.653 814.271>
VStem: 124 106<527 748.878> 881 112<-589.035 -3.21301> 890 47<522.675 791.815>
AnchorPoint: "m2b9" 660 0 basechar 0
AnchorPoint: "m2b8a" 513 0 basechar 0
AnchorPoint: "m2b8b" 155 0 basechar 0
AnchorPoint: "m2b8c" 850 0 basechar 0
AnchorPoint: "m2b7b" 197 0 basechar 0
AnchorPoint: "m2b7a" 97 0 basechar 0
AnchorPoint: "m2bmback" 543 0 basechar 0
AnchorPoint: "m2b5a" 543 0 basechar 0
AnchorPoint: "m2b5b" 1035 0 basechar 0
AnchorPoint: "m2bvback" 543 0 basechar 0
AnchorPoint: "m2b4a" 543 0 basechar 0
AnchorPoint: "m2b4b" 543 0 basechar 0
AnchorPoint: "m2b4c" 512 0 basechar 0
AnchorPoint: "m2b4d" 412 0 basechar 0
AnchorPoint: "m2b3" 513 0 basechar 0
AnchorPoint: "m2b1" 513 0 basechar 0
LayerCount: 2
Fore
SplineSet
937 896 m 1xe8
 937 634 970 -302 993 -451 c 1
 993 -594 909 -616 904 -616 c 0
 891 -616 881 -599 881 -552 c 0xf0
 881 -443 890 385 890 656 c 1
 890 731 872 901 723 901 c 2
 421 901 l 18
 391 901 377 901 361 901 c 0
 351 901 341 899 327 901 c 1
 315 891 230 781 230 697 c 0
 230 690 231 683 232 677 c 0
 234 664 239 639 253 639 c 2
 393 639 l 18
 448 639 477 636 477 573 c 9
 480 558 l 18
 482 544 483 532 483 521 c 0
 483 465 455 439 411 439 c 9
 209 439 l 17
 182 417 158 369 133 321 c 0
 128 311 98 303 98 332 c 1
 98 369 144 414 180 456 c 1
 146 487 124 506 124 548 c 3
 124 756 257 887 264 901 c 1
 154 901 145 963 145 1028 c 0
 145 1041 145 1054 145 1067 c 10
 145 1089 l 17
 145 1158 152 1204 177 1204 c 0
 189 1204 199 1193 207 1169 c 0
 220 1126 223 1125 277 1125 c 10
 657 1125 l 18
 826 1125 937 994 937 896 c 1xe8
EndSplineSet
Validated: 1
MultipleSubs2: "Addhairspacebeforeletter subtable" hairspace finalpe
MultipleSubs2: "Addthinspacebeforeletter subtable" thinspace finalpe
MultipleSubs2: "AddHairspaceAfterMark subtable" finalpe hairspace
MultipleSubs2: "AddThinspaceAfterMark subtable" finalpe thinspace
EndChar

StartChar: pe
Encoding: 175 1508 117
Width: 968
VWidth: 2248
GlyphClass: 2
Flags: W
HStem: 0 228<159.075 798.719> 447 201<245.004 481.132> 902 223<215.12 274 294.418 712.667>
VStem: 130 115<528 749.391> 825 84<232.137 694.031>
AnchorPoint: "m2b10" -300 0 basechar 0
AnchorPoint: "m2b9" 620 0 basechar 0
AnchorPoint: "m2b8a" 464 0 basechar 0
AnchorPoint: "m2b8b" 153 0 basechar 0
AnchorPoint: "m2b8c" 700 0 basechar 0
AnchorPoint: "m2b7c" -195 0 basechar 0
AnchorPoint: "m2b7b" 202 0 basechar 0
AnchorPoint: "m2b7a" 102 0 basechar 0
AnchorPoint: "m2b5a" 491 0 basechar 0
AnchorPoint: "m2b5b" 729 0 basechar 0
AnchorPoint: "m2bv2r" 491 0 basechar 0
AnchorPoint: "VbWM" 460 0 basechar 0
AnchorPoint: "VbNM" 400 0 basechar 0
AnchorPoint: "m2b4a" 462 0 basechar 0
AnchorPoint: "m2b4b" 491 0 basechar 0
AnchorPoint: "m2b4c" 491 0 basechar 0
AnchorPoint: "m2b4d" 491 0 basechar 0
AnchorPoint: "m2b3" 464 0 basechar 0
AnchorPoint: "m2b1" 464 0 basechar 0
LayerCount: 2
Fore
SplineSet
490 567 m 0
 490 485 474 447 421 447 c 10
 219 447 l 17
 192 425 166 378 143 329 c 0
 138 317 108 311 108 340 c 0
 108 377 154 422 190 464 c 1
 156 495 130 508 130 548 c 3
 130 762 267 888 274 902 c 1
 200 902 150 979 150 1057 c 10
 150 1089 l 18
 150 1158 157 1204 182 1204 c 0
 194 1204 205 1193 213 1169 c 0
 226 1126 228 1125 282 1125 c 10
 591 1125 l 18
 700 1125 839 995 847 902 c 1
 907 297 l 2
 908 292 909 288 909 282 c 0
 909 264 900 233 851 136 c 10
 828 90 l 17
 782 1 748 0 648 0 c 2
 143 0 l 2
 94 0 70 1 70 19 c 0
 70 31 89 51 108 89 c 10
 130 136 l 17
 183 228 184 228 301 228 c 2
 742 228 l 2
 807 228 825 237 825 281 c 2
 825 314 l 1
 814 676 l 1
 814 757 808 902 661 902 c 2
 431 902 l 17
 327 902 l 1
 314 891 248 810 245 671 c 0
 245 658 250 648 264 648 c 2
 404 648 l 18
 459 648 490 630 490 567 c 0
EndSplineSet
Validated: 1
MultipleSubs2: "Addhairspacebeforeletter subtable" hairspace pe
MultipleSubs2: "Addthinspacebeforeletter subtable" thinspace pe
MultipleSubs2: "AddHairspaceAfterMark subtable" pe hairspace
MultipleSubs2: "AddThinspaceAfterMark subtable" pe thinspace
EndChar

StartChar: finaltsadi
Encoding: 176 1509 118
Width: 898
VWidth: 2248
GlyphClass: 2
Flags: W
VStem: 170 106<-500.25 297.703 355.014 612.002> 281 134<754 979> 520 305<889 1017.58>
AnchorPoint: "m2b9" 600 0 basechar 0
AnchorPoint: "m2b8a" 451 0 basechar 0
AnchorPoint: "m2b8b" 170 0 basechar 0
AnchorPoint: "m2b8c" 710 0 basechar 0
AnchorPoint: "m2b7b" 219 0 basechar 0
AnchorPoint: "m2b7a" 119 0 basechar 0
AnchorPoint: "m2b5a" 548 0 basechar 0
AnchorPoint: "m2b5b" 747 0 basechar 0
AnchorPoint: "m2bvback" 548 0 basechar 0
AnchorPoint: "m2bv2r" 548 0 basechar 0
AnchorPoint: "VbWM" 770 0 basechar 0
AnchorPoint: "VbNM" 710 0 basechar 0
AnchorPoint: "m2b4a" 548 0 basechar 0
AnchorPoint: "m2b4b" 548 0 basechar 0
AnchorPoint: "m2b4c" 627 0 basechar 0
AnchorPoint: "m2b4d" 717 0 basechar 0
AnchorPoint: "m2b2" 27 0 basechar 0
AnchorPoint: "m2b1" 451 0 basechar 0
LayerCount: 2
Fore
SplineSet
281 770 m 0
 281 834 107 853 107 981 c 0
 107 1031 161 1204 199 1204 c 1
 215 1200 198 1143 225 1116 c 0
 280 1062 415 1033 415 925 c 0
 415 862 276 664 276 581 c 2
 276 409 l 2
 276 374 277 355 285 355 c 3
 293 355 311 376 341 426 c 10
 576 813 l 17
 605 855 607 855 583 874 c 0
 541 906 520 919 520 986 c 0
 520 1036 578 1213 616 1213 c 1
 632 1209 615 1152 642 1125 c 1
 692 1049 825 1038 825 936 c 0
 825 926 823 915 819 904 c 2
 787 808 l 18
 779 782 767 773 753 773 c 0
 720 773 678 823 654 823 c 0
 643 823 632 814 612 783 c 10
 312 290 l 17
 276 242 276 244 276 159 c 2
 276 45 l 2
 276 -156 281 -277 281 -357 c 0
 281 -500 200 -521 195 -521 c 0
 175 -521 170 -515 170 -373 c 0
 170 -238 170 13 170 496 c 0
 170 545 281 738 281 770 c 0
EndSplineSet
Validated: 1
MultipleSubs2: "Addhairspacebeforeletter subtable" hairspace finaltsadi
MultipleSubs2: "Addthinspacebeforeletter subtable" thinspace finaltsadi
MultipleSubs2: "AddHairspaceAfterMark subtable" finaltsadi hairspace
MultipleSubs2: "AddThinspaceAfterMark subtable" finaltsadi thinspace
EndChar

StartChar: tsadi
Encoding: 177 1510 119
Width: 1016
VWidth: 2248
GlyphClass: 2
Flags: W
HStem: 0 228<177.088 668.996> 886 242<653.478 880.442> 1203 20G<109.5 134>
VStem: 82 365<940.378 1075.37> 405 37<615.421 856.641> 570 29<553.813 713.68> 618 35<1132.17 1214.37> 669 236<134.5 287.151>
AnchorPoint: "m2b10" -300 0 basechar 0
AnchorPoint: "m2b9" 630 0 basechar 0
AnchorPoint: "m2b8a" 480 0 basechar 0
AnchorPoint: "m2b8b" 110 0 basechar 0
AnchorPoint: "m2b8c" 790 0 basechar 0
AnchorPoint: "m2b7c" -195 0 basechar 0
AnchorPoint: "m2b7b" 145 0 basechar 0
AnchorPoint: "m2b7a" 45 0 basechar 0
AnchorPoint: "m2b5a" 484 0 basechar 0
AnchorPoint: "m2b5b" 776 0 basechar 0
AnchorPoint: "m2bv2r" 484 0 basechar 0
AnchorPoint: "VbWM" 480 0 basechar 0
AnchorPoint: "VbNM" 420 0 basechar 0
AnchorPoint: "m2b4a" 484 0 basechar 0
AnchorPoint: "m2b4b" 484 0 basechar 0
AnchorPoint: "m2b4c" 484 0 basechar 0
AnchorPoint: "m2b4d" 484 0 basechar 0
AnchorPoint: "m2b1" 484 0 basechar 0
LayerCount: 2
Fore
SplineSet
891 925 m 0xef
 891 906 858 886 840 886 c 2
 677 886 l 2
 640 886 634 883 627 822 c 10
 601 630 l 17
 601 601 599 580 599 564 c 0
 599 506 611 509 657 464 c 1
 765 373 905 294 905 178 c 1
 905 91 836 0 773 0 c 10
 215 0 l 18
 139 0 110 1 110 26 c 0
 110 41 121 66 140 106 c 9
 186 203 l 17
 198 228 211 228 405 228 c 9xef
 561 228 l 18
 664 228 669 229 669 267 c 0
 669 297 510 428 447 488 c 0xf7
 415 519 408 525 408 600 c 0
 408 605 405 612 405 617 c 10
 405 804 l 17xef
 405 869 347 891 284 891 c 1
 284 891 280 891 275 891 c 0
 233 891 82 915 82 1028 c 3
 82 1108 94 1223 125 1223 c 0
 143 1223 144 1170 178 1150 c 0
 223 1125 290 1133 334 1121 c 0
 400 1103 447 1027 447 968 c 0xf7
 447 882 442 823 442 768 c 0
 442 720 446 675 460 617 c 0
 462 606 477 590 490 581 c 0
 517 561 535 548 545 548 c 0
 561 548 570 576 570 652 c 1
 598 842 618 1013 618 1179 c 1
 618 1221 634 1224 653 1203 c 1
 653 1128 656 1128 719 1128 c 9
 765 1128 l 1
 878 1128 887 1088 887 1041 c 1
 887 1041 891 965 891 925 c 0xef
EndSplineSet
Validated: 1
MultipleSubs2: "Addhairspacebeforeletter subtable" hairspace tsadi
MultipleSubs2: "Addthinspacebeforeletter subtable" thinspace tsadi
MultipleSubs2: "AddHairspaceAfterMark subtable" tsadi hairspace
MultipleSubs2: "AddThinspaceAfterMark subtable" tsadi thinspace
EndChar

StartChar: qof
Encoding: 178 1511 120
Width: 951
VWidth: 2248
GlyphClass: 2
Flags: W
HStem: 902 226<147.23 723.141>
VStem: 123 90<-46.5273 628.362> 129 131<-497.078 -9.43085> 392 46<-31.4347 18.5476> 849 42<285.758 595.177>
AnchorPoint: "m2b10" -300 0 basechar 0
AnchorPoint: "m2b9" 610 0 basechar 0
AnchorPoint: "m2b8a" 450 0 basechar 0
AnchorPoint: "m2b8b" 105 0 basechar 0
AnchorPoint: "m2b8c" 755 0 basechar 0
AnchorPoint: "m2b7c" -195 0 basechar 0
AnchorPoint: "m2b7b" 135 0 basechar 0
AnchorPoint: "m2b7a" 35 0 basechar 0
AnchorPoint: "m2bmback" 580 0 basechar 0
AnchorPoint: "m2b5a" 580 0 basechar 0
AnchorPoint: "m2b5b" 803 0 basechar 0
AnchorPoint: "m2bvback" 580 0 basechar 0
AnchorPoint: "m2bv2r" 580 0 basechar 0
AnchorPoint: "VbWM" 700 0 basechar 0
AnchorPoint: "VbNM" 550 0 basechar 0
AnchorPoint: "m2b4a" 580 0 basechar 0
AnchorPoint: "m2b4b" 580 0 basechar 0
AnchorPoint: "m2b4c" 580 0 basechar 0
AnchorPoint: "m2b4d" 690 0 basechar 0
AnchorPoint: "m2b1" 500 0 basechar 0
LayerCount: 2
Fore
SplineSet
134 482 m 1xd8
 152 584 193 726 204 726 c 0
 211 726 213 715 213 693 c 0xd8
 213 643 200 533 200 379 c 0
 200 222 208 -99 260 -334 c 1
 260 -367 l 2
 260 -447 255 -451 208 -507 c 0
 187 -531 173 -545 162 -545 c 0
 147 -545 129 -519 129 -469 c 2
 129 -381 l 2xb8
 129 -182 123 120 123 277 c 0
 123 352 125 421 134 482 c 1xd8
82 1067 m 0
 82 1136 90 1204 115 1204 c 0
 127 1204 137 1193 145 1169 c 0
 157 1128 161 1128 208 1128 c 2
 656 1128 l 2
 775 1128 784 1060 807 981 c 24
 880 731 891 580 891 320 c 3
 891 285 861 225 814 191 c 24
 680 94 537 146 438 -8 c 0
 420 -35 406 -36 402 -36 c 0
 384 -36 390 -4 392 5 c 0
 421 103 441 143 551 180 c 0
 663 217 661 214 732 235 c 16
 844 270 849 287 849 417 c 0
 849 534 821 653 772 770 c 0
 751 821 734 902 584 902 c 10
 355 902 l 18
 336 902 318 902 300 902 c 0
 164 902 82 910 82 1067 c 0
EndSplineSet
Validated: 1
MultipleSubs2: "Addhairspacebeforeletter subtable" hairspace qof
MultipleSubs2: "Addthinspacebeforeletter subtable" thinspace qof
MultipleSubs2: "AddHairspaceAfterMark subtable" qof hairspace
MultipleSubs2: "AddThinspaceAfterMark subtable" qof thinspace
EndChar

StartChar: resh
Encoding: 179 1512 121
Width: 1089
VWidth: 2248
GlyphClass: 2
Flags: W
HStem: 901 224<138.79 768.923>
VStem: 828 70<3.51639 812.788>
AnchorPoint: "m2b10" -300 0 basechar 0
AnchorPoint: "m2b9" 610 0 basechar 0
AnchorPoint: "m2b8a" 454 0 basechar 0
AnchorPoint: "m2b8b" 80 0 basechar 0
AnchorPoint: "m2b8c" 850 0 basechar 0
AnchorPoint: "m2b7c" -195 0 basechar 0
AnchorPoint: "m2b7b" 126 0 basechar 0
AnchorPoint: "m2b7a" 26 0 basechar 0
AnchorPoint: "m2b5a" 837 0 basechar 0
AnchorPoint: "m2b5b" 940 0 basechar 0
AnchorPoint: "m2bv2left" 859 0 basechar 0
AnchorPoint: "m2b4a" 848 0 basechar 0
AnchorPoint: "m2b4b" 859 0 basechar 0
AnchorPoint: "m2b4c" 749 0 basechar 0
AnchorPoint: "m2b4d" 702 0 basechar 0
AnchorPoint: "m2b1" 454 0 basechar 0
LayerCount: 2
Fore
SplineSet
893 18 m 1
 859 -50 835 -38 835 31 c 1
 835 141 828 246 828 355 c 2
 828 656 l 2
 828 737 810 901 661 901 c 1
 350 901 l 1
 145 901 73 928 73 1068 c 10
 73 1090 l 17
 73 1114 75 1141 78 1166 c 0
 85 1214 121 1220 136 1170 c 0
 149 1127 151 1125 205 1125 c 2
 609 1125 l 2
 778 1125 898 1062 898 664 c 10
 898 90 l 18
 898 77 899 65 899 53 c 0
 899 42 897 30 893 18 c 1
EndSplineSet
Validated: 1
MultipleSubs2: "Addhairspacebeforeletter subtable" hairspace resh
MultipleSubs2: "Addthinspacebeforeletter subtable" thinspace resh
MultipleSubs2: "AddHairspaceAfterMark subtable" resh hairspace
MultipleSubs2: "AddThinspaceAfterMark subtable" resh thinspace
Substitution2: "jaltWideLetterAlternativesinHeb subtable" resh.wide
EndChar

StartChar: shin
Encoding: 180 1513 122
Width: 1340
VWidth: 2248
GlyphClass: 2
Flags: W
HStem: 0 228<341.719 413.422 460.996 845.784>
VStem: 139 70<490.771 678.982> 1061 50<1170 1191.06> 1138 149<715.5 907>
AnchorPoint: "m2b10" -300 0 basechar 0
AnchorPoint: "m2b9" 810 0 basechar 0
AnchorPoint: "m2b8a" 656 0 basechar 0
AnchorPoint: "m2b8b" 127 0 basechar 0
AnchorPoint: "m2b8c" 1150 0 basechar 0
AnchorPoint: "m2b7c" -195 0 basechar 0
AnchorPoint: "m2b7b" 225 0 basechar 0
AnchorPoint: "m2b7a" 125 0 basechar 0
AnchorPoint: "m2b5a" 520 0 basechar 0
AnchorPoint: "m2b5b" 969 0 basechar 0
AnchorPoint: "m2bv2r" 520 0 basechar 0
AnchorPoint: "VbWM" 510 0 basechar 0
AnchorPoint: "VbNM" 450 0 basechar 0
AnchorPoint: "m2b4a" 520 0 basechar 0
AnchorPoint: "m2b4b" 520 0 basechar 0
AnchorPoint: "m2b4c" 520 0 basechar 0
AnchorPoint: "m2b4d" 520 0 basechar 0
AnchorPoint: "m2b1" 656 0 basechar 0
LayerCount: 2
Fore
SplineSet
486 228 m 6
 846 228 l 6
 872 228 913 296 933 340 c 5
 1120 669 l 5
 1132 690 1138 708 1138 723 c 4
 1138 737 1133 750 1121 761 c 5
 995 905 l 22
 984 917 979 936 979 958 c 4
 979 993 992 1026 1012 1068 c 14
 1061 1170 l 21
 1071 1185 1082 1192 1092 1192 c 4
 1104 1192 1111 1181 1111 1165 c 4
 1111 1150 1106 1129 1106 1114 c 4
 1106 1104 1108 1095 1115 1090 c 14
 1228 996 l 21
 1268 959 1287 925 1287 889 c 4
 1287 859 1268 829 1246 788 c 6
 853 53 l 5
 812 1 813 0 770 0 c 6
 179 0 l 5
 179 30 201 61 201 92 c 4
 201 350 139 352 139 521 c 31
 139 651 201 733 256 834 c 13
 172 882 l 21
 147 898 124 924 124 957 c 4
 124 966 126 974 129 983 c 6
 175 1172 l 21
 183 1193 195 1202 205 1202 c 4
 218 1202 229 1189 229 1166 c 4
 229 1145 233 1116 249 1109 c 14
 366 1058 l 21
 424 1026 460 992 460 948 c 4
 460 911 434 832 397 763 c 5
 364 786 329 807 291 820 c 5
 264 763 209 662 209 603 c 4
 209 576 216 547 230 517 c 14
 360 233 l 21
 362 229 365 228 369 228 c 4
 381 228 398 243 409 264 c 13
 692 812 l 29
 592 895 l 21
 573 914 557 937 557 964 c 4
 557 976 559 988 566 1001 c 6
 628 1177 l 21
 639 1196 653 1202 662 1201 c 4
 676 1199 680 1186 680 1171 c 4
 690 1101 l 14
 803 1025 l 21
 849 988 878 952 878 914 c 4
 878 910 877 905 876 901 c 4
 867 865 847 793 799 732 c 5
 770 761 759 773 723 793 c 5
 461 267 l 6
 448 242 453 228 486 228 c 6
EndSplineSet
Validated: 1
MultipleSubs2: "Addhairspacebeforeletter subtable" hairspace shin
MultipleSubs2: "Addthinspacebeforeletter subtable" thinspace shin
MultipleSubs2: "AddHairspaceAfterMark subtable" shin hairspace
MultipleSubs2: "AddThinspaceAfterMark subtable" shin thinspace
EndChar

StartChar: tav
Encoding: 181 1514 123
Width: 1156
VWidth: 2248
GlyphClass: 2
Flags: W
HStem: 0 228<102.126 315.732> 901 224<188.36 264 305.731 917.923>
VStem: 215 59<520.129 837.147> 318 146<219 318.293> 977 70<3.51639 812.788>
AnchorPoint: "m2b10" -300 0 basechar 0
AnchorPoint: "m2b9" 710 0 basechar 0
AnchorPoint: "m2b8a" 556 0 basechar 0
AnchorPoint: "m2b8b" 138 0 basechar 0
AnchorPoint: "m2b8c" 965 0 basechar 0
AnchorPoint: "m2b7c" -195 0 basechar 0
AnchorPoint: "m2b7b" 176 0 basechar 0
AnchorPoint: "m2b7a" 76 0 basechar 0
AnchorPoint: "m2b5a" 682 0 basechar 0
AnchorPoint: "m2b5b" 995 0 basechar 0
AnchorPoint: "m2bv2r" 680 0 basechar 0
AnchorPoint: "VbWM" 630 0 basechar 0
AnchorPoint: "VbNM" 570 0 basechar 0
AnchorPoint: "m2b4a" 682 0 basechar 0
AnchorPoint: "m2b4b" 682 0 basechar 0
AnchorPoint: "m2b4c" 650 0 basechar 0
AnchorPoint: "m2b4d" 606 0 basechar 0
AnchorPoint: "m2b3" 556 0 basechar 0
AnchorPoint: "m2b1" 556 0 basechar 0
LayerCount: 2
Fore
SplineSet
318 244 m 0
 318 282 215 424 215 622 c 0
 215 691 232 821 264 901 c 1
 257 901 l 0
 221 901 125 905 125 989 c 10
 125 1090 l 18
 125 1114 126 1141 129 1166 c 0
 136 1214 172 1220 187 1170 c 0
 200 1127 202 1125 256 1125 c 2
 758 1125 l 2
 927 1125 1047 1062 1047 664 c 10
 1047 90 l 18
 1047 77 1048 65 1048 53 c 0
 1048 42 1046 30 1042 18 c 1
 1008 -50 984 -38 984 31 c 0
 984 141 977 246 977 355 c 2
 977 656 l 2
 977 737 959 901 810 901 c 1
 422 901 l 1
 326 901 l 1
 288 845 274 718 274 673 c 0
 274 436 464 307 464 228 c 0
 464 210 454 189 446 153 c 9
 429 83 l 17
 410 0 368 0 292 0 c 10
 128 0 l 17
 78 0 66 10 66 32 c 1
 66 42 68 48 78 94 c 0
 106 216 108 228 194 228 c 0
 208 228 223 228 237 228 c 0
 281 228 318 230 318 244 c 0
EndSplineSet
Validated: 1
MultipleSubs2: "Addhairspacebeforeletter subtable" hairspace tav
MultipleSubs2: "Addthinspacebeforeletter subtable" thinspace tav
MultipleSubs2: "AddHairspaceAfterMark subtable" tav hairspace
MultipleSubs2: "AddThinspaceAfterMark subtable" tav thinspace
Substitution2: "jaltWideLetterAlternativesinHeb subtable" tav.wide
EndChar

StartChar: geresh
Encoding: 185 1523 127
Width: 306
VWidth: 58
GlyphClass: 2
Flags: W
HStem: 798 498
VStem: 125 139<1041.57 1218>
LayerCount: 2
Fore
SplineSet
99 1096 m 1
 72 1124 48 1149 48 1188 c 0
 48 1248 96 1296 156 1296 c 0
 216 1296 264 1248 264 1188 c 0
 264 1170 262 1155 257 1137 c 1
 222 1017 150 890 94 798 c 1
 42 798 l 1
 72 865 125 942 125 1049 c 1
 125 1066 114 1080 99 1096 c 1
EndSplineSet
Validated: 1
EndChar

StartChar: zerononjoin
Encoding: 189 8204 131
Width: 0
GlyphClass: 2
Flags: MW
LayerCount: 2
Fore
SplineSet
-108 1894 m 1
 0 1786 l 1
 106 1893 l 1
 140 1860 l 1
 33 1753 l 1
 140 1646 l 1
 106 1613 l 1
 0 1719 l 1
 -108 1613 l 1
 -141 1646 l 1
 -34 1753 l 1
 -141 1860 l 1
 -108 1894 l 1
EndSplineSet
Validated: 1
EndChar

StartChar: zerojoin
Encoding: 190 8205 132
Width: 0
GlyphClass: 2
Flags: MW
LayerCount: 2
Fore
SplineSet
157 1637 m 1
 157 1730 l 1
 -156 1730 l 1
 -156 1637 l 1
 -203 1637 l 1
 -203 1777 l 1
 204 1777 l 1
 204 1637 l 1
 157 1637 l 1
EndSplineSet
Validated: 1
EndChar

StartChar: lrm
Encoding: 191 8206 133
Width: 0
GlyphClass: 2
Flags: MW
LayerCount: 2
Fore
SplineSet
21 1860 m 1
 54 1894 l 1
 195 1753 l 1
 54 1612 l 1
 21 1646 l 1
 105 1730 l 1
 -154 1730 l 1
 -154 1777 l 1
 104 1777 l 1
 21 1860 l 1
EndSplineSet
Validated: 1
EndChar

StartChar: rlm
Encoding: 192 8207 134
Width: 0
GlyphClass: 2
Flags: MW
LayerCount: 2
Fore
SplineSet
-20 1647 m 1
 -53 1613 l 1
 -194 1754 l 1
 -53 1895 l 1
 -20 1861 l 1
 -104 1777 l 1
 155 1777 l 1
 155 1730 l 1
 -103 1730 l 1
 -20 1647 l 1
EndSplineSet
Validated: 1
EndChar

StartChar: newshekel
Encoding: 199 8362 141
Width: 1295
VWidth: 2248
GlyphClass: 2
Flags: W
HStem: 0 182<402.571 664 734 799.141> 721 180<238.159 682 728 777.925>
VStem: 173 89<15.1875 492.171> 173 61<195.736 706.957> 345 45<201.807 355.189> 664 78<182.705 599.09> 682 46<278.655 709.021> 896 130<759 878> 1034 122<580 701>
LayerCount: 2
Fore
SplineSet
793 788 m 1xd980
 785 730 772 709 769 709 c 2
 769 709 728 738 728 703 c 2
 728 644 l 2xdb80
 728 519 742 350 742 235 c 0
 742 214 738 197 734 182 c 1
 764 182 l 2
 785 182 811 196 828 226 c 2
 1023 540 l 1
 1030 555 1034 574 1034 586 c 0
 1034 594 1030 604 1021 613 c 2
 909 721 l 18
 901 729 896 742 896 759 c 0
 896 784 901 794 918 811 c 10
 985 882 l 17
 1003 904 1026 900 1026 878 c 0
 1026 860 1014 840 1029 828 c 10
 1109 762 l 17
 1144 734 1156 711 1156 691 c 0
 1156 667 1138 647 1123 622 c 2
 794 35 l 1
 761 1 761 0 726 0 c 2
 334 0 l 1
 342 17 345 40 345 62 c 1
 345 170 345 224 345 260 c 0
 345 305 390 441 438 514 c 9
 384 540 l 17
 361 552 354 565 354 577 c 0
 354 591 364 605 370 619 c 2
 408 690 l 18
 419 712 443 711 443 687 c 0
 443 676 446 659 456 656 c 10
 556 614 l 17
 596 595 614 582 614 558 c 0
 614 530 609 536 558 456 c 1
 537 468 486 498 461 506 c 1
 436 462 390 317 390 276 c 0
 390 249 391 218 402 201 c 0
 414 183 437 182 471 182 c 0
 482 182 493 182 501 182 c 2
 664 182 l 2xcd80
 664 182 682 589 682 663 c 0
 682 680 l 1
 682 717 678 721 634 721 c 0
 475 721 403 721 244 721 c 1
 237 678 234 637 234 594 c 0xdb80
 234 465 262 262 262 68 c 0
 262 44 201 0 194 0 c 0
 184 0 173 19 173 59 c 10xe980
 173 618 l 18
 173 626 173 632 173 638 c 0
 173 676 176 691 220 721 c 1
 182 730 139 746 139 808 c 10
 139 875 l 18
 139 892 140 910 142 926 c 0
 148 959 177 963 189 930 c 0
 199 901 201 901 244 901 c 2
 677 901 l 2
 767 901 766 888 783 844 c 1
 790 826 793 807 793 788 c 1xd980
EndSplineSet
Validated: 1
EndChar

StartChar: dottedcircle
Encoding: 201 9676 142
Width: 1244
GlyphClass: 2
Flags: W
HStem: -12 143<554.435 690.555> 48 143<320.435 456.555 788.435 924.555> 222 143<146.435 282.555 962.435 1098.55> 456 143<86.4348 222.555 1022.43 1158.55> 690 143<146.435 282.555 962.435 1098.55> 864 143<320.435 456.555 788.435 924.555> 924 143<554.435 690.555>
VStem: 83 143<459.435 595.555> 143 143<225.435 361.555 693.435 829.555> 317 143<51.4348 187.555 867.435 1003.55> 551 143<-8.56516 127.555 927.435 1063.55> 785 143<51.4348 187.555 867.435 1003.55> 959 143<225.435 361.555 693.435 829.555> 1019 143<459.435 595.555>
AnchorPoint: "m2b9" 770 0 basechar 0
AnchorPoint: "m2b8a" 622 0 basechar 0
AnchorPoint: "m2b8b" 150 0 basechar 0
AnchorPoint: "m2b8c" 950 0 basechar 0
AnchorPoint: "m2b7a" 120 0 basechar 0
AnchorPoint: "m2b5a" 462 0 basechar 0
AnchorPoint: "m2b5b" 1100 0 basechar 0
AnchorPoint: "m2b4a" 622 0 basechar 0
AnchorPoint: "m2b4b" 622 0 basechar 0
AnchorPoint: "m2b4c" 622 0 basechar 0
AnchorPoint: "m2b4d" 622 0 basechar 0
AnchorPoint: "m2b3" 640 0 basechar 0
AnchorPoint: "m2b2" 622 0 basechar 0
AnchorPoint: "m2b1" 635 0 basechar 0
AnchorPoint: "m2b0" 622 0 basechar 0
LayerCount: 2
Fore
SplineSet
83 527 m 0x3970
 83 575 107 599 154 599 c 0
 202 599 226 575 226 527 c 0
 226 480 202 456 154 456 c 0
 107 456 83 480 83 527 c 0x3970
1019 527 m 0x3874
 1019 575 1043 599 1090 599 c 0
 1138 599 1162 575 1162 527 c 0
 1162 480 1138 456 1090 456 c 0
 1043 456 1019 480 1019 527 c 0x3874
551 995 m 0
 551 1043 575 1067 622 1067 c 0
 670 1067 694 1043 694 995 c 0
 694 948 670 924 622 924 c 0x3a70
 575 924 551 948 551 995 c 0
551 59 m 0
 551 107 575 131 622 131 c 0
 670 131 694 107 694 59 c 0
 694 12 670 -12 622 -12 c 0xb870
 575 -12 551 12 551 59 c 0
959 761 m 0x3878
 959 809 983 833 1030 833 c 0
 1078 833 1102 809 1102 761 c 0
 1102 714 1078 690 1030 690 c 0
 983 690 959 714 959 761 c 0x3878
959 293 m 0
 959 341 983 365 1030 365 c 0
 1078 365 1102 341 1102 293 c 0
 1102 246 1078 222 1030 222 c 0
 983 222 959 246 959 293 c 0
143 761 m 0x38f0
 143 809 167 833 214 833 c 0
 262 833 286 809 286 761 c 0
 286 714 262 690 214 690 c 0
 167 690 143 714 143 761 c 0x38f0
143 293 m 0
 143 341 167 365 214 365 c 0
 262 365 286 341 286 293 c 0
 286 246 262 222 214 222 c 0
 167 222 143 246 143 293 c 0
317 935 m 0
 317 983 341 1007 388 1007 c 0
 436 1007 460 983 460 935 c 0
 460 888 436 864 388 864 c 0x3c70
 341 864 317 888 317 935 c 0
785 935 m 0
 785 983 809 1007 856 1007 c 0
 904 1007 928 983 928 935 c 0
 928 888 904 864 856 864 c 0
 809 864 785 888 785 935 c 0
317 119 m 0
 317 167 341 191 388 191 c 0
 436 191 460 167 460 119 c 0
 460 72 436 48 388 48 c 0x7870
 341 48 317 72 317 119 c 0
785 119 m 0
 785 167 809 191 856 191 c 0
 904 191 928 167 928 119 c 0
 928 72 904 48 856 48 c 0
 809 48 785 72 785 119 c 0
EndSplineSet
Validated: 1
EndChar

StartChar: jsvarika
Encoding: 203 64286 143
Width: 0
VWidth: 2248
GlyphClass: 4
Flags: W
HStem: 1239 87<-109.398 110.19>
VStem: -211 97<1335.59 1402.72> 114 97<1335.59 1404.84>
AnchorPoint: "m2mrafe" 0 200 basemark 0
AnchorPoint: "m2b3" 0 0 mark 0
LayerCount: 2
Fore
SplineSet
114 1388 m 0
 114 1399 140 1405 165 1405 c 0
 188 1405 211 1400 211 1385 c 0
 211 1297 117 1239 1 1239 c 0
 -115 1239 -211 1297 -211 1385 c 0
 -211 1397 -183 1403 -157 1403 c 0
 -135 1403 -114 1399 -114 1388 c 0
 -114 1342 -62 1326 1 1326 c 0
 64 1326 114 1342 114 1388 c 0
EndSplineSet
Validated: 1
EndChar

StartChar: ayin.alt
Encoding: 205 64288 145
Width: 1082
VWidth: 2248
GlyphClass: 2
Flags: W
VStem: 157 357<889.206 1012.37> 290 50<574.638 782.449> 388 65<255.179 449.184>
AnchorPoint: "m2b10" -300 0 basechar 0
AnchorPoint: "m2b9" 710 0 basechar 0
AnchorPoint: "m2b8a" 557 0 basechar 0
AnchorPoint: "m2b8b" 210 0 basechar 0
AnchorPoint: "m2b8c" 850 0 basechar 0
AnchorPoint: "m2b7c" -195 0 basechar 0
AnchorPoint: "m2b7b" 267 0 basechar 0
AnchorPoint: "m2b7a" 167 0 basechar 0
AnchorPoint: "m2b5a" 515 0 basechar 0
AnchorPoint: "m2b5b" 808 0 basechar 0
AnchorPoint: "m2bv2r" 515 0 basechar 0
AnchorPoint: "HbWM" 360 0 basechar 0
AnchorPoint: "HbNM" 300 0 basechar 0
AnchorPoint: "VbWM" 530 0 basechar 0
AnchorPoint: "VbNM" 470 0 basechar 0
AnchorPoint: "m2bpg" 950 0 basechar 0
AnchorPoint: "m2b4a" 515 0 basechar 0
AnchorPoint: "m2b4b" 515 0 basechar 0
AnchorPoint: "m2b4c" 515 0 basechar 0
AnchorPoint: "m2b4d" 515 0 basechar 0
AnchorPoint: "m2b2" 603 0 basechar 0
AnchorPoint: "m2b1" 557 0 basechar 0
LayerCount: 2
Fore
SplineSet
290 626 m 1x60
 290 632 l 0x60
 290 666 291 723 325 813 c 1
 296 837 157 866 157 991 c 0
 157 1048 214 1217 247 1217 c 2
 249 1217 l 1
 265 1213 250 1156 277 1129 c 0
 332 1075 514 1037 514 929 c 0x80
 514 919 511 908 509 897 c 2
 494 798 l 17
 484 767 479 753 466 753 c 0
 453 753 406 787 363 798 c 1
 343 742 340 693 340 668 c 0
 340 647 343 625 350 602 c 0
 365 547 453 497 453 298 c 0x60
 453 269 455 255 473 255 c 0
 482 255 494 258 511 264 c 1
 731 325 739 332 893 728 c 1
 893 742 787 810 773 820 c 1
 739 844 710 874 683 906 c 1
 673 920 661 955 661 977 c 0
 661 1012 680 1046 701 1079 c 10
 773 1195 l 17
 784 1210 795 1217 805 1217 c 0
 817 1217 826 1205 826 1189 c 0
 826 1174 820 1154 820 1139 c 0
 820 1129 821 1120 828 1115 c 10
 941 1020 l 17
 981 983 1001 950 1001 914 c 1
 1001 905 l 0
 1001 866 999 843 951 740 c 0
 918 670 825 376 800 255 c 1
 788 196 690 98 588 73 c 9
 125 -54 l 17
 92 -62 70 -67 56 -67 c 0
 42 -67 35 -61 35 -47 c 0
 35 -32 43 -6 55 35 c 9
 73 90 l 17
 92 150 90 141 157 164 c 9x80
 348 221 l 17
 373 228 384 244 384 263 c 0
 384 272 388 285 388 301 c 1
 388 469 290 518 290 626 c 1x60
EndSplineSet
Validated: 1
MultipleSubs2: "Addhairspacebeforeletter subtable" hairspace ayin.alt
MultipleSubs2: "Addthinspacebeforeletter subtable" thinspace ayin.alt
MultipleSubs2: "AddHairspaceAfterMark subtable" ayin.alt hairspace
MultipleSubs2: "AddThinspaceAfterMark subtable" ayin.alt thinspace
EndChar

StartChar: alef.wide
Encoding: 206 64289 146
Width: 1852
VWidth: 2248
GlyphClass: 2
Flags: W
HStem: 0 9G<140 275.5 1699 1724>
VStem: 105 146<306.5 477.807> 152 127<1029.86 1130.38> 208 219<79.1765 216.293> 1400 129<1109.5 1169.93>
AnchorPoint: "m2b10" -300 0 basechar 0
AnchorPoint: "m2b9" 1100 0 basechar 0
AnchorPoint: "m2b8a" 947 0 basechar 0
AnchorPoint: "m2b8b" 190 0 basechar 0
AnchorPoint: "m2b8c" 1580 0 basechar 0
AnchorPoint: "m2b7c" -195 0 basechar 0
AnchorPoint: "m2b7b" 258 0 basechar 0
AnchorPoint: "m2b7a" 158 0 basechar 0
AnchorPoint: "m2b5a" 1000 0 basechar 0
AnchorPoint: "m2b5b" 1630 0 basechar 0
AnchorPoint: "m2b4a" 930 0 basechar 0
AnchorPoint: "m2b4b" 930 0 basechar 0
AnchorPoint: "m2b4c" 930 0 basechar 0
AnchorPoint: "m2b4d" 930 0 basechar 0
AnchorPoint: "m2b3" 931 0 basechar 0
AnchorPoint: "m2b2" 931 -450 basechar 0
AnchorPoint: "m2b1" 931 0 basechar 0
LayerCount: 2
Fore
SplineSet
152 950 m 27xa8
 152 1043 202 1173 233 1173 c 0
 246 1173 279 1156 279 1102 c 1xa8
 317 913 1008 690 1247 600 c 9
 1531 831 l 25
 1435 946 l 17
 1411 976 1400 1009 1400 1042 c 0
 1400 1085 1418 1130 1443 1168 c 8
 1470 1209 1497 1266 1520 1266 c 3
 1533 1266 1537 1258 1537 1246 c 0
 1537 1230 1529 1206 1529 1184 c 0
 1529 1101 1733 1017 1733 920 c 0
 1733 859 1674 809 1636 738 c 25
 1563 806 l 25
 1301 568 l 17
 1446 507 1579 476 1683 402 c 1
 1751 344 1767 261 1767 189 c 0
 1767 52 1742 -12 1706 -12 c 0
 1692 -12 1688 8 1665 47 c 1
 1510 323 991 388 671 582 c 1
 643 600 530 646 494 646 c 0
 487 646 479 644 469 644 c 1
 343 628 251 527 251 458 c 3xc8
 251 348 427 381 427 172 c 3x98
 427 85 292 0 259 0 c 10
 152 0 l 17xa8
 128 0 105 7 105 28 c 27xc8
 105 86 208 59 208 137 c 3x98
 208 182 105 256 105 357 c 0xc8
 105 479 281 635 378 698 c 1
 293 793 152 818 152 950 c 27xa8
EndSplineSet
Validated: 1
MultipleSubs2: "Addhairspacebeforeletter subtable" hairspace alef.wide
MultipleSubs2: "Addthinspacebeforeletter subtable" thinspace alef.wide
MultipleSubs2: "AddHairspaceAfterMark subtable" alef.wide hairspace
MultipleSubs2: "AddThinspaceAfterMark subtable" alef.wide thinspace
EndChar

StartChar: dalet.wide
Encoding: 207 64290 147
Width: 2003
VWidth: 2248
GlyphClass: 2
Flags: W
HStem: -6 21G<1744.5 1753.5> 895 227<156.083 1734.83>
VStem: 1728 97<11.6449 587.228> 1735 59<388.158 893.656>
AnchorPoint: "m2b10" -300 0 basechar 0
AnchorPoint: "m2b9" 1140 0 basechar 0
AnchorPoint: "m2b8a" 931 0 basechar 0
AnchorPoint: "m2b8b" 62 0 basechar 0
AnchorPoint: "m2b8c" 1700 0 basechar 0
AnchorPoint: "m2b7c" -195 0 basechar 0
AnchorPoint: "m2b7b" 124 0 basechar 0
AnchorPoint: "m2b7a" 24 0 basechar 0
AnchorPoint: "m2b5a" 1400 0 basechar 0
AnchorPoint: "m2b5b" 1910 0 basechar 0
AnchorPoint: "m2bv2left" 1750 0 basechar 0
AnchorPoint: "m2b4a" 1750 0 basechar 0
AnchorPoint: "m2b4b" 1750 0 basechar 0
AnchorPoint: "m2b4c" 1730 0 basechar 0
AnchorPoint: "m2b4d" 1638 0 basechar 0
AnchorPoint: "m2b3" 931 0 basechar 0
AnchorPoint: "m2b2" 904 0 basechar 0
AnchorPoint: "m2b1" 931 0 basechar 0
LayerCount: 2
Fore
SplineSet
362 895 m 17xd0
 167 895 88 923 88 1063 c 9
 88 1090 l 18
 88 1114 88 1154 91 1179 c 0
 98 1227 134 1233 149 1183 c 0
 162 1140 171 1122 225 1122 c 1
 1714 1122 l 1
 1742 1122 1765 1122 1785 1122 c 0
 1845 1122 1869 1118 1880 1081 c 1
 1893 1000 l 2
 1899 961 1901 949 1901 927 c 0
 1901 892 1886 866 1878 866 c 1
 1871 865 1862 869 1852 881 c 0
 1838 899 1799 897 1794 889 c 1
 1794 781 l 2xd0
 1794 595 1799 323 1825 155 c 1
 1825 12 1756 -6 1751 -6 c 0
 1738 -6 1728 12 1728 59 c 0xe0
 1728 182 1735 618 1735 767 c 0
 1735 794 1735 815 1735 826 c 0
 1735 831 1735 834 1735 835 c 1
 1735 889 1732 895 1677 895 c 10
 362 895 l 17xd0
EndSplineSet
Validated: 1
MultipleSubs2: "Addhairspacebeforeletter subtable" hairspace dalet.wide
MultipleSubs2: "Addthinspacebeforeletter subtable" thinspace dalet.wide
MultipleSubs2: "AddHairspaceAfterMark subtable" dalet.wide hairspace
MultipleSubs2: "AddThinspaceAfterMark subtable" dalet.wide thinspace
EndChar

StartChar: he.wide
Encoding: 208 64291 148
Width: 2039
VWidth: 2248
GlyphClass: 2
Flags: W
HStem: -14 35G<143.5 149.5 1806.5 1815.5> 901 227<167.292 1796.83 1858 1904.42>
VStem: 152 80<24.5454 665.547> 1790 96<15.7251 592.996> 1797 61<393.496 899.699>
AnchorPoint: "m2b10" -300 0 basechar 0
AnchorPoint: "m2b9" 1160 0 basechar 0
AnchorPoint: "m2b8a" 1000 0 basechar 0
AnchorPoint: "m2b8b" 87 0 basechar 0
AnchorPoint: "m2b8c" 1770 0 basechar 0
AnchorPoint: "m2b7c" -195 0 basechar 0
AnchorPoint: "m2b7b" 156 0 basechar 0
AnchorPoint: "m2b7a" 56 0 basechar 0
AnchorPoint: "m2b5a" 1000 0 basechar 0
AnchorPoint: "m2b5b" 1770 0 basechar 0
AnchorPoint: "m2bpg" 1950 0 basechar 0
AnchorPoint: "m2b4a" 1000 0 basechar 0
AnchorPoint: "m2b4b" 1000 0 basechar 0
AnchorPoint: "m2b4c" 1000 0 basechar 0
AnchorPoint: "m2b4d" 1000 0 basechar 0
AnchorPoint: "m2b3" 1000 0 basechar 0
AnchorPoint: "m2b2" 1000 0 basechar 0
AnchorPoint: "m2b1" 1002 0 basechar 0
LayerCount: 2
Fore
SplineSet
1930 945 m 1xe8
 1930 910 1915 886 1907 886 c 1
 1900 885 1901 901 1883 901 c 0
 1865 901 1858 898 1858 876 c 2
 1858 787 l 1xe8
 1858 601 1860 328 1886 160 c 1
 1886 17 1818 0 1813 0 c 0
 1800 0 1790 17 1790 64 c 0xf0
 1790 187 1797 624 1797 773 c 0
 1797 800 1797 821 1797 832 c 0
 1797 837 1797 840 1797 841 c 1
 1797 895 1794 901 1739 901 c 1
 380 901 l 1
 202 901 105 928 105 1068 c 10
 105 1089 l 17
 105 1113 107 1140 110 1165 c 0
 117 1213 153 1219 168 1169 c 0
 180 1130 183 1128 224 1128 c 0
 237 1128 l 1
 1779 1128 l 1
 1891 1128 1911 1089 1919 1041 c 1
 1919 1041 1930 968 1930 945 c 1xe8
232 573 m 10
 232 151 l 17
 232 59 223 55 169 0 c 1
 159 -10 154 -14 145 -14 c 0
 142 -14 141 -12 141 -9 c 0
 141 1 152 28 152 74 c 9
 152 539 l 17
 152 628 152 614 176 646 c 0
 201 679 208 682 218 682 c 0
 232 682 232 647 232 573 c 10
EndSplineSet
Validated: 1
MultipleSubs2: "Addhairspacebeforeletter subtable" hairspace he.wide
MultipleSubs2: "Addthinspacebeforeletter subtable" thinspace he.wide
MultipleSubs2: "AddHairspaceAfterMark subtable" he.wide hairspace
MultipleSubs2: "AddThinspaceAfterMark subtable" he.wide thinspace
EndChar

StartChar: kaf.wide
Encoding: 209 64292 149
Width: 2160
VWidth: 2248
GlyphClass: 2
Flags: W
HStem: 0 225<147.078 1927.25> 902 223<190.004 1923.81>
VStem: 1988 66<228.272 817.234>
AnchorPoint: "m2b10" -300 0 basechar 0
AnchorPoint: "m2b9" 1100 0 basechar 0
AnchorPoint: "m2b8a" 1030 0 basechar 0
AnchorPoint: "m2b8b" 127 0 basechar 0
AnchorPoint: "m2b8c" 1845 0 basechar 0
AnchorPoint: "m2b7c" -195 0 basechar 0
AnchorPoint: "m2b7b" 168 0 basechar 0
AnchorPoint: "m2b7a" 68 0 basechar 0
AnchorPoint: "m2b5a" 1030 0 basechar 0
AnchorPoint: "m2b5b" 1815 0 basechar 0
AnchorPoint: "m2b4a" 1030 0 basechar 0
AnchorPoint: "m2b4b" 1030 0 basechar 0
AnchorPoint: "m2b4c" 1030 0 basechar 0
AnchorPoint: "m2b4d" 1030 0 basechar 0
AnchorPoint: "m2b3" 1030 0 basechar 0
AnchorPoint: "m2b2" 1030 0 basechar 0
AnchorPoint: "m2b1" 1031 0 basechar 0
LayerCount: 2
Fore
SplineSet
1998 133 m 10
 1973 93 l 17
 1907 15 1885 0 1779 0 c 2
 132 0 l 1
 83 0 60 0 60 19 c 1
 60 31 75 52 95 89 c 10
 120 136 l 17
 169 221 173 224 264 224 c 0
 272 224 281 225 290 225 c 2
 1907 225 l 1
 1986 225 1988 233 1988 311 c 2
 1988 657 l 2
 1988 732 1970 902 1821 902 c 10
 404 902 l 18
 235 902 128 928 128 1068 c 10
 128 1089 l 17
 128 1113 129 1140 132 1165 c 0
 139 1213 175 1219 190 1169 c 0
 203 1126 206 1125 260 1125 c 1
 1787 1125 l 1
 1956 1125 2054 1000 2054 902 c 2
 2054 294 l 2
 2054 217 2024 175 1998 133 c 10
EndSplineSet
Validated: 1
MultipleSubs2: "Addhairspacebeforeletter subtable" hairspace kaf.wide
MultipleSubs2: "Addthinspacebeforeletter subtable" thinspace kaf.wide
MultipleSubs2: "AddHairspaceAfterMark subtable" kaf.wide hairspace
MultipleSubs2: "AddThinspaceAfterMark subtable" kaf.wide thinspace
EndChar

StartChar: lamed.wide
Encoding: 210 64293 150
Width: 1703
VWidth: 2248
GlyphClass: 2
Flags: W
HStem: 902 222<172.772 1426.84>
VStem: 78 69<1154.11 1475.28> 181 87<1518.81 1604> 1542 93<418.969 595.962>
AnchorPoint: "m2b10" -300 0 basechar 0
AnchorPoint: "m2b9" 1130 0 basechar 0
AnchorPoint: "m2b8a" 821 0 basechar 0
AnchorPoint: "m2b8b" -79 0 basechar 0
AnchorPoint: "m2b8c" 1445 0 basechar 0
AnchorPoint: "m2b7c" -195 0 basechar 0
AnchorPoint: "m2b7a" -108 0 basechar 0
AnchorPoint: "m2b5a" 1131 0 basechar 0
AnchorPoint: "m2b5b" 1519 0 basechar 0
AnchorPoint: "m2b4a" 890 0 basechar 0
AnchorPoint: "m2b4b" 890 0 basechar 0
AnchorPoint: "m2b4c" 890 0 basechar 0
AnchorPoint: "m2b4d" 800 0 basechar 0
AnchorPoint: "m2b2" 821 0 basechar 0
AnchorPoint: "m2b1" 821 0 basechar 0
LayerCount: 2
Fore
SplineSet
78 1414 m 17
 78 1495 181 1484 181 1551 c 27
 181 1603 113 1585 113 1665 c 3
 113 1712 166 1766 181 1766 c 3
 203 1766 198 1736 208 1717 c 24
 232 1670 268 1649 268 1596 c 27
 268 1511 147 1492 147 1415 c 10
 147 1285 l 18
 147 1206 177 1124 230 1124 c 10
 1372 1124 l 18
 1519 1124 1539 1066 1562 960 c 9
 1628 507 l 17
 1628 495 1635 442 1635 431 c 0
 1635 401 1589 363 1539 333 c 9
 1103 136 l 18
 1073 122 1047 122 1047 101 c 0
 1047 75 979 35 963 20 c 9
 856 -61 l 18
 847 -68 831 -50 831 -36 c 0
 831 7 842 141 900 165 c 10
 1514 423 l 17
 1540 434 1542 448 1542 464 c 0
 1542 476 1539 493 1532 520 c 10
 1481 734 l 17
 1465 789 1434 902 1353 902 c 10
 229 902 l 18
 166 902 78 946 78 1065 c 10
 78 1414 l 17
EndSplineSet
Validated: 1
MultipleSubs2: "Addhairspacebeforeletter subtable" hairspace lamed.wide
MultipleSubs2: "Addthinspacebeforeletter subtable" thinspace lamed.wide
MultipleSubs2: "AddHairspaceAfterMark subtable" lamed.wide hairspace
MultipleSubs2: "AddThinspaceAfterMark subtable" lamed.wide thinspace
EndChar

StartChar: finalmem.wide
Encoding: 211 64294 151
Width: 2076
VWidth: 2248
GlyphClass: 2
Flags: W
HStem: 0 228<237.316 1866.59> 901 224<284.96 1826.29>
VStem: 134 100<228.07 758.914> 1871 83<228 854.379>
AnchorPoint: "m2b9" 1110 0 basechar 0
AnchorPoint: "m2b8a" 992 0 basechar 0
AnchorPoint: "m2b8b" 186 0 basechar 0
AnchorPoint: "m2b8c" 1700 0 basechar 0
AnchorPoint: "m2b7b" 196 0 basechar 0
AnchorPoint: "m2b7a" 96 0 basechar 0
AnchorPoint: "m2b5a" 992 0 basechar 0
AnchorPoint: "m2b5b" 1844 0 basechar 0
AnchorPoint: "m2b4a" 992 0 basechar 0
AnchorPoint: "m2b4b" 992 0 basechar 0
AnchorPoint: "m2b4c" 992 0 basechar 0
AnchorPoint: "m2b4d" 992 0 basechar 0
AnchorPoint: "m2b2" 992 0 basechar 0
AnchorPoint: "m2b1" 992 0 basechar 0
LayerCount: 2
Fore
SplineSet
423 901 m 1
 357 901 324 901 316 901 c 0
 285 901 234 708 234 553 c 1
 234 292 l 2
 234 283 237 276 237 269 c 0
 237 231 244 228 287 228 c 0
 294 228 301 228 309 228 c 2
 1831 228 l 2
 1862 228 1871 231 1871 264 c 2
 1871 733 l 2
 1871 809 1838 901 1708 901 c 1
 423 901 l 1
134 165 m 9
 134 557 l 17
 134 659 184 820 259 901 c 1
 181 919 148 976 148 1068 c 10
 148 1090 l 17
 148 1114 149 1141 152 1166 c 0
 159 1214 196 1220 211 1170 c 0
 224 1127 226 1125 280 1125 c 1
 1675 1125 l 1
 1844 1125 1954 999 1954 901 c 10
 1954 165 l 18
 1954 0 1952 0 1831 0 c 10
 268 0 l 18
 151 0 120 0 120 90 c 0
 120 110 134 134 134 165 c 9
EndSplineSet
Validated: 1
MultipleSubs2: "Addhairspacebeforeletter subtable" hairspace finalmem.wide
MultipleSubs2: "Addthinspacebeforeletter subtable" thinspace finalmem.wide
MultipleSubs2: "AddHairspaceAfterMark subtable" finalmem.wide hairspace
MultipleSubs2: "AddThinspaceAfterMark subtable" finalmem.wide thinspace
EndChar

StartChar: resh.wide
Encoding: 212 64295 152
Width: 2015
VWidth: 2248
GlyphClass: 2
Flags: W
HStem: 901 225<152.79 1772.92>
VStem: 1832 70<4.51639 813.788>
AnchorPoint: "m2b10" -300 0 basechar 0
AnchorPoint: "m2b9" 1100 0 basechar 0
AnchorPoint: "m2b8a" 953 0 basechar 0
AnchorPoint: "m2b8b" 116 0 basechar 0
AnchorPoint: "m2b8c" 1700 0 basechar 0
AnchorPoint: "m2b7c" -195 0 basechar 0
AnchorPoint: "m2b7b" 126 0 basechar 0
AnchorPoint: "m2b7a" 26 0 basechar 0
AnchorPoint: "m2b5a" 1833 0 basechar 0
AnchorPoint: "m2b5b" 1943 0 basechar 0
AnchorPoint: "m2bv2left" 1870 0 basechar 0
AnchorPoint: "m2b4a" 1840 0 basechar 0
AnchorPoint: "m2b4b" 1872 0 basechar 0
AnchorPoint: "m2b4c" 1806 0 basechar 0
AnchorPoint: "m2b4d" 1750 0 basechar 0
AnchorPoint: "m2b2" 953 0 basechar 0
AnchorPoint: "m2b1" 953 0 basechar 0
LayerCount: 2
Fore
SplineSet
1897 19 m 1
 1863 -49 1839 -37 1839 32 c 1
 1839 142 1832 247 1832 356 c 2
 1832 657 l 2
 1832 738 1814 901 1665 901 c 1
 364 901 l 1
 159 901 87 928 87 1068 c 10
 87 1090 l 17
 87 1114 89 1141 92 1166 c 0
 99 1214 135 1220 150 1170 c 0
 163 1127 165 1126 219 1126 c 2
 1613 1126 l 2
 1782 1126 1902 1063 1902 665 c 10
 1902 91 l 18
 1902 78 1903 66 1903 54 c 0
 1903 43 1901 31 1897 19 c 1
EndSplineSet
Validated: 1
MultipleSubs2: "Addhairspacebeforeletter subtable" hairspace resh.wide
MultipleSubs2: "Addthinspacebeforeletter subtable" thinspace resh.wide
MultipleSubs2: "AddHairspaceAfterMark subtable" resh.wide hairspace
MultipleSubs2: "AddThinspaceAfterMark subtable" resh.wide thinspace
EndChar

StartChar: tav.wide
Encoding: 213 64296 153
Width: 1997
VWidth: 2248
GlyphClass: 2
Flags: W
HStem: 0 228<106.126 319.732> 901 225<192.36 268 309.731 1754.92>
VStem: 219 59<520.129 837.147> 322 146<219 318.293> 1814 70<4.51639 813.788>
AnchorPoint: "m2b10" -300 0 basechar 0
AnchorPoint: "m2b9" 1120 0 basechar 0
AnchorPoint: "m2b8a" 968 0 basechar 0
AnchorPoint: "m2b8b" 142 0 basechar 0
AnchorPoint: "m2b8c" 1700 0 basechar 0
AnchorPoint: "m2b7c" -195 0 basechar 0
AnchorPoint: "m2b7b" 176 0 basechar 0
AnchorPoint: "m2b7a" 76 0 basechar 0
AnchorPoint: "m2b5a" 1018 0 basechar 0
AnchorPoint: "m2b5b" 1808 0 basechar 0
AnchorPoint: "m2b4a" 1018 0 basechar 0
AnchorPoint: "m2b4b" 1018 0 basechar 0
AnchorPoint: "m2b4c" 1018 0 basechar 0
AnchorPoint: "m2b4d" 1018 0 basechar 0
AnchorPoint: "m2b3" 968 0 basechar 0
AnchorPoint: "m2b2" 968 0 basechar 0
AnchorPoint: "m2b1" 968 0 basechar 0
LayerCount: 2
Fore
SplineSet
322 244 m 0
 322 282 219 424 219 622 c 0
 219 691 236 821 268 901 c 1
 261 901 l 0
 225 901 129 905 129 989 c 10
 129 1090 l 18
 129 1114 130 1141 133 1166 c 0
 140 1214 176 1220 191 1170 c 0
 204 1127 206 1126 260 1126 c 2
 1595 1126 l 2
 1764 1126 1884 1063 1884 665 c 10
 1884 91 l 18
 1884 78 1885 66 1885 54 c 0
 1885 43 1883 31 1879 19 c 1
 1845 -49 1821 -37 1821 32 c 0
 1821 142 1814 247 1814 356 c 2
 1814 657 l 2
 1814 738 1796 901 1647 901 c 1
 426 901 l 1
 330 901 l 1
 292 845 278 718 278 673 c 0
 278 436 468 307 468 228 c 0
 468 210 458 189 450 153 c 9
 433 83 l 17
 414 0 372 0 296 0 c 10
 132 0 l 17
 82 0 70 10 70 32 c 1
 70 42 72 48 82 94 c 0
 110 216 112 228 198 228 c 0
 212 228 227 228 241 228 c 0
 285 228 322 230 322 244 c 0
EndSplineSet
Validated: 1
MultipleSubs2: "Addhairspacebeforeletter subtable" hairspace tav.wide
MultipleSubs2: "Addthinspacebeforeletter subtable" thinspace tav.wide
MultipleSubs2: "AddHairspaceAfterMark subtable" tav.wide hairspace
MultipleSubs2: "AddThinspaceAfterMark subtable" tav.wide thinspace
EndChar

StartChar: hebrewplussign
Encoding: 214 64297 154
Width: 670
VWidth: 2494
GlyphClass: 2
Flags: W
HStem: 493 119<99.0265 324 394 614>
VStem: 324 70<612 822.988>
LayerCount: 2
Fore
SplineSet
324 612 m 9
 324 819 l 17
 334 822 347 823 361 823 c 0
 373 823 385 822 394 821 c 1
 394 612 l 1
 594 612 l 1
 614 612 614 608 614 585 c 9
 614 514 l 17
 614 493 600 493 587 493 c 1
 117 493 l 1
 97 493 99 493 99 519 c 9
 99 589 l 17
 99 607 99 612 118 612 c 1
 324 612 l 9
EndSplineSet
Validated: 1
EndChar

StartChar: shinshindot
Encoding: 215 64298 155
Width: 1340
VWidth: 2248
GlyphClass: 2
Flags: W
HStem: 0 228<341.719 413.422 460.996 845.784> 1191 150<1173.38 1310.62>
VStem: 139 70<490.771 678.982> 1061 50<1170 1191.06> 1138 149<715.5 907> 1167 150<1197.54 1334.15>
AnchorPoint: "m2b10" -300 0 basechar 0
AnchorPoint: "m2b9" 810 0 basechar 0
AnchorPoint: "m2b8a" 656 0 basechar 0
AnchorPoint: "m2b8b" 127 0 basechar 0
AnchorPoint: "m2b8c" 1150 0 basechar 0
AnchorPoint: "m2b7c" -195 0 basechar 0
AnchorPoint: "m2b7b" 225 0 basechar 0
AnchorPoint: "m2b7a" 125 0 basechar 0
AnchorPoint: "m2b5a" 520 0 basechar 0
AnchorPoint: "m2b5b" 969 0 basechar 0
AnchorPoint: "m2bv2r" 520 0 basechar 0
AnchorPoint: "VbWM" 510 0 basechar 0
AnchorPoint: "VbNM" 450 0 basechar 0
AnchorPoint: "m2b4a" 520 0 basechar 0
AnchorPoint: "m2b4b" 520 0 basechar 0
AnchorPoint: "m2b4c" 520 0 basechar 0
AnchorPoint: "m2b4d" 520 0 basechar 0
AnchorPoint: "m2b1" 656 0 basechar 0
LayerCount: 2
Fore
SplineSet
486 228 m 2xf8
 846 228 l 2
 872 228 913 296 933 340 c 1
 1120 669 l 1
 1132 690 1138 708 1138 723 c 0
 1138 737 1133 750 1121 761 c 1
 995 905 l 18
 984 917 979 936 979 958 c 0
 979 993 992 1026 1012 1068 c 10
 1061 1170 l 17
 1071 1185 1082 1192 1092 1192 c 0
 1104 1192 1111 1181 1111 1165 c 0
 1111 1150 1106 1129 1106 1114 c 0
 1106 1104 1108 1095 1115 1090 c 10
 1228 996 l 17
 1268 959 1287 925 1287 889 c 0
 1287 859 1268 829 1246 788 c 2
 853 53 l 1
 812 1 813 0 770 0 c 2
 179 0 l 1
 179 30 201 61 201 92 c 0
 201 350 139 352 139 521 c 27
 139 651 201 733 256 834 c 9
 172 882 l 17
 147 898 124 924 124 957 c 0
 124 966 126 974 129 983 c 2
 175 1172 l 17
 183 1193 195 1202 205 1202 c 0
 218 1202 229 1189 229 1166 c 0
 229 1145 233 1116 249 1109 c 10
 366 1058 l 17
 424 1026 460 992 460 948 c 0
 460 911 434 832 397 763 c 1
 364 786 329 807 291 820 c 1
 264 763 209 662 209 603 c 0
 209 576 216 547 230 517 c 10
 360 233 l 17
 362 229 365 228 369 228 c 0
 381 228 398 243 409 264 c 9
 692 812 l 25
 592 895 l 17
 573 914 557 937 557 964 c 0
 557 976 559 988 566 1001 c 2
 628 1177 l 17
 639 1196 653 1202 662 1201 c 0
 676 1199 680 1186 680 1171 c 0
 690 1101 l 10
 803 1025 l 17
 849 988 878 952 878 914 c 0
 878 910 877 905 876 901 c 0
 867 865 847 793 799 732 c 1
 770 761 759 773 723 793 c 1
 461 267 l 2
 448 242 453 228 486 228 c 2xf8
EndSplineSet
Refer: 90 1473 N 1 0 0 1 1242 6 2
Validated: 1
MultipleSubs2: "Addhairspacebeforeletter subtable" hairspace shinshindot
MultipleSubs2: "Addthinspacebeforeletter subtable" thinspace shinshindot
MultipleSubs2: "AddHairspaceAfterMark subtable" shinshindot hairspace
MultipleSubs2: "AddThinspaceAfterMark subtable" shinshindot thinspace
Ligature2: "B2ccmpShinWithShinDots subtable" shin shindot
LCarets2: 1 0 
EndChar

StartChar: shinsindot
Encoding: 216 64299 156
Width: 1340
VWidth: 2248
GlyphClass: 2
Flags: W
HStem: 0 228<341.719 413.422 460.996 845.784> 1182 150<282.38 419.62>
VStem: 139 70<490.771 678.982> 276 150<1188.54 1325.15> 1061 50<1170 1191.06> 1138 149<715.5 907>
AnchorPoint: "m2b10" -300 0 basechar 0
AnchorPoint: "m2b9" 810 0 basechar 0
AnchorPoint: "m2b8a" 656 0 basechar 0
AnchorPoint: "m2b8b" 127 0 basechar 0
AnchorPoint: "m2b8c" 1150 0 basechar 0
AnchorPoint: "m2b7c" -195 0 basechar 0
AnchorPoint: "m2b7b" 225 0 basechar 0
AnchorPoint: "m2b7a" 125 0 basechar 0
AnchorPoint: "m2b5a" 520 0 basechar 0
AnchorPoint: "m2b5b" 969 0 basechar 0
AnchorPoint: "m2bv2r" 520 0 basechar 0
AnchorPoint: "VbWM" 510 0 basechar 0
AnchorPoint: "VbNM" 450 0 basechar 0
AnchorPoint: "m2b4a" 520 0 basechar 0
AnchorPoint: "m2b4b" 520 0 basechar 0
AnchorPoint: "m2b4c" 520 0 basechar 0
AnchorPoint: "m2b4d" 520 0 basechar 0
AnchorPoint: "m2b1" 656 0 basechar 0
LayerCount: 2
Fore
SplineSet
486 228 m 2
 846 228 l 2
 872 228 913 296 933 340 c 1
 1120 669 l 1
 1132 690 1138 708 1138 723 c 0
 1138 737 1133 750 1121 761 c 1
 995 905 l 18
 984 917 979 936 979 958 c 0
 979 993 992 1026 1012 1068 c 10
 1061 1170 l 17
 1071 1185 1082 1192 1092 1192 c 0
 1104 1192 1111 1181 1111 1165 c 0
 1111 1150 1106 1129 1106 1114 c 0
 1106 1104 1108 1095 1115 1090 c 10
 1228 996 l 17
 1268 959 1287 925 1287 889 c 0
 1287 859 1268 829 1246 788 c 2
 853 53 l 1
 812 1 813 0 770 0 c 2
 179 0 l 1
 179 30 201 61 201 92 c 0
 201 350 139 352 139 521 c 27
 139 651 201 733 256 834 c 9
 172 882 l 17
 147 898 124 924 124 957 c 0
 124 966 126 974 129 983 c 2
 175 1172 l 17
 183 1193 195 1202 205 1202 c 0
 218 1202 229 1189 229 1166 c 0
 229 1145 233 1116 249 1109 c 10
 366 1058 l 17
 424 1026 460 992 460 948 c 0
 460 911 434 832 397 763 c 1
 364 786 329 807 291 820 c 1
 264 763 209 662 209 603 c 0
 209 576 216 547 230 517 c 10
 360 233 l 17
 362 229 365 228 369 228 c 0
 381 228 398 243 409 264 c 9
 692 812 l 25
 592 895 l 17
 573 914 557 937 557 964 c 0
 557 976 559 988 566 1001 c 2
 628 1177 l 17
 639 1196 653 1202 662 1201 c 0
 676 1199 680 1186 680 1171 c 0
 690 1101 l 10
 803 1025 l 17
 849 988 878 952 878 914 c 0
 878 910 877 905 876 901 c 0
 867 865 847 793 799 732 c 1
 770 761 759 773 723 793 c 1
 461 267 l 2
 448 242 453 228 486 228 c 2
EndSplineSet
Refer: 91 1474 S 1 0 0 1 351 -3 2
Validated: 1
MultipleSubs2: "Addhairspacebeforeletter subtable" hairspace shinsindot
MultipleSubs2: "Addthinspacebeforeletter subtable" thinspace shinsindot
MultipleSubs2: "AddHairspaceAfterMark subtable" shinsindot hairspace
MultipleSubs2: "AddThinspaceAfterMark subtable" shinsindot thinspace
Ligature2: "B2ccmpShinWithShinDots subtable" shin sindot
LCarets2: 1 0 
EndChar

StartChar: shindageshshindot
Encoding: 217 64300 157
Width: 1340
VWidth: 2248
GlyphClass: 2
Flags: W
HStem: 0 228<341.719 413.422 460.996 845.784> 465 153<748.127 883.873> 1191 150<1173.38 1310.62>
VStem: 139 70<490.771 678.982> 741 150<472.039 610.98> 1061 50<1170 1191.06> 1138 149<715.5 907> 1167 150<1197.54 1334.15>
AnchorPoint: "m2b10" -300 0 basechar 0
AnchorPoint: "m2b9" 810 0 basechar 0
AnchorPoint: "m2b8a" 656 0 basechar 0
AnchorPoint: "m2b8b" 127 0 basechar 0
AnchorPoint: "m2b8c" 1150 0 basechar 0
AnchorPoint: "m2b7c" -195 0 basechar 0
AnchorPoint: "m2b7b" 225 0 basechar 0
AnchorPoint: "m2b7a" 125 0 basechar 0
AnchorPoint: "m2b5a" 520 0 basechar 0
AnchorPoint: "m2b5b" 969 0 basechar 0
AnchorPoint: "m2bv2r" 520 0 basechar 0
AnchorPoint: "VbWM" 510 0 basechar 0
AnchorPoint: "VbNM" 450 0 basechar 0
AnchorPoint: "m2b4a" 520 0 basechar 0
AnchorPoint: "m2b4b" 520 0 basechar 0
AnchorPoint: "m2b4c" 520 0 basechar 0
AnchorPoint: "m2b4d" 520 0 basechar 0
AnchorPoint: "m2b1" 656 0 basechar 0
LayerCount: 2
Fore
SplineSet
486 228 m 2xfe
 846 228 l 2
 872 228 913 296 933 340 c 1
 1120 669 l 1
 1132 690 1138 708 1138 723 c 0
 1138 737 1133 750 1121 761 c 1
 995 905 l 18
 984 917 979 936 979 958 c 0
 979 993 992 1026 1012 1068 c 10
 1061 1170 l 17
 1071 1185 1082 1192 1092 1192 c 0
 1104 1192 1111 1181 1111 1165 c 0
 1111 1150 1106 1129 1106 1114 c 0
 1106 1104 1108 1095 1115 1090 c 10
 1228 996 l 17
 1268 959 1287 925 1287 889 c 0
 1287 859 1268 829 1246 788 c 2
 853 53 l 1
 812 1 813 0 770 0 c 2
 179 0 l 1
 179 30 201 61 201 92 c 0
 201 350 139 352 139 521 c 27
 139 651 201 733 256 834 c 9
 172 882 l 17
 147 898 124 924 124 957 c 0
 124 966 126 974 129 983 c 2
 175 1172 l 17
 183 1193 195 1202 205 1202 c 0
 218 1202 229 1189 229 1166 c 0
 229 1145 233 1116 249 1109 c 10
 366 1058 l 17
 424 1026 460 992 460 948 c 0
 460 911 434 832 397 763 c 1
 364 786 329 807 291 820 c 1
 264 763 209 662 209 603 c 0
 209 576 216 547 230 517 c 10
 360 233 l 17
 362 229 365 228 369 228 c 0
 381 228 398 243 409 264 c 9
 692 812 l 25
 592 895 l 17
 573 914 557 937 557 964 c 0
 557 976 559 988 566 1001 c 2
 628 1177 l 17
 639 1196 653 1202 662 1201 c 0
 676 1199 680 1186 680 1171 c 0
 690 1101 l 10
 803 1025 l 17
 849 988 878 952 878 914 c 0
 878 910 877 905 876 901 c 0
 867 865 847 793 799 732 c 1
 770 761 759 773 723 793 c 1
 461 267 l 2
 448 242 453 228 486 228 c 2xfe
EndSplineSet
Refer: 90 1473 S 1 0 0 1 1242 6 2
Refer: 85 1468 N 1 0 0 1 816 0 2
Validated: 1
MultipleSubs2: "Addhairspacebeforeletter subtable" hairspace shindageshshindot
MultipleSubs2: "Addthinspacebeforeletter subtable" thinspace shindageshshindot
MultipleSubs2: "AddHairspaceAfterMark subtable" shindageshshindot hairspace
MultipleSubs2: "AddThinspaceAfterMark subtable" shindageshshindot thinspace
Ligature2: "B3ccmpDagesh subtable" shinshindot dagesh
Ligature2: "B2ccmpShinWithShinDots subtable" shindagesh shindot
LCarets2: 1 0 
EndChar

StartChar: shindageshsindot
Encoding: 218 64301 158
Width: 1340
VWidth: 2248
GlyphClass: 2
Flags: W
HStem: 0 228<341.719 413.422 460.996 845.784> 465 153<748.127 883.873> 1182 150<282.38 419.62>
VStem: 139 70<490.771 678.982> 276 150<1188.54 1325.15> 741 150<472.039 610.98> 1061 50<1170 1191.06> 1138 149<715.5 907>
AnchorPoint: "m2b10" -300 0 basechar 0
AnchorPoint: "m2b9" 810 0 basechar 0
AnchorPoint: "m2b8a" 656 0 basechar 0
AnchorPoint: "m2b8b" 127 0 basechar 0
AnchorPoint: "m2b8c" 1150 0 basechar 0
AnchorPoint: "m2b7c" -195 0 basechar 0
AnchorPoint: "m2b7b" 225 0 basechar 0
AnchorPoint: "m2b7a" 125 0 basechar 0
AnchorPoint: "m2b5a" 520 0 basechar 0
AnchorPoint: "m2b5b" 969 0 basechar 0
AnchorPoint: "m2bv2r" 520 0 basechar 0
AnchorPoint: "VbWM" 510 0 basechar 0
AnchorPoint: "VbNM" 450 0 basechar 0
AnchorPoint: "m2b4a" 520 0 basechar 0
AnchorPoint: "m2b4b" 520 0 basechar 0
AnchorPoint: "m2b4c" 520 0 basechar 0
AnchorPoint: "m2b4d" 520 0 basechar 0
AnchorPoint: "m2b1" 656 0 basechar 0
LayerCount: 2
Fore
SplineSet
486 228 m 2
 846 228 l 2
 872 228 913 296 933 340 c 1
 1120 669 l 1
 1132 690 1138 708 1138 723 c 0
 1138 737 1133 750 1121 761 c 1
 995 905 l 18
 984 917 979 936 979 958 c 0
 979 993 992 1026 1012 1068 c 10
 1061 1170 l 17
 1071 1185 1082 1192 1092 1192 c 0
 1104 1192 1111 1181 1111 1165 c 0
 1111 1150 1106 1129 1106 1114 c 0
 1106 1104 1108 1095 1115 1090 c 10
 1228 996 l 17
 1268 959 1287 925 1287 889 c 0
 1287 859 1268 829 1246 788 c 2
 853 53 l 1
 812 1 813 0 770 0 c 2
 179 0 l 1
 179 30 201 61 201 92 c 0
 201 350 139 352 139 521 c 27
 139 651 201 733 256 834 c 9
 172 882 l 17
 147 898 124 924 124 957 c 0
 124 966 126 974 129 983 c 2
 175 1172 l 17
 183 1193 195 1202 205 1202 c 0
 218 1202 229 1189 229 1166 c 0
 229 1145 233 1116 249 1109 c 10
 366 1058 l 17
 424 1026 460 992 460 948 c 0
 460 911 434 832 397 763 c 1
 364 786 329 807 291 820 c 1
 264 763 209 662 209 603 c 0
 209 576 216 547 230 517 c 10
 360 233 l 17
 362 229 365 228 369 228 c 0
 381 228 398 243 409 264 c 9
 692 812 l 25
 592 895 l 17
 573 914 557 937 557 964 c 0
 557 976 559 988 566 1001 c 2
 628 1177 l 17
 639 1196 653 1202 662 1201 c 0
 676 1199 680 1186 680 1171 c 0
 690 1101 l 10
 803 1025 l 17
 849 988 878 952 878 914 c 0
 878 910 877 905 876 901 c 0
 867 865 847 793 799 732 c 1
 770 761 759 773 723 793 c 1
 461 267 l 2
 448 242 453 228 486 228 c 2
EndSplineSet
Refer: 91 1474 N 1 0 0 1 351 -3 2
Refer: 85 1468 N 1 0 0 1 816 0 2
Validated: 1
MultipleSubs2: "Addhairspacebeforeletter subtable" hairspace shindageshsindot
MultipleSubs2: "Addthinspacebeforeletter subtable" thinspace shindageshsindot
MultipleSubs2: "AddHairspaceAfterMark subtable" shindageshsindot hairspace
MultipleSubs2: "AddThinspaceAfterMark subtable" shindageshsindot thinspace
Ligature2: "B3ccmpDagesh subtable" shinsindot dagesh
Ligature2: "B2ccmpShinWithShinDots subtable" shindagesh sindot
LCarets2: 1 0 
EndChar

StartChar: reshdagesh
Encoding: 240 64328 180
Width: 1089
VWidth: 2248
GlyphClass: 2
Flags: W
HStem: 468 153<374.127 509.873> 901 224<138.79 768.923>
VStem: 367 150<475.039 613.98> 828 70<3.51639 812.788>
AnchorPoint: "m2b10" -300 0 basechar 0
AnchorPoint: "m2b9" 610 0 basechar 0
AnchorPoint: "m2b8a" 454 0 basechar 0
AnchorPoint: "m2b8b" 80 0 basechar 0
AnchorPoint: "m2b8c" 850 0 basechar 0
AnchorPoint: "m2b7c" -195 0 basechar 0
AnchorPoint: "m2b7b" 126 0 basechar 0
AnchorPoint: "m2b7a" 26 0 basechar 0
AnchorPoint: "m2b5a" 837 0 basechar 0
AnchorPoint: "m2b5b" 940 0 basechar 0
AnchorPoint: "m2bv2left" 859 0 basechar 0
AnchorPoint: "m2b4a" 848 0 basechar 0
AnchorPoint: "m2b4b" 859 0 basechar 0
AnchorPoint: "m2b4c" 749 0 basechar 0
AnchorPoint: "m2b4d" 702 0 basechar 0
AnchorPoint: "m2b1" 454 0 basechar 0
LayerCount: 2
Fore
SplineSet
893 18 m 1
 859 -50 835 -38 835 31 c 1
 835 141 828 246 828 355 c 2
 828 656 l 2
 828 737 810 901 661 901 c 1
 350 901 l 1
 145 901 73 928 73 1068 c 10
 73 1090 l 17
 73 1114 75 1141 78 1166 c 0
 85 1214 121 1220 136 1170 c 0
 149 1127 151 1125 205 1125 c 2
 609 1125 l 2
 778 1125 898 1062 898 664 c 10
 898 90 l 18
 898 77 899 65 899 53 c 0
 899 42 897 30 893 18 c 1
EndSplineSet
Refer: 85 1468 N 1 0 0 1 442 3 2
Validated: 1
MultipleSubs2: "Addhairspacebeforeletter subtable" hairspace reshdagesh
MultipleSubs2: "Addthinspacebeforeletter subtable" thinspace reshdagesh
MultipleSubs2: "AddHairspaceAfterMark subtable" reshdagesh hairspace
MultipleSubs2: "AddThinspaceAfterMark subtable" reshdagesh thinspace
Ligature2: "B3ccmpDagesh subtable" resh dagesh
LCarets2: 1 0 
EndChar

StartChar: aleflamed
Encoding: 247 64335 187
Width: 1028
VWidth: 2248
GlyphClass: 3
Flags: W
VStem: 99 69<1087.4 1454.28> 202 87<1497.81 1583> 641 129<1054.5 1114.93>
AnchorPoint: "m2b8a" 491 0 basechar 0
AnchorPoint: "m2b8b" -120 0 basechar 0
AnchorPoint: "m2b8c" 850 0 basechar 0
AnchorPoint: "m2b7a" -108 0 basechar 0
AnchorPoint: "m2b5a" 575 0 basechar 0
AnchorPoint: "m2b5b" 822 0 basechar 0
AnchorPoint: "m2b4a" 575 0 basechar 0
AnchorPoint: "m2b4b" 575 0 basechar 0
AnchorPoint: "m2b4c" 575 0 basechar 0
AnchorPoint: "m2b4d" 575 0 basechar 0
AnchorPoint: "m2b1" 491 0 basechar 0
LayerCount: 2
Fore
SplineSet
168 1265 m 0
 168 951 475 754 666 586 c 9
 799 767 l 25
 676 891 l 17
 652 921 641 954 641 987 c 0
 641 1030 659 1075 684 1113 c 8
 711 1154 738 1211 761 1211 c 3
 774 1211 778 1203 778 1191 c 0
 778 1175 770 1151 770 1129 c 0
 770 1046 974 962 974 865 c 0
 974 804 915 754 877 683 c 25
 824 743 l 25
 693 563 l 25
 834 424 l 17
 897 360 918 283 918 211 c 0
 918 74 893 10 857 10 c 0
 843 10 830 26 816 69 c 0
 729 324 340 579 270 654 c 1
 185 749 105 823 105 1041 c 0
 105 1178 99 1256 99 1393 c 17
 99 1474 202 1463 202 1530 c 27
 202 1582 134 1564 134 1644 c 3
 134 1691 187 1745 202 1745 c 3
 224 1745 218 1715 228 1696 c 24
 252 1649 289 1628 289 1575 c 27
 289 1490 168 1471 168 1394 c 9
 168 1265 l 0
EndSplineSet
Validated: 1
MultipleSubs2: "Addhairspacebeforeletter subtable" hairspace aleflamed
MultipleSubs2: "Addthinspacebeforeletter subtable" thinspace aleflamed
Ligature2: "B6ccmpAlefLamedLigature subtable" alef zerojoin lamed
LCarets2: 2 4 0 
EndChar

StartChar: hatafsegol_meteg
Encoding: 248 -1 188
Width: 0
VWidth: 2248
Flags: W
HStem: -472 136<257.852 385.924> -450 143<-278.375 -145.625> -289 143<-384.375 -253.312 -170.375 -39.3125 260.985 382.643>
VStem: -390 142<-283.531 -151.625> -284 144<-444.375 -312.469> -176 142<-283.531 -151.625> 56 100<-471.996 -145.001> 254 136<-468.046 -340.087 -277.046 -149.087>
AnchorPoint: "m2m6d" 470 1 basemark 0
AnchorPoint: "m2m1" -470 0 basemark 0
AnchorPoint: "m2b4d" 0 0 mark 0
LayerCount: 2
Fore
SplineSet
-390 -218 m 0x33
 -390 -178 -358 -146 -318 -146 c 0
 -278 -146 -248 -178 -248 -218 c 0
 -248 -258 -278 -289 -318 -289 c 0
 -358 -289 -390 -258 -390 -218 c 0x33
-176 -218 m 0x27
 -176 -178 -144 -146 -104 -146 c 0
 -64 -146 -34 -178 -34 -218 c 0
 -34 -258 -64 -289 -104 -289 c 0
 -144 -289 -176 -258 -176 -218 c 0x27
-284 -378 m 0x6b
 -284 -338 -252 -307 -212 -307 c 0
 -172 -307 -140 -338 -140 -378 c 0
 -140 -418 -172 -450 -212 -450 c 0
 -252 -450 -284 -418 -284 -378 c 0x6b
254 -405 m 0
 254 -366 282 -336 322 -336 c 0
 360 -336 390 -366 390 -405 c 0
 390 -443 360 -472 322 -472 c 0xa3
 282 -472 254 -443 254 -405 c 0
254 -214 m 0
 254 -175 282 -145 322 -145 c 0
 360 -145 390 -175 390 -214 c 0
 390 -252 360 -281 322 -281 c 0
 282 -281 254 -252 254 -214 c 0
104 -145 m 0
 156 -145 156 -144 156 -182 c 1
 156 -434 l 1
 156 -472 156 -472 104 -472 c 0
 56 -472 56 -472 56 -434 c 1
 56 -182 l 1
 56 -144 56 -145 104 -145 c 0
EndSplineSet
Validated: 1
MultipleSubs2: "AddHairspaceAfterMark subtable" hatafsegol_meteg hairspace
MultipleSubs2: "AddThinspaceAfterMark subtable" hatafsegol_meteg thinspace
Ligature2: "B1ccmpHatafMeteg subtable" hatafsegol zerojoin meteg
LCarets2: 2 0 0 
EndChar

StartChar: hatafpatah_meteg
Encoding: 249 -1 189
Width: 0
VWidth: 2248
Flags: W
HStem: -472 135<257.087 385.158> -281 135<257.087 385.158> -238 94<-389 -33.0317>
VStem: 55 100<-471.996 -146.014> 253 136<-468.057 -340.975 -277.046 -149.964>
AnchorPoint: "m2m6d" 470 1 basemark 0
AnchorPoint: "m2m1" -470 0 basemark 0
AnchorPoint: "m2b4d" 0 0 mark 0
LayerCount: 2
Fore
SplineSet
-353 -238 m 18xb8
 -391 -238 -389 -226 -389 -186 c 0
 -389 -144 -389 -144 -352 -144 c 1
 -70 -144 l 1
 -33 -144 -33 -144 -33 -186 c 0
 -33 -226 -35 -238 -73 -238 c 10
 -353 -238 l 18xb8
253 -406 m 0
 253 -366 283 -337 322 -337 c 0
 361 -337 389 -366 389 -406 c 0
 389 -443 361 -472 322 -472 c 0
 283 -472 253 -443 253 -406 c 0
253 -214 m 0
 253 -175 283 -146 322 -146 c 0
 361 -146 389 -175 389 -214 c 0
 389 -252 361 -281 322 -281 c 0xd8
 283 -281 253 -252 253 -214 c 0
104 -146 m 0
 156 -146 155 -144 155 -182 c 1
 155 -434 l 1
 155 -472 156 -472 104 -472 c 0
 56 -472 55 -472 55 -434 c 1
 55 -182 l 1
 55 -144 56 -146 104 -146 c 0
EndSplineSet
Validated: 1
MultipleSubs2: "AddHairspaceAfterMark subtable" hatafpatah_meteg hairspace
MultipleSubs2: "AddThinspaceAfterMark subtable" hatafpatah_meteg thinspace
Ligature2: "B1ccmpHatafMeteg subtable" hatafpatah zerojoin meteg
LCarets2: 2 0 0 
EndChar

StartChar: hatafqamats_meteg
Encoding: 250 -1 190
Width: 0
VWidth: 2248
Flags: W
HStem: -472 135<257.087 385.158> -281 135<257.087 385.158> -237 93<-388.968 -238.001 -183.999 -33.0317>
VStem: -280 138<-461.327 -263.151> -238 54<-337.837 -237.421> 55 100<-471.996 -146.014> 253 136<-468.057 -341.087 -277.057 -150.087>
AnchorPoint: "m2m6d" 470 1 basemark 0
AnchorPoint: "m2m1" -470 0 basemark 0
AnchorPoint: "m2b4d" 0 0 mark 0
LayerCount: 2
Fore
SplineSet
-70 -144 m 2xae
 -33 -144 -33 -144 -33 -185 c 0
 -33 -226 -35 -237 -73 -237 c 10
 -180 -237 l 17
 -183 -246 -184 -254 -184 -261 c 0xae
 -184 -307 -142 -346 -142 -389 c 11
 -142 -430 -173 -467 -211 -467 c 0
 -249 -467 -280 -430 -280 -389 c 19xb6
 -280 -346 -238 -307 -238 -261 c 0
 -238 -254 -239 -246 -242 -237 c 9
 -349 -237 l 18
 -387 -237 -389 -226 -389 -185 c 0
 -389 -144 -389 -144 -352 -144 c 2
 -70 -144 l 2xae
253 -406 m 0
 253 -367 283 -337 322 -337 c 0
 361 -337 389 -367 389 -406 c 0
 389 -443 361 -472 322 -472 c 0
 283 -472 253 -443 253 -406 c 0
253 -215 m 0
 253 -176 283 -146 322 -146 c 0
 361 -146 389 -176 389 -215 c 0
 389 -252 361 -281 322 -281 c 0xc6
 283 -281 253 -252 253 -215 c 0
104 -146 m 0
 156 -146 155 -144 155 -182 c 1
 155 -434 l 1
 155 -472 156 -472 104 -472 c 0
 56 -472 55 -472 55 -434 c 1
 55 -182 l 1
 55 -144 56 -146 104 -146 c 0
EndSplineSet
Validated: 1
MultipleSubs2: "AddHairspaceAfterMark subtable" hatafqamats_meteg hairspace
MultipleSubs2: "AddThinspaceAfterMark subtable" hatafqamats_meteg thinspace
Ligature2: "B1ccmpHatafMeteg subtable" hatafqamats zerojoin meteg
LCarets2: 2 0 0 
EndChar

StartChar: underscore
Encoding: 64 95 191
Width: 877
VWidth: 1755
Flags: W
HStem: -235 106<0 878>
LayerCount: 2
Fore
SplineSet
0 -129 m 1
 878 -129 l 1
 878 -235 l 1
 0 -235 l 1
 0 -129 l 1
EndSplineSet
Validated: 1
EndChar

StartChar: grave
Encoding: 65 96 192
Width: 357
VWidth: 1755
Flags: W
HStem: 779 207<140.311 155.86 156 282.537>
VStem: 45 94<900.5 1107.1>
LayerCount: 2
Fore
SplineSet
276 1291 m 1
 318 1243 l 1
 195 1156 139 1077 139 1002 c 0
 139 992 144 986 151 986 c 1
 151 986 153 986 156 988 c 2
 188 990 l 1
 257 990 303 948 303 886 c 0
 303 824 254 779 189 779 c 0
 103 779 45 848 45 953 c 0
 45 1077 120 1184 276 1291 c 1
EndSplineSet
Validated: 1
EndChar

StartChar: braceleft
Encoding: 92 123 193
Width: 583
VWidth: 1755
Flags: W
HStem: -106 59<427.141 521> 1290 60<427.141 521>
VStem: 249 130<-14.9851 527.463 693.229 1257.99>
LayerCount: 2
Fore
SplineSet
116 594 m 1
 116 650 l 1
 190 675 214 690 231 729 c 0
 246 761 249 776 249 883 c 2
 249 1086 l 2
 249 1202 266 1263 310 1302 c 0
 342 1330 411 1350 476 1350 c 2
 521 1350 l 1
 521 1290 l 1
 407 1283 379 1238 379 1069 c 2
 379 841 l 2
 379 720 356 680 261 622 c 1
 356 564 379 524 379 403 c 2
 379 174 l 2
 379 5 407 -40 521 -47 c 1
 521 -106 l 1
 476 -106 l 2
 411 -106 342 -87 310 -59 c 0
 266 -20 249 41 249 157 c 2
 249 361 l 2
 249 477 246 496 225 529 c 1
 204 559 183 571 116 594 c 1
EndSplineSet
Validated: 1
EndChar

StartChar: bar
Encoding: 93 124 194
Width: 1063
VWidth: 1755
Flags: W
HStem: 0 21G<464 600>
VStem: 464 136<0 1267>
LayerCount: 2
Fore
SplineSet
600 1267 m 1
 600 0 l 1
 464 0 l 1
 464 1267 l 1
 600 1267 l 1
EndSplineSet
Validated: 1
EndChar

StartChar: braceright
Encoding: 94 125 195
Width: 583
VWidth: 1755
Flags: W
HStem: -106 59<63 155.703> 1290 60<63 155.703>
VStem: 204 129<-15.8713 513.512 716.537 1258.87>
LayerCount: 2
Fore
SplineSet
469 650 m 1
 469 594 l 1
 394 569 371 554 351 515 c 0
 336 483 333 468 333 361 c 2
 333 157 l 2
 333 41 316 -22 272 -59 c 0
 240 -87 172 -106 107 -106 c 2
 63 -106 l 1
 63 -47 l 1
 175 -40 204 5 204 174 c 2
 204 403 l 2
 204 524 226 564 321 622 c 1
 226 680 204 720 204 841 c 2
 204 1069 l 2
 204 1238 175 1283 63 1290 c 1
 63 1350 l 1
 107 1350 l 2
 172 1350 240 1330 272 1302 c 0
 316 1265 333 1202 333 1086 c 2
 333 883 l 2
 333 767 337 748 360 715 c 0
 380 685 400 673 469 650 c 1
EndSplineSet
Validated: 1
EndChar

StartChar: asciitilde
Encoding: 95 126 196
Width: 1063
VWidth: 1755
Flags: W
HStem: 474 140<598.539 822.302> 618 140<241.028 463.821>
LayerCount: 2
Fore
SplineSet
183 504 m 1
 89 570 l 1
 154 684 251 758 335 758 c 0
 379 758 418 746 509 702 c 2
 590 663 l 2
 683 618 695 614 730 614 c 0
 779 614 834 656 881 728 c 1
 974 661 l 1
 909 547 812 474 728 474 c 0
 684 474 641 488 554 528 c 1
 474 569 l 1
 372 616 368 618 333 618 c 0
 284 618 230 576 183 504 c 1
EndSplineSet
Validated: 1
EndChar

StartChar: Euro
Encoding: 200 8364 197
Width: 1024
Flags: MW
LayerCount: 2
Fore
SplineSet
960 108 m 1
 881 38 749 -18 617 -18 c 0
 560 -18 503 -8 450 17 c 0
 306 84 224 229 193 408 c 1
 59 408 l 1
 59 487 l 1
 181 487 l 1
 181 497 181 507 181 518 c 2
 181 548 l 1
 181 617 l 1
 59 617 l 1
 59 696 l 1
 193 696 l 1
 225 895 312 1049 472 1122 c 0
 524 1146 589 1157 655 1157 c 0
 768 1157 882 1124 932 1065 c 0
 952 1041 963 1012 963 976 c 0
 963 924 925 890 876 890 c 0
 799 890 757 967 757 1057 c 1
 724 1076 685 1086 646 1086 c 0
 606 1086 566 1076 534 1055 c 0
 429 989 380 852 362 696 c 1
 787 696 l 1
 787 617 l 1
 356 617 l 1
 356 586 l 2
 356 552 358 519 362 487 c 1
 737 487 l 1
 737 408 l 1
 376 408 l 1
 419 242 499 92 698 92 c 0
 795 92 868 122 945 160 c 1
 950 153 955 144 960 134 c 1
 960 108 l 1
EndSplineSet
Validated: 1
EndChar

StartChar: A
Encoding: 34 65 202
Width: 1370
VWidth: 1900
Flags: W
HStem: 0 89<-15 111.283 317.568 488 800 996.133 1241.83 1389> 444 104<414 840>
LayerCount: 2
Fore
SplineSet
718 1400 m 1
 1203 211 l 2
 1246 104 1268 89 1362 89 c 2
 1389 89 l 1
 1389 0 l 1
 800 0 l 1
 800 89 l 1
 879 89 l 2
 949 89 997 110 997 140 c 0
 997 150 993 162 982 191 c 2
 879 444 l 1
 377 444 l 1
 314 277 l 2
 303 247 296 221 296 198 c 0
 296 125 347 89 450 89 c 2
 488 89 l 1
 488 0 l 1
 -15 0 l 1
 -15 89 l 1
 -8 89 l 2
 43 89 97 112 127 148 c 1
 156 178 163 191 201 290 c 2
 639 1400 l 1
 718 1400 l 1
626 1086 m 1
 414 548 l 1
 840 548 l 1
 626 1086 l 1
EndSplineSet
Validated: 1
EndChar

StartChar: B
Encoding: 35 66 203
Width: 1370
VWidth: 1900
Flags: W
HStem: 0 89<56 257.781 482.177 917.341> 665 90<475 882.4> 1282 90<56 258.514 482.216 880.255>
VStem: 263 212<98.2928 665 755 1272.54> 981 220<880.32 1180.86> 1039 234<204.75 539.33>
LayerCount: 2
Fore
SplineSet
56 1372 m 1xf4
 739 1372 l 2
 852 1372 946 1356 1014 1326 c 0
 1124 1278 1201 1158 1201 1037 c 0xf8
 1201 941 1153 846 1073 788 c 0
 1025 752 984 735 893 717 c 1
 1152 672 1273 560 1273 372 c 0
 1273 140 1075 0 747 0 c 2
 56 0 l 1
 56 89 l 1
 91 89 l 2
 245 89 263 99 263 179 c 2
 263 234 l 1
 263 1138 l 1
 263 1193 l 2
 263 1273 245 1282 91 1282 c 2
 56 1282 l 1
 56 1372 l 1xf4
475 755 m 1
 644 755 l 2
 888 755 981 827 981 1013 c 0
 981 1120 944 1200 876 1242 c 0
 836 1269 765 1282 677 1282 c 2
 600 1282 l 2
 501 1282 475 1263 475 1188 c 2
 475 755 l 1
475 665 m 1
 475 209 l 2
 475 104 490 89 586 89 c 2
 665 89 l 2
 785 89 865 103 923 133 c 0
 998 169 1039 259 1039 379 c 0xf4
 1039 505 992 587 903 629 c 0
 847 654 763 665 642 665 c 2
 475 665 l 1
EndSplineSet
Validated: 1
EndChar

StartChar: C
Encoding: 36 67 204
Width: 1370
VWidth: 1900
Flags: W
HStem: -29 91<559.097 945.215> 1311 89<563.105 898.265>
VStem: 86 250<402.512 940.062> 1158 84<836 968.046> 1180 89<330.806 472.255>
LayerCount: 2
Fore
SplineSet
1215 1385 m 1xe8
 1242 836 l 1
 1158 836 l 1xf0
 1115 982 1087 1055 1051 1118 c 0
 978 1239 861 1311 728 1311 c 0
 607 1311 488 1245 430 1138 c 0
 365 1024 336 879 336 665 c 0
 336 257 469 62 750 62 c 0
 904 62 1026 128 1104 259 c 0
 1139 315 1162 383 1180 484 c 1
 1269 470 l 1
 1226 151 1032 -29 728 -29 c 0
 354 -29 86 264 86 672 c 0
 86 868 143 1027 264 1172 c 0
 393 1326 545 1400 730 1400 c 0
 857 1400 932 1372 1066 1273 c 1
 1142 1385 l 1
 1215 1385 l 1xe8
EndSplineSet
Validated: 1
EndChar

StartChar: D
Encoding: 37 68 205
Width: 1477
VWidth: 1900
Flags: W
HStem: 0 89<55 255.953 477.791 924.639> 1282 90<55 256.666 477.791 910.354>
VStem: 261 212<97.974 1273.3> 1140 251<408.243 970.814>
LayerCount: 2
Fore
SplineSet
261 234 m 1
 261 1138 l 1
 261 1193 l 2
 261 1273 244 1282 91 1282 c 2
 55 1282 l 1
 55 1372 l 1
 659 1372 l 2
 876 1372 1016 1341 1121 1274 c 0
 1295 1160 1391 955 1391 694 c 0
 1391 409 1284 191 1092 83 c 0
 991 27 863 0 694 0 c 2
 55 0 l 1
 55 89 l 1
 91 89 l 2
 244 89 261 99 261 179 c 2
 261 234 l 1
581 89 m 2
 710 89 l 2
 1016 89 1140 260 1140 685 c 0
 1140 1105 1005 1282 680 1282 c 2
 581 1282 l 2
 487 1282 473 1270 473 1177 c 2
 473 194 l 2
 473 101 487 89 581 89 c 2
EndSplineSet
Validated: 1
EndChar

StartChar: E
Encoding: 38 69 206
Width: 1370
VWidth: 1900
Flags: W
HStem: 0 89<55 255.781 488.775 975.287> 665 90<473 694.559> 1282 90<55 256.514 477.892 969.633>
VStem: 261 212<118.516 665 755 1273.39> 785 89<392 577.193 845.374 1014> 1142 81<886 1051.69> 1177 83<350.901 508>
LayerCount: 2
Fore
SplineSet
1196 1372 m 1xfa
 1223 886 l 1
 1142 886 l 1xfc
 1113 1057 1068 1164 1005 1213 c 0
 940 1266 858 1282 691 1282 c 2
 593 1282 l 2
 490 1282 473 1269 473 1188 c 2
 473 755 l 1
 519 755 l 2
 700 755 775 828 785 1014 c 1
 874 1014 l 1
 874 392 l 1
 785 392 l 1
 782 505 761 565 712 614 c 0
 674 654 627 665 511 665 c 2
 473 665 l 1
 473 181 l 2
 473 141 475 129 488 118 c 0
 504 102 554 89 610 89 c 2
 736 89 l 2
 895 89 1004 125 1062 201 c 1
 1107 256 1152 375 1177 508 c 1
 1260 508 l 1
 1222 0 l 1
 55 0 l 1
 55 89 l 1
 89 89 l 2
 243 89 261 99 261 179 c 2
 261 234 l 1
 261 1138 l 1
 261 1193 l 2
 261 1273 243 1282 89 1282 c 2
 55 1282 l 1
 55 1372 l 1
 1196 1372 l 1xfa
EndSplineSet
Validated: 1
EndChar

StartChar: F
Encoding: 39 70 207
Width: 1266
VWidth: 1900
Flags: W
HStem: 0 89<55 255.781 478.062 707> 665 90<473 694.559> 1282 90<55 256.514 477.892 953.867>
VStem: 261 212<97.974 665 755 1273.39> 785 89<392 582.427 845.374 1014> 1129 84<886 1064.73>
LayerCount: 2
Fore
SplineSet
1185 1372 m 1
 1213 886 l 1
 1129 886 l 1
 1076 1211 994 1282 680 1282 c 2
 593 1282 l 2
 490 1282 473 1269 473 1188 c 2
 473 755 l 1
 519 755 l 2
 700 755 775 828 785 1014 c 1
 874 1014 l 1
 874 392 l 1
 785 392 l 1
 782 505 763 565 715 614 c 0
 675 654 629 665 511 665 c 2
 473 665 l 1
 473 234 l 1
 473 179 l 2
 473 99 490 89 644 89 c 2
 707 89 l 1
 707 0 l 1
 55 0 l 1
 55 89 l 1
 89 89 l 2
 243 89 261 99 261 179 c 2
 261 234 l 1
 261 1138 l 1
 261 1193 l 2
 261 1273 243 1282 89 1282 c 2
 55 1282 l 1
 55 1372 l 1
 1185 1372 l 1
EndSplineSet
Validated: 1
EndChar

StartChar: G
Encoding: 40 71 208
Width: 1477
VWidth: 1900
Flags: W
HStem: -29 91<564.062 915.571> 536 90<863 1064.87 1279.77 1467> 1311 89<561.42 914.274>
VStem: 80 250<388.727 942.247> 1072 196<210.367 508.399> 1188 80<852 946.395>
LayerCount: 2
Fore
SplineSet
1235 1385 m 1xf4
 1261 852 l 1
 1180 852 l 1
 1102 1156 953 1311 736 1311 c 0
 472 1311 330 1085 330 661 c 0
 330 457 361 324 431 219 c 0
 496 125 621 62 742 62 c 0
 865 62 986 126 1034 219 c 0
 1057 264 1072 341 1072 422 c 0
 1072 527 1058 536 899 536 c 2
 863 536 l 1
 863 626 l 1
 1467 626 l 1
 1467 536 l 1
 1438 536 l 2
 1335 536 1295 527 1279 509 c 0
 1268 496 1268 495 1268 392 c 2xf8
 1268 -29 l 1
 1188 -29 l 1
 1117 145 l 1
 994 22 881 -29 722 -29 c 0
 539 -29 365 50 247 183 c 0
 137 306 80 467 80 661 c 0
 80 918 167 1108 355 1261 c 0
 475 1357 593 1400 743 1400 c 0
 883 1400 966 1368 1089 1269 c 1
 1163 1385 l 1
 1235 1385 l 1xf4
EndSplineSet
Validated: 1
EndChar

StartChar: H
Encoding: 41 72 209
Width: 1581
VWidth: 1900
Flags: W
HStem: 0 89<55 255.781 478.062 680 905 1104.94 1327.22 1528> 659 103<473 1110> 1282 90<55 256.514 477.346 680 912 1105.65 1326.49 1528>
VStem: 261 212<97.974 659 762 1273.39> 1110 212<97.974 659 762 1273.39>
LayerCount: 2
Fore
SplineSet
1110 659 m 1
 473 659 l 1
 473 234 l 1
 473 179 l 2
 473 99 490 89 644 89 c 2
 680 89 l 1
 680 0 l 1
 55 0 l 1
 55 89 l 1
 89 89 l 2
 243 89 261 99 261 179 c 2
 261 234 l 1
 261 1138 l 1
 261 1193 l 2
 261 1273 243 1282 89 1282 c 2
 55 1282 l 1
 55 1372 l 1
 680 1372 l 1
 680 1282 l 1
 644 1282 l 2
 490 1282 473 1273 473 1193 c 2
 473 1138 l 1
 473 762 l 1
 1110 762 l 1
 1110 1138 l 1
 1110 1193 l 2
 1110 1273 1093 1282 939 1282 c 2
 912 1282 l 1
 912 1372 l 1
 1528 1372 l 1
 1528 1282 l 1
 1494 1282 l 2
 1340 1282 1322 1273 1322 1193 c 2
 1322 1138 l 1
 1322 234 l 1
 1322 179 l 2
 1322 99 1340 89 1494 89 c 2
 1528 89 l 1
 1528 0 l 1
 905 0 l 1
 905 89 l 1
 939 89 l 2
 1093 89 1110 99 1110 179 c 2
 1110 234 l 1
 1110 659 l 1
EndSplineSet
Validated: 1
EndChar

StartChar: I
Encoding: 42 73 210
Width: 771
VWidth: 1900
Flags: W
HStem: 0 89<73 275.938 499.047 702> 1282 90<73 276.654 498.334 702>
VStem: 281 213<97.974 1273.39>
LayerCount: 2
Fore
SplineSet
494 1138 m 1
 494 234 l 1
 494 179 l 2
 494 99 511 89 664 89 c 2
 702 89 l 1
 702 0 l 1
 73 0 l 1
 73 89 l 1
 110 89 l 2
 264 89 281 99 281 179 c 2
 281 234 l 1
 281 1138 l 1
 281 1193 l 2
 281 1273 264 1282 110 1282 c 2
 73 1282 l 1
 73 1372 l 1
 702 1372 l 1
 702 1282 l 1
 664 1282 l 2
 511 1282 494 1273 494 1193 c 2
 494 1138 l 1
EndSplineSet
Validated: 1
EndChar

StartChar: J
Encoding: 43 74 211
Width: 1055
VWidth: 1900
Flags: W
HStem: -29 91<201.046 497.262> 263 263<123.062 308> 1282 90<397 597.805 818.207 1021>
VStem: 10 113<136.489 361> 602 212<184.4 1273.39>
LayerCount: 2
Fore
SplineSet
814 1138 m 1
 814 509 l 2
 814 324 792 209 743 133 c 0
 676 26 555 -29 388 -29 c 0
 272 -29 183 -2 120 53 c 1
 52 109 10 203 10 294 c 0
 10 428 89 526 199 526 c 0
 282 526 342 470 342 390 c 0
 342 312 291 252 223 252 c 0
 201 252 185 255 153 263 c 1
 146 263 l 2
 133 263 123 248 123 232 c 0
 123 209 137 172 159 145 c 0
 199 94 273 62 353 62 c 0
 463 62 542 118 578 226 c 0
 596 282 602 359 602 526 c 2
 602 1138 l 1
 602 1193 l 2
 602 1273 586 1282 433 1282 c 2
 397 1282 l 1
 397 1372 l 1
 1021 1372 l 1
 1021 1282 l 1
 984 1282 l 2
 830 1282 814 1273 814 1193 c 2
 814 1138 l 1
EndSplineSet
Validated: 1
EndChar

StartChar: K
Encoding: 44 75 212
Width: 1477
VWidth: 1900
Flags: W
HStem: 0 89<56 257.781 479.906 682 876 1063.97 1342.89 1526> 1282 90<56 258.514 479.207 682 863 1032.69 1268.57 1449>
VStem: 263 212<97.974 475 621 1273.39>
LayerCount: 2
Fore
SplineSet
475 621 m 1
 941 1089 l 2
 996 1144 1034 1199 1034 1226 c 0
 1034 1266 998 1282 910 1282 c 2
 863 1282 l 1
 863 1372 l 1
 1449 1372 l 1
 1449 1282 l 1
 1335 1282 1217 1227 1126 1131 c 1
 843 847 l 1
 1303 185 l 2
 1358 104 1385 89 1490 89 c 2
 1526 89 l 1
 1526 0 l 1
 876 0 l 1
 876 89 l 1
 935 89 l 2
 1028 89 1064 103 1064 133 c 0
 1064 151 1056 167 1026 212 c 2
 696 697 l 1
 475 475 l 1
 475 234 l 1
 475 179 l 2
 475 99 491 89 645 89 c 2
 682 89 l 1
 682 0 l 1
 56 0 l 1
 56 89 l 1
 91 89 l 2
 245 89 263 99 263 179 c 2
 263 234 l 1
 263 1138 l 1
 263 1193 l 2
 263 1273 245 1282 91 1282 c 2
 56 1282 l 1
 56 1372 l 1
 682 1372 l 1
 682 1282 l 1
 645 1282 l 2
 491 1282 475 1273 475 1193 c 2
 475 1138 l 1
 475 621 l 1
EndSplineSet
Validated: 1
EndChar

StartChar: L
Encoding: 45 76 213
Width: 1266
VWidth: 1900
Flags: W
HStem: 0 89<67 266.938 500.774 947.166> 1282 90<67 267.654 488.486 690>
VStem: 272 212<118.516 1273.39> 1144 84<345.938 521>
LayerCount: 2
Fore
SplineSet
1228 521 m 1
 1188 0 l 1
 67 0 l 1
 67 89 l 1
 101 89 l 2
 255 89 272 99 272 179 c 2
 272 234 l 1
 272 1138 l 1
 272 1193 l 2
 272 1273 255 1282 101 1282 c 2
 67 1282 l 1
 67 1372 l 1
 690 1372 l 1
 690 1282 l 1
 656 1282 l 2
 502 1282 484 1273 484 1193 c 2
 484 1138 l 1
 484 181 l 2
 484 141 487 129 500 118 c 0
 516 102 565 89 621 89 c 2
 702 89 l 2
 861 89 972 124 1030 199 c 0
 1079 262 1126 392 1144 521 c 1
 1228 521 l 1
EndSplineSet
Validated: 1
EndChar

StartChar: M
Encoding: 46 77 214
Width: 1792
VWidth: 1900
Flags: W
HStem: 0 89<42 200.413 427.168 584 1112 1311.65 1534.35 1734> 1282 90<55 258.514 1534.35 1734>
VStem: 263 102<151.072 1249.09> 1316 214<97.68 1249.09>
LayerCount: 2
Fore
SplineSet
546 1372 m 1
 910 359 l 1
 1258 1372 l 1
 1734 1372 l 1
 1734 1282 l 1
 1701 1282 l 2
 1547 1282 1530 1273 1530 1193 c 2
 1530 1138 l 1
 1530 234 l 1
 1530 179 l 2
 1530 98 1547 89 1701 89 c 2
 1734 89 l 1
 1734 0 l 1
 1112 0 l 1
 1112 89 l 1
 1145 89 l 2
 1299 89 1316 98 1316 179 c 2
 1316 234 l 1
 1316 1250 l 1
 893 0 l 1
 817 0 l 1
 365 1250 l 1
 365 410 l 2
 365 151 403 97 584 89 c 1
 584 0 l 1
 42 0 l 1
 42 89 l 1
 225 97 263 151 263 410 c 2
 263 1138 l 1
 263 1193 l 2
 263 1273 245 1282 91 1282 c 2
 55 1282 l 1
 55 1372 l 1
 546 1372 l 1
EndSplineSet
Validated: 1
EndChar

StartChar: N
Encoding: 47 78 215
Width: 1548
VWidth: 1900
Flags: W
HStem: 0 89<38 196.413 423.168 580> 1282 90<36 243.527 967 1123.47 1349.95 1508>
VStem: 259 102<150.823 1117> 1185 103<363 1219.7>
LayerCount: 2
Fore
SplineSet
428 1372 m 1
 1185 363 l 1
 1185 959 l 2
 1185 1220 1148 1274 967 1282 c 1
 967 1372 l 1
 1508 1372 l 1
 1508 1282 l 1
 1325 1274 1288 1220 1288 959 c 2
 1288 -27 l 1
 1209 -27 l 1
 361 1117 l 1
 361 411 l 2
 361 150 399 97 580 89 c 1
 580 0 l 1
 38 0 l 1
 38 89 l 1
 221 97 259 150 259 411 c 2
 259 1220 l 1
 224 1268 179 1282 83 1282 c 2
 36 1282 l 1
 36 1372 l 1
 428 1372 l 1
EndSplineSet
Validated: 1
EndChar

StartChar: O
Encoding: 48 79 216
Width: 1477
VWidth: 1900
Flags: W
HStem: -29 91<556.173 922.18> 1311 89<554.519 914.625>
VStem: 86 250<418.389 948.157> 1142 250<417.714 952.395>
LayerCount: 2
Fore
SplineSet
747 1400 m 0
 1112 1400 1392 1088 1392 685 c 0
 1392 279 1111 -29 739 -29 c 0
 369 -29 86 279 86 684 c 0
 86 901 171 1107 317 1241 c 0
 433 1348 578 1400 747 1400 c 0
745 1311 m 0
 602 1311 501 1258 431 1148 c 1
 361 1034 336 918 336 690 c 0
 336 454 358 340 431 224 c 0
 499 117 605 62 739 62 c 0
 873 62 979 117 1047 224 c 1
 1117 338 1142 453 1142 685 c 0
 1142 917 1117 1035 1047 1148 c 1
 979 1253 872 1311 745 1311 c 0
EndSplineSet
Validated: 1
EndChar

StartChar: P
Encoding: 49 80 217
Width: 1266
VWidth: 1900
Flags: W
HStem: 0 89<53 253.938 476.062 691> 610 89<471 889.125> 1282 90<53 254.654 474.359 893.343>
VStem: 259 212<97.974 610 699 1273.39> 999 234<816.585 1174.8>
LayerCount: 2
Fore
SplineSet
471 610 m 1
 471 234 l 1
 471 179 l 2
 471 99 488 89 642 89 c 2
 691 89 l 1
 691 0 l 1
 53 0 l 1
 53 89 l 1
 88 89 l 2
 242 89 259 99 259 179 c 2
 259 234 l 1
 259 1138 l 1
 259 1193 l 2
 259 1273 242 1282 88 1282 c 2
 53 1282 l 1
 53 1372 l 1
 718 1372 l 2
 849 1372 965 1351 1040 1313 c 0
 1166 1250 1233 1140 1233 995 c 0
 1233 845 1156 724 1022 659 c 0
 946 623 856 610 685 610 c 2
 471 610 l 1
471 699 m 1
 702 699 l 2
 903 699 999 792 999 988 c 0
 999 1189 907 1282 709 1282 c 2
 587 1282 l 2
 482 1282 471 1273 471 1185 c 2
 471 699 l 1
EndSplineSet
Validated: 1
EndChar

StartChar: Q
Encoding: 50 81 218
Width: 1477
VWidth: 1900
Flags: W
HStem: -359 154<1100 1312.93> -29 91<592.886 909.786> 414 89<591.766 830.786> 1311 89<557.305 922.022>
VStem: 86 250<431.196 939.612> 446 88<211.539 355.693> 1144 250<440.441 951.253> 1336 85<-190.168 -38>
LayerCount: 2
Fore
SplineSet
1336 -38 m 1xfd
 1421 -38 l 1
 1421 -40 1421 -42 1421 -44 c 0xfd
 1421 -240 1329 -359 1178 -359 c 0
 1022 -359 927 -228 919 0 c 1
 856 -22 815 -29 750 -29 c 0
 380 -29 86 287 86 684 c 0
 86 901 176 1106 332 1246 c 0
 448 1351 581 1400 737 1400 c 0
 1103 1400 1394 1092 1394 702 c 0xfe
 1394 458 1293 244 1095 81 c 1
 1160 -126 1205 -205 1260 -205 c 0
 1308 -205 1326 -159 1336 -38 c 1xfd
1045 226 m 1
 1118 344 1144 467 1144 690 c 0xfe
 1144 884 1121 1016 1066 1123 c 0
 1008 1241 887 1311 742 1311 c 0
 602 1311 491 1251 433 1144 c 0
 368 1028 336 870 336 684 c 0
 336 463 370 312 446 211 c 1
 444 226 446 240 446 245 c 0
 446 398 561 503 720 503 c 0
 879 503 996 405 1045 226 c 1
912 103 m 1
 912 121 l 2
 912 307 839 414 710 414 c 0
 605 414 534 339 534 226 c 0
 534 121 608 62 734 62 c 0
 809 62 854 73 912 103 c 1
EndSplineSet
Validated: 1
EndChar

StartChar: R
Encoding: 51 82 219
Width: 1370
VWidth: 1900
Flags: W
HStem: -29 145<1043 1247.71> 0 89<49 248.938 473.062 672> 665 90<468 749.469> 1282 90<49 249.654 488.703 884.163>
VStem: 254 214<97.974 665 755 1268.3> 975 234<867.987 1193.51> 1274 80<140.413 304>
LayerCount: 2
Fore
SplineSet
468 665 m 1xbe
 468 232 l 1
 468 179 l 2
 468 99 485 89 639 89 c 2
 672 89 l 1
 672 0 l 1
 49 0 l 1
 49 89 l 1
 83 89 l 2x7e
 237 89 254 99 254 179 c 2
 254 232 l 1
 254 1138 l 1
 254 1193 l 2
 254 1273 237 1282 83 1282 c 2
 49 1282 l 1
 49 1372 l 1
 707 1372 l 2
 1026 1372 1209 1249 1209 1032 c 0
 1209 840 1077 729 803 691 c 1
 951 653 1025 572 1067 398 c 1
 1099 279 l 2
 1131 148 1150 116 1193 116 c 0
 1244 116 1266 173 1274 304 c 1
 1354 304 l 1
 1349 76 1274 -29 1118 -29 c 0
 968 -29 899 60 876 274 c 2
 866 370 l 2
 853 496 824 564 769 607 c 0
 727 642 653 665 578 665 c 2
 468 665 l 1xbe
468 755 m 1
 677 755 l 2
 768 755 853 780 901 820 c 0
 950 860 975 934 975 1030 c 0
 975 1202 890 1282 702 1282 c 2
 599 1282 l 2
 518 1282 503 1280 488 1269 c 0
 470 1254 468 1248 468 1172 c 2
 468 755 l 1
EndSplineSet
Validated: 1
EndChar

StartChar: S
Encoding: 52 83 220
Width: 1196
VWidth: 1900
Flags: W
HStem: -29 87<456.656 842.488> 1309 91<375.846 731.599>
VStem: 96 83<377.263 526> 129 148<962.593 1193.72> 973 148<190.232 461.06> 979 81<889 1007.39>
LayerCount: 2
Fore
SplineSet
1037 1384 m 1xd8
 1060 889 l 1
 979 889 l 1
 954 985 920 1066 865 1144 c 0
 789 1252 681 1309 548 1309 c 0
 387 1309 277 1218 277 1085 c 0xd4
 277 969 357 895 526 852 c 2
 730 800 l 2
 883 762 956 729 1007 680 c 0
 1082 607 1121 508 1121 390 c 0
 1121 136 943 -29 664 -29 c 0
 498 -29 391 9 264 114 c 1
 179 -15 l 1
 105 -15 l 1
 96 526 l 1
 179 526 l 1xe8
 208 380 247 290 327 201 c 0
 416 102 517 58 658 58 c 0
 763 58 824 79 887 134 c 0
 943 185 973 249 973 325 c 0
 973 400 942 463 886 506 c 0
 846 536 832 540 691 576 c 2
 511 621 l 2
 232 694 129 796 129 1003 c 0
 129 1240 297 1400 546 1400 c 0
 680 1400 803 1355 892 1269 c 1
 967 1384 l 1
 1037 1384 l 1xd8
EndSplineSet
Validated: 1
EndChar

StartChar: T
Encoding: 53 84 221
Width: 1266
VWidth: 1900
Flags: W
HStem: 0 89<309 522.938 746.734 959> 1282 90<286.419 525.561 744.282 979.397>
VStem: 36 82<843 1039.01> 528 214<97.974 1276.71> 1150 81<843 1037.91>
LayerCount: 2
Fore
SplineSet
1203 1372 m 1
 1231 843 l 1
 1150 843 l 1
 1135 951 1115 1034 1086 1104 c 0
 1038 1218 946 1282 830 1282 c 0
 767 1282 742 1263 742 1215 c 2
 742 234 l 1
 742 179 l 2
 742 99 757 89 910 89 c 2
 959 89 l 1
 959 0 l 1
 309 0 l 1
 309 89 l 1
 357 89 l 2
 511 89 528 99 528 179 c 2
 528 234 l 1
 528 1215 l 2
 528 1263 501 1282 438 1282 c 0
 309 1282 218 1212 169 1072 c 0
 147 1010 131 937 118 843 c 1
 36 843 l 1
 65 1372 l 1
 1203 1372 l 1
EndSplineSet
Validated: 1
EndChar

StartChar: U
Encoding: 54 85 222
Width: 1548
VWidth: 1900
Flags: W
HStem: -29 104<616.644 1004.29> 1282 90<32 229.805 450.486 654 977 1133.47 1359.95 1518>
VStem: 234 212<234.679 1273.39> 1195 103<263.515 1219.7>
LayerCount: 2
Fore
SplineSet
1298 959 m 2
 1298 528 l 2
 1298 359 1277 259 1215 171 c 0
 1124 37 974 -29 760 -29 c 0
 546 -29 378 41 290 167 c 0
 254 220 239 281 234 382 c 1
 234 513 l 1
 234 1138 l 1
 234 1193 l 2
 234 1273 218 1282 65 1282 c 2
 32 1282 l 1
 32 1372 l 1
 654 1372 l 1
 654 1282 l 1
 618 1282 l 2
 464 1282 446 1273 446 1193 c 2
 446 1138 l 1
 446 502 l 2
 446 326 457 279 508 209 c 0
 571 123 682 75 811 75 c 0
 965 75 1088 143 1150 261 c 0
 1186 328 1195 387 1195 540 c 2
 1195 959 l 2
 1195 1220 1158 1274 977 1282 c 1
 977 1372 l 1
 1518 1372 l 1
 1518 1282 l 1
 1335 1274 1298 1220 1298 959 c 2
EndSplineSet
Validated: 1
EndChar

